<?xml version="1.0" encoding="utf-8"?>
<!-- Generator: Adobe Illustrator 17.0.2, SVG Export Plug-In . SVG Version: 6.00 Build 0)  -->
<!DOCTYPE svg PUBLIC "-//W3C//DTD SVG 1.1//EN" "http://www.w3.org/Graphics/SVG/1.1/DTD/svg11.dtd">
<svg version="1.1" id="Layer_1" xmlns="http://www.w3.org/2000/svg" xmlns:xlink="http://www.w3.org/1999/xlink" x="0px" y="0px"
	 width="792px" height="612px" viewBox="0 0 792 612" style="enable-background:new 0 0 792 612;" xml:space="preserve">
<style type="text/css">
	.st0{fill:#1CAF5D;}
	.st1{fill:#F0C518;stroke:#F0C518;stroke-width:2.4276;stroke-linecap:round;stroke-linejoin:round;}
</style>
<g>
	<g>
		<path class="st0" d="M290.2,272.5h8.2v2.5h-2.8l3.6,15.2c0.2,0.8,0.3,1.7,0.3,1.7h0.1c0,0,0.1-0.9,0.3-1.7l4.8-17.7h2.8l4.8,17.7
			c0.2,0.8,0.3,1.7,0.3,1.7h0.1c0,0,0.1-0.9,0.2-1.7l3.6-15.2H314v-2.5h8.3v2.5H320l-5.2,20.6h-3.7l-4.5-16.4
			c-0.2-0.8-0.3-1.8-0.3-1.8h-0.1c0,0-0.1,1-0.3,1.8l-4.5,16.4h-3.7l-5.1-20.6h-2.2V272.5z"/>
		<path class="st0" d="M331.4,293.1h2.9v-18h-2.9v-2.5h9.1v2.5h-2.9v18h2.9v2.6h-9.1V293.1z"/>
		<path class="st0" d="M350.1,293.1h2.9v-18h-2.9v-2.5h6.1l11.4,16.6c0.4,0.7,0.8,1.7,0.8,1.7h0.1c0,0-0.2-1.1-0.2-1.9v-13.9h-2.9
			v-2.5h9.1v2.5h-2.9v20.6h-3.2L357,279.1c-0.4-0.7-0.8-1.7-0.8-1.7h-0.1c0,0,0.2,1.1,0.1,1.9v13.8h3v2.6h-9.1V293.1z"/>
		<path class="st0" d="M383.9,293.1h2.9v-18h-2.9v-2.5h6.1l11.4,16.6c0.4,0.7,0.8,1.7,0.8,1.7h0.1c0,0-0.2-1.1-0.2-1.9v-13.9h-2.9
			v-2.5h9.1v2.5h-2.9v20.6h-3.2l-11.4-16.6c-0.4-0.7-0.8-1.7-0.8-1.7H390c0,0,0.2,1.1,0.1,1.9v13.8h3v2.6h-9.1V293.1z"/>
		<path class="st0" d="M417.8,293.1h2.9v-18h-2.9v-2.5h9.1v2.5H424v18h2.9v2.6h-9.1V293.1z"/>
		<path class="st0" d="M436.5,293.1h2.9v-18h-2.9v-2.5h6.1l11.4,16.6c0.4,0.7,0.8,1.7,0.8,1.7h0.1c0,0-0.2-1.1-0.2-1.9v-13.9h-2.9
			v-2.5h9.1v2.5H458v20.6h-3.2l-11.4-16.6c-0.4-0.7-0.8-1.7-0.8-1.7h-0.1c0,0,0.2,1.1,0.1,1.9v13.8h3v2.6h-9.1V293.1z"/>
		<path class="st0" d="M481.7,272.1c4.1,0,8.9,1.6,8.9,4.6v2.8h-3v-1.7c0-1.9-3-2.9-5.8-2.9c-5.4,0-8.8,3.7-8.8,9
			c0,5.3,3.5,9.3,8.9,9.3c2.1,0,6.2-0.6,6.2-2.9v-3h-4.5v-2.6h7.5v6.5c0,3.6-6,4.8-9.4,4.8c-7.1,0-12.1-5.2-12.1-12
			C469.5,277.2,474.4,272.1,481.7,272.1z"/>
	</g>
	<g>
		<path class="st0" d="M321.9,335c-2,1-7.8,3.1-9.8,3.1c-2.2,0-5.4-2.7-5.4-4.9c0-1.2,1.3-2,2.4-2c1.3,0,3,1.6,4.8,1.6
			c1.6,0,8.4-2.7,8.4-4.4c0-3.8-21.1-4-21.1-11.4c0-5.5,9.7-8.1,13.9-8.1c2.6,0,7.3,2.5,7.3,5.4c0,1.8-2,4.6-4,4.6
			c-0.7,0-1.1-0.2-1.1-1c0-0.9,0.5-1.7,0.5-2.6c0-1.7-1.4-2.2-2.9-2.2c-1.7,0-8.4,1.4-8.4,3.8c0,3.1,20.8,3.9,20.8,11.3
			C327.2,331.1,324.4,333.8,321.9,335z"/>
		<path class="st0" d="M352.3,335.4c-2.5,0-4.9,0.7-7.4,0.7c-2.3,0-7.6-0.5-9.4-2c-1.9-1.5-2.5-4.2-2.5-6.5c0-0.6,0.1-1.2,0.1-1.9
			c0.5-4.3,1.1-8.6,1.7-13c0.1-1.2,0.7-1.9,1.9-1.9c1.7,0,2.1,0.9,2.1,2.5c0,4.4-0.8,9.3-0.8,13.5c0,3.3,2.1,4.5,5.1,4.5
			c2.4,0,6.7-0.2,8.9-0.9c0.5-0.2,1-0.3,1.6-0.3c0.8,0,1.3,0.3,1.3,1.2C355.1,332.8,354,335.4,352.3,335.4z"/>
		<path class="st0" d="M376.5,333c-2.9,2.9-4.7,4.4-8.9,4.4c-4.8,0-7.7-3.1-7.7-7.8c0-4.7,1.8-7.8,4.9-11.1c1.8-1.9,5-5,7.7-5
			c2.3,0,6.1,2.7,6.4,5c0.2,1.5,0.2,3.1,0.2,4.7C379.1,326.3,378.7,330.6,376.5,333z M371.7,319.2c-3.7,0-7.1,6.8-7.1,10
			c0,3.2,2.9,2.9,5.4,2.9c3.3,0,4.9-6.8,4.9-9.4C374.8,320.2,374.1,319.2,371.7,319.2z"/>
		<path class="st0" d="M420.4,332.3c-1.1,3.5-5.7,7.6-9.4,7.6c-3.1,0-5.6-4.3-6.5-6.9c-0.3-0.9-1-5.2-2-5.2c-1,0-5.2,8.1-11.4,8.1
			c-2.9,0-3.6-2.7-3.6-5c0-6-0.3-12-0.3-17.9c0-0.9,0.5-2.3,1.6-2.3c1.6,0,2.6,1.3,2.6,2.9v1.3l0.1,1.3v2.4c0,1.1-0.4,11.9,1.1,11.9
			c1.2,0,5-3.5,5.9-4.4c2.3-2.3,2.5-7.8,5.4-7.8c3.7,0,3.8,15.9,7.6,15.9c6.2,0,6-13.6,6-17.7c0-1.4,1.1-3.3,2.7-3.3
			c1.9,0,2.3,2.3,2.3,3.8C422.4,320.3,421.3,329.4,420.4,332.3z"/>
		<path class="st0" d="M449.2,335.4c-2.5,0-4.9,0.7-7.4,0.7c-2.3,0-7.6-0.5-9.4-2c-1.9-1.5-2.5-4.2-2.5-6.5c0-0.6,0.1-1.2,0.1-1.9
			c0.5-4.3,1.1-8.6,1.7-13c0.1-1.2,0.7-1.9,1.9-1.9c1.7,0,2.1,0.9,2.1,2.5c0,4.4-0.8,9.3-0.8,13.5c0,3.3,2.1,4.5,5.1,4.5
			c2.4,0,6.7-0.2,8.9-0.9c0.5-0.2,1-0.3,1.6-0.3c0.8,0,1.3,0.3,1.3,1.2C452,332.8,451,335.4,449.2,335.4z"/>
	</g>
	<g>
		<path class="st0" d="M462.4,317c-3.2,0-5.9-0.9-5.9-4.5c0-0.6,0.7-1.4,1.3-2.3l-5-0.2c-0.4,1.4-0.5,3-0.5,4.1
			c0,4.7,4.2,8.2,8.8,8.2c0.7,0,0.7,0.7,0.7,1.2c0,2-1,4-1,6c0,2.6,0.7,7.3,4.2,7.3c1.1,0,2.9-0.7,2.9-2c0-3.8-2.4-0.9-2.4-6.1
			c0-1.7,1.3-6.7,2.4-7.8c0.5-0.5,7.4-3.1,8.9-4c1.4-0.8,4-3.3,5.5-5.5l-5.7-0.2C473.7,314.7,465.7,317,462.4,317z"/>
	</g>
	<g>
		<path class="st1" d="M501.8,301.5l-0.1,2.4L337,303.3l0,0.1l164.5,8.8l-0.1,2.4l-211.1-12.7L501.8,301.5z"/>
	</g>
</g>
</svg>
