<?xml version="1.0" encoding="utf-8"?>
<!-- Generator: Adobe Illustrator 17.0.2, SVG Export Plug-In . SVG Version: 6.00 Build 0)  -->
<!DOCTYPE svg PUBLIC "-//W3C//DTD SVG 1.1//EN" "http://www.w3.org/Graphics/SVG/1.1/DTD/svg11.dtd">
<svg version="1.1" id="Layer_1" xmlns="http://www.w3.org/2000/svg" xmlns:xlink="http://www.w3.org/1999/xlink" x="0px" y="0px"
	 width="792px" height="612px" viewBox="0 0 792 612" style="enable-background:new 0 0 792 612;" xml:space="preserve">
<style type="text/css">
	.st0{fill:#237FBB;}
	.st1{fill:#5BAADE;}
	.st2{clip-path:url(#SVGID_2_);}
</style>
<g>
	<g>
		<g>
			<g>
				<path class="st0" d="M339.7,272.8h8.2v2.5h-2.8l3.6,15.2c0.2,0.8,0.3,1.7,0.3,1.7h0.1c0,0,0.1-0.9,0.3-1.7l4.8-17.7h2.8
					l4.8,17.7c0.2,0.8,0.3,1.7,0.3,1.7h0.1c0,0,0.1-0.9,0.2-1.7l3.6-15.2h-2.8v-2.5h8.3v2.5h-2.2l-5.2,20.6h-3.7l-4.5-16.4
					c-0.2-0.8-0.3-1.8-0.3-1.8h-0.1c0,0-0.1,1-0.3,1.8l-4.5,16.4h-3.7l-5.1-20.6h-2.2V272.8z"/>
				<path class="st0" d="M380.8,293.4h2.9v-18h-2.9v-2.5h9.1v2.5h-2.9v18h2.9v2.6h-9.1V293.4z"/>
				<path class="st0" d="M399.4,293.4h2.9v-18h-2.9v-2.5h6.1l11.4,16.6c0.4,0.7,0.8,1.7,0.8,1.7h0.1c0,0-0.2-1.1-0.2-1.9v-13.9h-2.9
					v-2.5h9.1v2.5h-2.9v20.6h-3.2l-11.4-16.6c-0.4-0.7-0.8-1.7-0.8-1.7h-0.1c0,0,0.2,1.1,0.1,1.9v13.8h3v2.6h-9.1V293.4z"/>
				<path class="st0" d="M433.2,293.4h2.9v-18h-2.9v-2.5h6.1l11.4,16.6c0.4,0.7,0.8,1.7,0.8,1.7h0.1c0,0-0.2-1.1-0.2-1.9v-13.9h-2.9
					v-2.5h9.1v2.5h-2.9v20.6h-3.2l-11.4-16.6c-0.4-0.7-0.8-1.7-0.8-1.7h-0.1c0,0,0.2,1.1,0.1,1.9v13.8h3v2.6h-9.1V293.4z"/>
				<path class="st0" d="M467,293.4h2.9v-18H467v-2.5h9.1v2.5h-2.9v18h2.9v2.6H467V293.4z"/>
				<path class="st0" d="M485.6,293.4h2.9v-18h-2.9v-2.5h6.1l11.4,16.6c0.4,0.7,0.8,1.7,0.8,1.7h0.1c0,0-0.2-1.1-0.2-1.9v-13.9h-2.9
					v-2.5h9.1v2.5h-2.9v20.6h-3.2l-11.4-16.6c-0.4-0.7-0.8-1.7-0.8-1.7h-0.1c0,0,0.2,1.1,0.1,1.9v13.8h3v2.6h-9.1V293.4z"/>
				<path class="st0" d="M530.7,272.4c4.1,0,8.9,1.6,8.9,4.6v2.8h-3v-1.7c0-1.9-3-2.9-5.8-2.9c-5.4,0-8.8,3.7-8.8,9
					c0,5.3,3.5,9.3,8.9,9.3c2.1,0,6.2-0.6,6.2-2.9v-3h-4.5V285h7.5v6.5c0,3.6-6,4.8-9.4,4.8c-7.1,0-12.1-5.2-12.1-12
					S523.5,272.4,530.7,272.4z"/>
			</g>
		</g>
		<g>
			<path class="st1" d="M371.6,338.1c-2,1-7.8,3.1-9.8,3.1c-2.2,0-5.4-2.7-5.4-4.9c0-1.2,1.3-2,2.4-2c1.3,0,3,1.6,4.8,1.6
				c1.6,0,8.4-2.7,8.4-4.4c0-3.8-21.1-4-21.1-11.4c0-5.5,9.7-8.1,13.9-8.1c2.6,0,7.3,2.5,7.3,5.4c0,1.8-2,4.6-4,4.6
				c-0.7,0-1.1-0.2-1.1-1c0-0.9,0.5-1.7,0.5-2.6c0-1.7-1.4-2.2-2.9-2.2c-1.7,0-8.4,1.4-8.4,3.8c0,3.1,20.8,3.9,20.8,11.3
				C376.9,334.2,374.1,336.8,371.6,338.1z"/>
			<path class="st1" d="M401.8,338.4c-2.5,0-4.9,0.7-7.4,0.7c-2.3,0-7.6-0.5-9.4-2c-1.9-1.5-2.5-4.2-2.5-6.5c0-0.6,0.1-1.2,0.1-1.9
				c0.5-4.3,1.1-8.6,1.7-13c0.1-1.2,0.7-1.9,1.9-1.9c1.7,0,2.1,0.9,2.1,2.5c0,4.4-0.8,9.3-0.8,13.5c0,3.3,2.1,4.5,5.1,4.5
				c2.4,0,6.7-0.2,8.9-0.9c0.5-0.2,1-0.3,1.6-0.3c0.8,0,1.3,0.3,1.3,1.2C404.6,335.8,403.5,338.4,401.8,338.4z"/>
			<path class="st1" d="M425.8,336c-2.9,2.9-4.7,4.4-8.9,4.4c-4.8,0-7.7-3.1-7.7-7.8c0-4.7,1.8-7.8,4.9-11c1.8-1.9,5-5,7.7-5
				c2.3,0,6.1,2.7,6.4,5c0.2,1.5,0.2,3.1,0.2,4.7C428.4,329.3,428.1,333.6,425.8,336z M421.1,322.2c-3.7,0-7.1,6.8-7.1,10
				c0,3.2,2.9,2.9,5.4,2.9c3.3,0,4.9-6.8,4.9-9.4C424.2,323.2,423.5,322.2,421.1,322.2z"/>
			<path class="st1" d="M469.6,335.3c-1.1,3.5-5.7,7.6-9.4,7.6c-3.1,0-5.6-4.3-6.5-6.9c-0.3-0.9-1-5.2-2-5.2c-1,0-5.2,8.1-11.4,8.1
				c-2.9,0-3.6-2.7-3.6-5c0-6-0.3-12-0.3-17.9c0-0.9,0.5-2.3,1.6-2.3c1.6,0,2.6,1.3,2.6,2.9v1.3l0.1,1.3v2.4
				c0,1.1-0.4,11.9,1.1,11.9c1.2,0,5-3.5,5.9-4.4c2.3-2.3,2.5-7.8,5.4-7.8c3.7,0,3.8,15.9,7.6,15.9c6.2,0,6-13.6,6-17.7
				c0-1.4,1.1-3.3,2.7-3.3c1.9,0,2.3,2.3,2.3,3.8C471.6,323.3,470.5,332.4,469.6,335.3z"/>
			<path class="st1" d="M498.3,338.4c-2.5,0-4.9,0.7-7.4,0.7c-2.3,0-7.6-0.5-9.4-2c-1.9-1.5-2.5-4.2-2.5-6.5c0-0.6,0.1-1.2,0.1-1.9
				c0.5-4.3,1.1-8.6,1.7-13c0.1-1.2,0.7-1.9,1.9-1.9c1.7,0,2.1,0.9,2.1,2.5c0,4.4-0.8,9.3-0.8,13.5c0,3.3,2.1,4.5,5.1,4.5
				c2.4,0,6.7-0.2,8.9-0.9c0.5-0.2,1-0.3,1.6-0.3c0.8,0,1.3,0.3,1.3,1.2C501.1,335.8,500,338.4,498.3,338.4z"/>
			<path class="st1" d="M525.6,319.9c-1.5,0.9-8.4,3.5-8.9,4c-1.1,1.1-2.4,6.2-2.4,7.8c0,5.2,2.4,2.3,2.4,6.1c0,1.3-1.9,2-2.9,2
				c-3.5,0-4.2-4.7-4.2-7.3c0-2,1-4,1-6c0-0.5-0.1-1.2-0.7-1.2c-4.6,0-8.8-3.5-8.8-8.2c0-2.3,0.5-7.4,3.8-7.4c0.9,0,2.6,0.7,2.6,1.9
				c0,1-2.1,2.9-2.1,3.9c0,3.5,2.7,4.5,5.9,4.5c4.2,0,15.4-3.5,15.4-8.8c0-1.5,1.1-2.6,2.7-2.6c1.1,0,3,1.6,3,2.7
				C532.3,314,527.7,318.7,525.6,319.9z"/>
		</g>
	</g>
	<g>
		<circle class="st1" cx="289.7" cy="306" r="37.8"/>
		<g>
			<defs>
				<circle id="SVGID_1_" cx="289.7" cy="306" r="37.8"/>
			</defs>
			<clipPath id="SVGID_2_">
				<use xlink:href="#SVGID_1_"  style="overflow:visible;"/>
			</clipPath>
			<g class="st2">
				<path class="st0" d="M217.4,312.9l212.1-64.1l1.4,12.8l-158.2,49.9l0,0.3l179,12.8l1.4,12.8l-234.7-14.9L217.4,312.9z"/>
			</g>
		</g>
	</g>
</g>
</svg>
