<?xml version="1.0" encoding="utf-8"?>
<!-- Generator: Adobe Illustrator 17.0.2, SVG Export Plug-In . SVG Version: 6.00 Build 0)  -->
<!DOCTYPE svg PUBLIC "-//W3C//DTD SVG 1.1//EN" "http://www.w3.org/Graphics/SVG/1.1/DTD/svg11.dtd">
<svg version="1.1" id="Layer_1" xmlns="http://www.w3.org/2000/svg" xmlns:xlink="http://www.w3.org/1999/xlink" x="0px" y="0px"
	 width="792px" height="612px" viewBox="0 0 792 612" enable-background="new 0 0 792 612" xml:space="preserve">
<g>
	<g>
		<g>
			<path fill="#D45627" d="M349.346,277.598h8.219v2.521h-2.751l3.602,15.161c0.164,0.818,0.262,1.735,0.262,1.735h0.098
				c0,0,0.131-0.917,0.328-1.735l4.846-17.683h2.783l4.813,17.683c0.229,0.818,0.328,1.735,0.328,1.735h0.131
				c0,0,0.065-0.917,0.229-1.735l3.602-15.161h-2.751v-2.521h8.252v2.521h-2.227l-5.174,20.597h-3.733l-4.519-16.405
				c-0.229-0.818-0.294-1.834-0.294-1.834h-0.131c0,0-0.065,1.016-0.294,1.834l-4.519,16.405h-3.733l-5.141-20.597h-2.227V277.598z"
				/>
			<path fill="#D45627" d="M390.403,298.163h2.882V280.12h-2.882v-2.521h9.071v2.521h-2.915v18.043h2.915v2.554h-9.071V298.163z"/>
			<path fill="#D45627" d="M409.026,298.163h2.882V280.12h-2.882v-2.521h6.123l11.363,16.569c0.393,0.654,0.785,1.67,0.785,1.67
				h0.099c0,0-0.164-1.146-0.164-1.866V280.12h-2.947v-2.521h9.137v2.521h-2.915v20.597h-3.209l-11.362-16.569
				c-0.426-0.654-0.786-1.67-0.786-1.67h-0.098c0,0,0.163,1.146,0.131,1.866v13.819h2.979v2.554h-9.136V298.163z"/>
			<path fill="#D45627" d="M442.835,298.163h2.882V280.12h-2.882v-2.521h6.124l11.362,16.569c0.393,0.654,0.786,1.67,0.786,1.67
				h0.098c0,0-0.163-1.146-0.163-1.866V280.12h-2.947v-2.521h9.136v2.521h-2.914v20.597h-3.209l-11.362-16.569
				c-0.426-0.654-0.786-1.67-0.786-1.67h-0.099c0,0,0.164,1.146,0.131,1.866v13.819h2.98v2.554h-9.137V298.163z"/>
			<path fill="#D45627" d="M476.644,298.163h2.882V280.12h-2.882v-2.521h9.071v2.521H482.8v18.043h2.915v2.554h-9.071V298.163z"/>
			<path fill="#D45627" d="M495.267,298.163h2.882V280.12h-2.882v-2.521h6.124l11.362,16.569c0.393,0.654,0.786,1.67,0.786,1.67
				h0.098c0,0-0.163-1.146-0.163-1.866V280.12h-2.947v-2.521h9.136v2.521h-2.914v20.597h-3.209l-11.362-16.569
				c-0.426-0.654-0.786-1.67-0.786-1.67h-0.099c0,0,0.164,1.146,0.131,1.866v13.819h2.98v2.554h-9.137V298.163z"/>
			<path fill="#D45627" d="M540.354,277.206c4.061,0,8.874,1.637,8.874,4.551v2.85h-3.013v-1.703c0-1.932-3.045-2.882-5.764-2.882
				c-5.402,0-8.808,3.668-8.808,8.973c0,5.337,3.471,9.267,8.906,9.267c2.063,0,6.188-0.622,6.188-2.882v-3.045h-4.519v-2.554h7.531
				v6.483c0,3.569-5.959,4.846-9.431,4.846c-7.105,0-12.083-5.174-12.083-12.018S533.149,277.206,540.354,277.206z"/>
		</g>
	</g>
	<g>
		<g>
			<path fill="#ED9747" d="M381.292,342.854c-2.009,1.004-7.769,3.08-9.845,3.08c-2.21,0-5.358-2.679-5.358-4.889
				c0-1.205,1.34-2.009,2.411-2.009c1.272,0,3.014,1.606,4.755,1.606c1.607,0,8.372-2.745,8.372-4.42
				c0-3.817-21.096-3.951-21.096-11.385c0-5.491,9.711-8.104,13.93-8.104c2.612,0,7.3,2.478,7.3,5.425
				c0,1.809-2.009,4.621-3.951,4.621c-0.737,0-1.139-0.201-1.139-1.005c0-0.87,0.469-1.741,0.469-2.611
				c0-1.741-1.406-2.21-2.947-2.21c-1.741,0-8.371,1.406-8.371,3.75c0,3.08,20.761,3.884,20.761,11.251
				C386.583,338.97,383.77,341.648,381.292,342.854z"/>
			<path fill="#ED9747" d="M411.444,343.188c-2.479,0-4.89,0.67-7.367,0.67c-2.277,0-7.635-0.535-9.376-2.009
				c-1.875-1.54-2.544-4.152-2.544-6.496c0-0.603,0.067-1.206,0.134-1.875c0.536-4.286,1.071-8.64,1.741-12.993
				c0.134-1.205,0.669-1.875,1.942-1.875c1.674,0,2.143,0.938,2.143,2.479c0,4.42-0.803,9.309-0.803,13.527
				c0,3.282,2.143,4.487,5.089,4.487c2.411,0,6.697-0.201,8.907-0.938c0.469-0.201,1.005-0.335,1.607-0.335
				c0.804,0,1.34,0.335,1.34,1.206C414.257,340.577,413.186,343.188,411.444,343.188z"/>
			<path fill="#ED9747" d="M435.467,340.778c-2.88,2.946-4.688,4.42-8.907,4.42c-4.755,0-7.701-3.081-7.701-7.836
				c0-4.688,1.808-7.769,4.889-11.05c1.808-1.875,4.956-5.023,7.701-5.023c2.277,0,6.095,2.68,6.43,5.023
				c0.201,1.54,0.201,3.147,0.201,4.688C438.079,334.147,437.744,338.434,435.467,340.778z M430.712,326.982
				c-3.684,0-7.099,6.764-7.099,9.979c0,3.214,2.946,2.88,5.357,2.88c3.349,0,4.889-6.831,4.889-9.376
				C433.859,327.986,433.123,326.982,430.712,326.982z"/>
			<path fill="#ED9747" d="M479.246,340.108c-1.138,3.482-5.692,7.567-9.442,7.567c-3.081,0-5.626-4.286-6.496-6.897
				c-0.269-0.871-1.005-5.157-2.01-5.157c-1.004,0-5.156,8.104-11.385,8.104c-2.88,0-3.616-2.679-3.616-5.022
				c0-6.027-0.268-11.988-0.268-17.948c0-0.938,0.469-2.277,1.606-2.277c1.607,0,2.612,1.34,2.612,2.947v1.339l0.067,1.34v2.41
				c0,1.139-0.402,11.921,1.138,11.921c1.206,0,4.956-3.482,5.894-4.42c2.277-2.344,2.545-7.835,5.425-7.835
				c3.684,0,3.817,15.938,7.567,15.938c6.229,0,5.961-13.595,5.961-17.68c0-1.407,1.139-3.282,2.679-3.282
				c1.875,0,2.277,2.344,2.277,3.751C481.256,328.12,480.184,337.229,479.246,340.108z"/>
			<path fill="#ED9747" d="M507.911,343.188c-2.478,0-4.889,0.67-7.367,0.67c-2.276,0-7.634-0.535-9.375-2.009
				c-1.876-1.54-2.545-4.152-2.545-6.496c0-0.603,0.066-1.206,0.134-1.875c0.535-4.286,1.071-8.64,1.741-12.993
				c0.134-1.205,0.67-1.875,1.941-1.875c1.675,0,2.144,0.938,2.144,2.479c0,4.42-0.804,9.309-0.804,13.527
				c0,3.282,2.144,4.487,5.09,4.487c2.411,0,6.697-0.201,8.907-0.938c0.469-0.201,1.005-0.335,1.607-0.335
				c0.804,0,1.339,0.335,1.339,1.206C510.724,340.577,509.652,343.188,507.911,343.188z"/>
			<path fill="#ED9747" d="M535.29,324.705c-1.474,0.87-8.438,3.55-8.907,4.019c-1.139,1.138-2.411,6.161-2.411,7.835
				c0,5.224,2.411,2.344,2.411,6.095c0,1.272-1.875,2.009-2.947,2.009c-3.482,0-4.219-4.688-4.219-7.3
				c0-2.009,1.005-3.951,1.005-5.96c0-0.469-0.067-1.206-0.737-1.206c-4.621,0-8.773-3.549-8.773-8.237
				c0-2.344,0.536-7.366,3.751-7.366c0.938,0,2.611,0.736,2.611,1.875c0,1.004-2.143,2.88-2.143,3.884
				c0,3.55,2.679,4.487,5.894,4.487c4.152,0,15.403-3.482,15.403-8.773c0-1.54,1.139-2.611,2.679-2.611
				c1.071,0,3.014,1.607,3.014,2.745C541.92,318.812,537.366,323.499,535.29,324.705z"/>
		</g>
	</g>
</g>
<g>
	<circle fill="#ED9747" cx="299.3" cy="310.802" r="37.759"/>
	<g>
		<defs>
			<circle id="SVGID_1_" cx="299.3" cy="310.802" r="37.759"/>
		</defs>
		<clipPath id="SVGID_2_">
			<use xlink:href="#SVGID_1_"  overflow="visible"/>
		</clipPath>
		<g clip-path="url(#SVGID_2_)">
			<path fill="#D45627" d="M227.044,317.735l212.128-64.099l1.402,12.779l-158.234,49.903l0.032,0.287l179.028,12.756l1.402,12.779
				l-234.717-14.928L227.044,317.735z"/>
		</g>
	</g>
</g>
</svg>
