<?xml version="1.0" standalone="no"?>
<!DOCTYPE svg PUBLIC "-//W3C//DTD SVG 20010904//EN"
 "http://www.w3.org/TR/2001/REC-SVG-20010904/DTD/svg10.dtd">
<svg version="1.0" xmlns="http://www.w3.org/2000/svg"
 width="480.000000pt" height="480.000000pt" viewBox="0 0 480.000000 480.000000"
 preserveAspectRatio="xMidYMid meet">
<metadata>
Created by potrace 1.11, written by Peter Selinger 2001-2013
</metadata>
<g transform="translate(0.000000,480.000000) scale(0.100000,-0.100000)"
fill="#000000" stroke="none">
<path d="M3485 3215 c-244 -45 -419 -200 -470 -417 -19 -82 -19 -208 0 -283
54 -208 184 -318 516 -436 250 -89 364 -165 389 -259 32 -117 -2 -242 -80
-299 -114 -82 -305 -88 -441 -14 -111 60 -223 222 -265 386 l-18 67 -66 0 -65
0 12 -227 c13 -260 3 -237 128 -298 207 -101 508 -132 729 -75 230 59 387 205
435 404 18 72 15 240 -5 306 -38 128 -110 221 -227 294 -87 54 -151 83 -323
146 -300 110 -376 179 -376 342 0 86 29 148 90 195 55 41 108 56 202 54 215
-3 356 -133 420 -388 l11 -43 59 0 60 0 0 199 0 200 -27 19 c-157 111 -468
168 -688 127z"/>
<path d="M372 3139 l3 -52 49 -15 c30 -10 56 -27 70 -44 11 -16 158 -395 326
-841 l305 -812 79 0 79 0 182 497 c100 274 184 500 186 502 2 3 81 -221 175
-497 l171 -502 73 -3 c40 -2 77 1 81 5 5 5 137 375 294 823 158 448 291 821
297 828 17 19 84 52 108 52 18 0 20 6 20 55 l0 55 -261 0 -260 0 3 -52 3 -53
59 -7 c100 -13 132 -47 123 -132 -6 -52 -304 -946 -316 -946 -7 0 -275 822
-298 915 -26 106 6 152 114 164 l58 6 3 53 3 52 -396 0 -396 0 3 -51 c3 -49 4
-51 42 -64 67 -23 80 -46 159 -277 l74 -218 -112 -305 -111 -305 -166 458
c-195 536 -188 515 -188 559 0 57 37 83 140 96 11 2 16 17 18 55 l3 52 -401 0
-401 0 3 -51z"/>
</g>
</svg>
