<?xml  version="1.0" encoding="UTF-8"?>
<!DOCTYPE svg PUBLIC "-//W3C//DTD SVG 1.0//EN" "http://www.w3.org/TR/2001/REC-SVG-20010904/DTD/svg10.dtd" >
<svg xmlns="http://www.w3.org/2000/svg" >
<metadata>
<version>1.0</version>
<id><![CDATA[Museo Slab W01 500]]></id>
<vendor>Monotype Imaging Inc.</vendor>
<credits>
<name>Fonts.com WebFonts</name>
<URL>http://webfonts.fonts.com</URL>
<role>Home of the Web fonts</role>
</credits>
<license>
<URL>http://webfonts.fonts.com/Legal</URL>
</license>
<copyright><![CDATA[Copyright (c) 2009 by Jos Buivenga. All rights reserved.]]></copyright>
<trademark><![CDATA[Museo Slab is a trademark of Jos Buivenga.]]></trademark>
<licensee>
<name></name>
</licensee>
</metadata>
<defs >
<font horiz-adv-x="1182" id="5329032e-48ad-4e1a-9b4c-6b847641304c">
<font-face font-family="" panose-1="2 0 0 0 0 0 0 0 0 0" ascent="1539" descent="-509" units-per-em="2048" alphabetic="0">
</font-face>
<missing-glyph horiz-adv-x="0" />

<glyph unicode="&#xA;" />
<glyph unicode="&#xD;" horiz-adv-x="0" />
<glyph unicode=" " horiz-adv-x="512" />
<glyph unicode="!" horiz-adv-x="506" d="M150 1446H354L342 397H164L150 1446ZM152 201H356V0H152V201Z"  />
<glyph unicode="&quot;" horiz-adv-x="705" d="M418 1470H573V1036H418V1470ZM131 1470H287V1036H131V1470Z"  />
<glyph unicode="#" horiz-adv-x="1468" d="M354 391H86L111 543H379L440 887H174L199 1036H465L537 1446H702L631 1036H948L1020 1446H1188L1116 1036H1382L1358 887H1090L1028 543H1294L1270 391H1004L936 0H768L838 391H520L451 0H285L354 391ZM862 543L924 887H606L545 543H862Z"  />
<glyph unicode="$" horiz-adv-x="1112" d="M197 342Q245 298 303 264Q353 235 419 211T565 186Q617 186 663 200T744 242T799 309T819 399Q819 452 789 490T709 559T595 614T465 667T335 727T222 805T142 912T111 1057Q111 1128 138 1191T216 1304T336 1388T492 1434V1657H637V1436Q723 1429 788 1407T898 1359Q950 1330 987 1294L899 1137Q857 1172 807 1199Q764 1222 707 1242T582 1262Q521 1262 472 1247T388 1205T334 1141T315 1061Q315 1004 345 964T426 893T539 837T669 786T799 728T913 654T993 552T1024 412Q1024 337 998 269T921 146T800 56T637 10V-209H492V10Q442 15 399 25T318 50T248 81T190 114Q129 152 86 197L197 342Z"  />
<glyph unicode="%" horiz-adv-x="1536" d="M397 864Q332 864 276 887T178 952T112 1049T88 1167Q88 1229 112 1284T178 1380T276 1446T397 1470Q461 1470 518 1446T617 1381T684 1284T709 1167Q709 1104 685 1049T618 953T518 888T397 864ZM1225 1446H1417L311 0H119L1225 1446ZM397 1016Q429 1016 457 1027T505 1059T537 1107T549 1167Q549 1198 538 1226T506 1275T457 1308T397 1321Q365 1321 337 1309T289 1275T258 1226T246 1167Q246 1135 257 1107T289 1059T337 1028T397 1016ZM829 279Q829 341 853 396T920 492T1019 558T1141 582Q1205 582 1261 558T1359 493T1425 396T1450 279Q1450 216 1426 161T1359 64T1261 -1T1141 -25Q1076 -25 1019 -1T920 64T854 160T829 279ZM989 279Q989 247 1000 219T1032 171T1081 139T1141 127Q1172 127 1200 138T1248 170T1280 219T1292 279Q1292 310 1280 338T1248 387T1200 420T1141 432Q1109 432 1081 420T1033 387T1001 338T989 279Z"  />
<glyph unicode="&amp;" horiz-adv-x="1382" d="M100 403Q100 464 117 523T169 631T251 718T362 776V780Q306 802 262 844Q243 862 225 886T193 941T171 1012T162 1098Q162 1188 197 1257T294 1373T441 1445T625 1470Q657 1470 689 1467T747 1459Q777 1454 805 1448L754 1286Q736 1289 718 1292Q702 1294 683 1296T645 1298Q586 1298 536 1284T449 1241T390 1172T369 1077Q369 1042 379 1002T418 927T500 869T637 846H944V1047H1143V846H1333V678H1143V481Q1143 361 1107 267T1003 108T840 9T625 -25Q506 -25 410 8T244 98T138 234T100 403ZM307 420Q307 364 328 316T391 233T491 178T625 158Q697 158 756 177T856 237T921 340T944 489V678H627Q471 678 389 610T307 420Z"  />
<glyph unicode="&apos;" horiz-adv-x="420" d="M131 1470H289V1036H131V1470Z"  />
<glyph unicode="(" horiz-adv-x="643" d="M379 -195Q323 -103 279 1T205 219T158 453T141 696Q141 919 202 1121T379 1505H553Q440 1316 381 1114T322 694Q322 464 378 240T553 -195H379Z"  />
<glyph unicode=")" horiz-adv-x="643" d="M90 -195Q206 16 264 240T322 694Q322 912 263 1114T90 1505H264Q379 1323 440 1121T502 696Q502 573 486 453T439 220T364 2T264 -195H90Z"  />
<glyph unicode="*" horiz-adv-x="981" d="M182 780L365 1006V1010L84 1085L139 1257L412 1155L395 1446H582L565 1155L840 1257L897 1085L614 1010V1006L797 780L649 674L492 915H487L330 674L182 780Z"  />
<glyph unicode="+" horiz-adv-x="1255" d="M86 664H545V1167H713V664H1169V504H713V0H545V504H86V664Z"  />
<glyph unicode="&#x2c;" horiz-adv-x="535" d="M184 215H393L199 -254H41L184 215Z"  />
<glyph unicode="-" horiz-adv-x="975" d="M188 672H786V496H188V672Z"  />
<glyph unicode="." horiz-adv-x="524" d="M156 215H369V0H156V215Z"  />
<glyph unicode="/" horiz-adv-x="868" d="M606 1524H782L260 -86H84L606 1524Z"  />
<glyph unicode="0" horiz-adv-x="1270" d="M635 -25Q490 -25 392 33T234 193T149 431T123 725Q123 881 148 1017T234 1253T392 1412T635 1470Q731 1470 806 1444T939 1369T1035 1254T1100 1103T1136 925T1147 725Q1147 620 1136 524T1100 345T1036 193T939 77T807 2T635 -25ZM635 158Q723 158 781 201T874 321T923 501T938 725Q938 843 924 946T875 1125T782 1246T635 1290Q546 1290 488 1246T395 1126T346 946T332 725Q332 605 346 502T394 322T487 202T635 158Z"  />
<glyph unicode="1" horiz-adv-x="981" d="M104 168H424V1110Q424 1127 424 1143T425 1171Q425 1185 426 1198H422Q417 1188 407 1176Q399 1165 386 1150T352 1116L217 983L94 1110L440 1446H621V168H936V0H104V168Z"  />
<glyph unicode="2" horiz-adv-x="1200" d="M111 0Q100 61 100 111Q100 208 131 285T212 425T327 540T459 638T591 730T706 823T788 925T819 1047Q819 1103 800 1148T747 1224T665 1273T559 1290Q523 1290 492 1282T432 1260T381 1229T338 1194Q293 1152 260 1098L117 1196Q158 1272 223 1333Q251 1358 286 1383T365 1427T461 1458T575 1470Q674 1470 758 1441T903 1357T998 1226T1032 1055Q1032 968 1002 898T922 769T809 661T679 567T549 478T435 387T354 287T322 168H911V360H1090V0H111Z"  />
<glyph unicode="3" horiz-adv-x="1167" d="M141 1446H1024V1305L641 854Q686 849 734 836T827 801T913 745T984 668T1033 567T1051 440Q1051 347 1016 263T916 115T760 13T555 -25Q499 -25 450 -17T357 5T276 37T209 73Q139 116 86 172L193 317Q236 272 291 237Q338 207 402 183T545 158Q606 158 660 178T754 235T818 321T842 432Q842 496 817 546T748 630T646 682T522 700Q493 700 469 699T436 696L389 803L741 1227Q749 1238 759 1247T778 1264Q788 1273 797 1280V1284Q784 1282 771 1281Q760 1279 747 1279T723 1278H319V1094H141V1446Z"  />
<glyph unicode="4" horiz-adv-x="1227" d="M53 514L723 1446H952V551H1149V387H952V0H754V387H53V514ZM274 555V551H754V1118Q754 1136 755 1155T759 1192Q761 1211 764 1229H758Q751 1214 743 1198Q735 1184 726 1167T705 1133L274 555Z"  />
<glyph unicode="5" horiz-adv-x="1155" d="M193 305Q230 264 279 231Q321 203 382 181T522 158Q591 158 650 181T754 244T823 337T848 453Q848 520 825 575T759 669T656 730T520 752Q462 752 416 741T336 715Q297 698 266 678L147 721L219 1446H967V1094H788V1278H395L358 932Q356 921 355 911T351 893Q349 883 348 874H352Q376 886 408 897Q435 905 472 912T557 920Q669 920 761 885T919 787T1021 642T1057 461Q1057 359 1018 270T908 116T742 13T532 -25Q477 -25 429 -17T339 4T262 33T199 68Q133 109 86 162L193 305Z"  />
<glyph unicode="6" horiz-adv-x="1223" d="M655 -25Q537 -25 438 23T267 161T155 374T115 651Q115 747 132 845T184 1034T272 1204T399 1343T565 1436T772 1470Q835 1470 885 1461T973 1440Q1015 1427 1049 1411L985 1241Q957 1254 924 1265Q895 1274 858 1282T776 1290Q676 1290 600 1248T470 1136T384 978T340 799H344Q368 830 403 855T481 898T572 926T672 936Q774 936 858 899T1003 799T1096 649T1130 463Q1130 355 1094 266T995 112T844 11T655 -25ZM328 545Q328 503 338 458T369 370T418 289T483 221T562 175T653 158Q716 158 766 180T851 243T905 340T924 463Q924 528 904 583T844 679T747 743T614 766Q554 766 502 748T411 700T350 629T328 545Z"  />
<glyph unicode="7" horiz-adv-x="1112" d="M809 1208Q826 1243 840 1262Q847 1273 854 1280V1284Q843 1282 830 1281Q807 1278 770 1278H260V1094H82V1446H1073V1307L420 0H211L809 1208Z"  />
<glyph unicode="8" horiz-adv-x="1229" d="M111 408Q111 466 125 515T162 606T212 680T265 737T312 778T344 801Q306 826 274 856T218 921T181 999T168 1092Q168 1164 195 1232T279 1353T419 1438T618 1470Q720 1470 804 1443T949 1366T1043 1246T1077 1090Q1077 1015 1054 951T1001 836T943 754T905 711Q950 685 987 654T1053 584T1096 499T1112 397Q1112 314 1077 238T978 104T821 10T616 -25Q508 -25 416 8T256 98T150 235T111 408ZM369 1090Q369 1028 402 984T489 906T612 844T754 784Q762 794 782 819T824 882T862 966T879 1067Q879 1121 860 1163T807 1234T725 1278T618 1294Q558 1294 512 1278T434 1234T386 1169T369 1090ZM315 428Q315 366 339 316T405 229T501 174T614 154Q671 154 723 172T816 222T881 299T905 397Q905 460 872 503T781 580T648 645T487 715Q472 703 443 680T386 621T336 537T315 428Z"  />
<glyph unicode="9" horiz-adv-x="1223" d="M92 985Q92 1093 128 1182T228 1335T379 1434T569 1470Q687 1470 786 1422T956 1285T1068 1072T1108 795Q1108 700 1091 603T1039 414T951 243T824 104T658 10T451 -25Q388 -25 337 -16T249 5Q206 18 172 35L236 207Q264 193 297 182Q326 173 363 166T446 158Q547 158 624 200T755 312T841 470T885 649H881Q857 620 822 596T743 554T651 528T551 518Q449 518 365 554T220 654T126 802T92 985ZM301 985Q301 920 321 866T380 772T475 710T604 688Q664 688 717 706T809 754T872 823T895 907Q895 950 884 995T852 1082T802 1163T737 1229T658 1273T569 1290Q507 1290 457 1267T373 1203T320 1106T301 985Z"  />
<glyph unicode=":" horiz-adv-x="610" d="M199 215H412V0H199V215ZM199 1036H412V821H199V1036Z"  />
<glyph unicode=";" horiz-adv-x="612" d="M209 1036H418V821H209V1036ZM213 215H422L248 -254H88L213 215Z"  />
<glyph unicode="&lt;" horiz-adv-x="1255" d="M119 651L1073 1077V895L342 586V582L1073 272V90L119 516V651Z"  />
<glyph unicode="=" horiz-adv-x="1255" d="M139 856H1116V696H139V856ZM139 469H1116V309H139V469Z"  />
<glyph unicode="&gt;" horiz-adv-x="1255" d="M180 272L913 582V586L180 895V1077L1137 651V516L180 90V272Z"  />
<glyph unicode="?" horiz-adv-x="961" d="M303 494Q303 572 329 629T393 733T477 818T560 896T625 981T651 1085Q651 1128 634 1165T585 1229T512 1272T418 1288Q369 1288 327 1275T253 1245Q216 1226 184 1202L74 1343Q114 1380 169 1409Q216 1434 281 1454T432 1475Q519 1475 596 1449T732 1373T825 1255T860 1100Q860 1015 833 954T766 844T679 756T592 676T525 589T498 481V397H303V494ZM297 201H504V0H297V201Z"  />
<glyph unicode="@" horiz-adv-x="1612" d="M88 496Q88 653 145 790T304 1030T548 1192T862 1251Q995 1251 1091 1217T1248 1125T1339 992T1368 836V256H1516V106H956Q860 106 782 137T648 222T562 346T532 494Q532 570 562 639T647 761T781 845T956 877H1178Q1177 920 1155 958T1090 1024T989 1070T856 1087Q773 1087 699 1065T561 1004T447 910T361 789T306 648T287 492Q287 372 329 266T447 79T631 -47T868 -94V-256Q697 -256 554 -198T307 -39T146 200T88 496ZM733 494Q733 446 751 403T801 327T877 275T973 256H1178V739H977Q923 739 879 720T802 667T751 590T733 494Z"  />
<glyph unicode="A" horiz-adv-x="1477" d="M23 160H162L623 1446H854L1315 160H1454V0H952V160H1106L993 481H481L369 160H524V0H23V160ZM942 645L766 1147Q758 1169 754 1189T746 1224Q742 1242 741 1257H735Q734 1242 730 1224Q727 1209 723 1189T711 1147L532 645H942Z"  />
<glyph unicode="B" horiz-adv-x="1393" d="M109 160H289V1288H109V1446H766Q844 1446 905 1437T1020 1403Q1063 1384 1099 1353T1162 1280T1204 1187T1219 1077Q1219 971 1170 890T1036 766V762Q1094 745 1139 711T1214 631T1260 529T1276 412Q1276 340 1256 278T1199 167T1115 82T1010 27Q957 10 905 5T793 0H109V160ZM797 838Q846 838 885 854T952 899T995 969T1010 1059Q1010 1122 986 1172T915 1249Q884 1265 848 1271T766 1278H494V838H797ZM801 168Q832 168 866 172T930 188Q961 201 986 224T1030 277T1057 344T1067 422Q1067 478 1050 523T999 601T920 652T817 670H494V168H801Z"  />
<glyph unicode="C" horiz-adv-x="1524" d="M100 731Q100 837 126 933T199 1111T313 1259T462 1372T640 1444T840 1470Q883 1470 941 1465T1060 1446T1180 1411T1287 1357T1362 1283T1391 1184V1008H1200V1120Q1200 1152 1183 1177T1138 1221T1074 1254T998 1277T920 1290T848 1294Q732 1294 634 1254T464 1140T352 964T311 739Q311 611 352 504T467 319T641 198T860 154Q886 154 922 157T999 168T1079 188T1150 220T1201 265T1221 324V436H1411V260Q1411 207 1384 165T1310 92T1205 38T1084 2T960 -18T848 -25Q739 -25 642 1T461 77T311 194T198 347T126 528T100 731Z"  />
<glyph unicode="D" horiz-adv-x="1595" d="M109 160H289V1288H109V1446H725Q770 1446 810 1445T888 1440T960 1429T1032 1411Q1136 1379 1220 1317T1364 1167T1456 967T1489 723Q1489 592 1458 481T1367 283T1223 135T1032 39Q961 16 888 8T727 0H109V160ZM715 168Q786 168 845 175T961 205Q1034 230 1092 277T1191 390T1254 540T1276 723Q1276 823 1254 907T1192 1057T1093 1171T963 1245Q903 1267 845 1272T715 1278H494V168H715Z"  />
<glyph unicode="E" horiz-adv-x="1294" d="M109 160H289V1288H109V1446H1155V1110H977V1278H494V813H1006V645H494V168H1012V342H1190V0H109V160Z"  />
<glyph unicode="F" d="M109 160H289V1288H109V1446H1110V1104H932V1270H494V791H993V623H494V160H690V0H109V160Z"  />
<glyph unicode="G" horiz-adv-x="1569" d="M100 727Q100 887 155 1023T310 1259T549 1414T858 1470Q921 1470 987 1462T1114 1437T1230 1396T1325 1341T1389 1270T1413 1186V1008H1225V1114Q1225 1159 1193 1193T1108 1249T992 1283T864 1294Q737 1294 635 1253T462 1138T352 961T313 733Q313 608 352 502T464 318T639 198T870 154Q902 154 943 157T1028 169T1112 191T1185 225T1237 272T1257 334V524H975V684H1446V279Q1446 223 1418 179T1342 101T1233 43T1106 4T975 -18T856 -25Q689 -25 551 32T312 190T156 428T100 727Z"  />
<glyph unicode="H" horiz-adv-x="1737" d="M109 160H289V1288H109V1446H676V1288H494V807H1243V1288H1061V1446H1628V1288H1448V160H1628V0H1061V160H1243V639H494V160H676V0H109V160Z"  />
<glyph unicode="I" horiz-adv-x="782" d="M109 160H289V1288H109V1446H676V1288H494V160H676V0H109V160Z"  />
<glyph unicode="J" horiz-adv-x="1137" d="M49 487H248V424Q248 371 260 323T299 238T368 180T471 158Q514 158 553 172T623 217T672 299T690 424V1288H481V1446H1057V1288H895V412Q895 296 858 213T761 77T624 0T469 -25Q391 -25 316 -2T182 73T86 205T49 403V487Z"  />
<glyph unicode="K" horiz-adv-x="1417" d="M109 160H289V1288H109V1446H651V1288H494V834H680L995 1288H862V1446H1352V1288H1212L838 766V762Q851 755 864 743Q875 732 889 714T920 666L1180 213Q1197 184 1220 172T1282 160H1350V0H1204Q1159 0 1128 6T1076 24T1038 58T1004 109L725 608Q706 639 682 652T612 666H494V160H672V0H109V160Z"  />
<glyph unicode="L" horiz-adv-x="1237" d="M111 160H291V1278H111V1446H678V1278H496V168H999V401H1180V0H111V160Z"  />
<glyph unicode="M" horiz-adv-x="1962" d="M78 160H258L350 1288H166V1446H575L946 565Q954 542 960 524T971 491Q975 474 979 461H983Q987 474 991 491Q995 505 1001 523T1016 565L1386 1446H1796V1288H1612L1704 160H1884V0H1327V160H1501L1436 1024Q1435 1041 1435 1061T1438 1100Q1440 1121 1442 1143H1436Q1430 1123 1425 1103Q1420 1086 1415 1067T1403 1032L1071 272H891L559 1032Q553 1047 547 1066T536 1103Q531 1123 526 1143H520Q522 1121 524 1100Q526 1082 526 1062T526 1024L461 160H635V0H78V160Z"  />
<glyph unicode="N" horiz-adv-x="1716" d="M109 160H289V1288H109V1446H492L1202 410Q1211 394 1220 376T1236 342Q1244 324 1251 305H1257Q1254 326 1252 347Q1250 365 1249 385T1247 422V1288H1063V1446H1634V1288H1452V0H1251L541 1036Q530 1051 522 1069T506 1104Q498 1122 492 1141H485Q487 1120 490 1099Q492 1081 493 1061T494 1024V160H680V0H109V160Z"  />
<glyph unicode="O" horiz-adv-x="1683" d="M98 733Q98 889 155 1023T312 1257T548 1413T842 1470Q999 1470 1134 1414T1370 1258T1527 1024T1585 733Q1585 626 1559 529T1486 347T1371 195T1221 77T1042 2T842 -25Q737 -25 641 1T463 77T313 194T198 347T124 528T98 733ZM309 733Q309 611 351 506T465 324T634 202T842 158Q952 158 1048 202T1217 323T1330 506T1372 733Q1372 851 1331 953T1217 1130T1049 1247T842 1290Q731 1290 634 1248T465 1130T351 953T309 733Z"  />
<glyph unicode="P" horiz-adv-x="1337" d="M109 160H289V1288H109V1446H782Q848 1446 912 1439T1030 1407Q1086 1383 1131 1343T1209 1251T1258 1134T1276 997Q1276 921 1257 854T1202 731T1116 636T1004 573Q953 555 900 549T786 543H494V160H676V0H109V160ZM762 711Q811 711 850 718T924 739Q993 770 1031 836T1069 997Q1069 1085 1036 1148T940 1243Q906 1262 862 1270T764 1278H494V711H762Z"  />
<glyph unicode="Q" horiz-adv-x="1690" d="M100 731Q100 888 156 1023T313 1257T549 1413T844 1470Q949 1470 1045 1445T1224 1374T1374 1263T1489 1117T1563 941T1589 741Q1589 599 1544 476T1415 254L1587 90L1470 -37L1300 133Q1206 56 1091 16T842 -25Q737 -25 641 1T463 77T314 194T199 347T126 528T100 731ZM311 731Q311 610 352 506T465 324T634 202T844 158Q884 158 926 165T1009 185T1089 219T1159 266L946 477L1063 602L1274 389Q1323 460 1352 548T1382 733Q1382 851 1341 953T1227 1130T1056 1247T844 1290Q732 1290 635 1248T465 1131T352 954T311 731Z"  />
<glyph unicode="R" horiz-adv-x="1438" d="M109 160H289V1288H109V1446H735Q813 1446 877 1441T1001 1415Q1058 1396 1104 1363T1184 1282T1235 1175T1253 1040Q1253 962 1233 896T1173 777T1079 689T954 635V631Q965 625 976 615Q985 607 995 594T1016 563L1221 207Q1238 178 1260 169T1321 160H1364V0H1241Q1195 0 1165 5T1114 22T1076 56T1040 109L817 504Q803 527 790 542T761 567T722 580T666 584H494V160H672V0H109V160ZM784 752Q843 752 891 770T974 824T1028 909T1047 1024Q1047 1195 911 1251Q876 1265 831 1271T733 1278H494V752H784Z"  />
<glyph unicode="S" horiz-adv-x="1184" d="M297 434V328Q297 288 321 257T384 203T476 170T586 158Q648 158 700 172T791 215T850 284T872 379Q872 442 843 486T765 562T654 620T524 672Q453 699 384 730T261 807T173 919T139 1081Q139 1183 177 1257T279 1378T426 1447T602 1470Q683 1470 762 1455T902 1410T1002 1335T1040 1231V1061H850V1161Q850 1192 828 1216T771 1257T691 1281T602 1290Q549 1290 503 1278T423 1241T368 1179T348 1092Q348 1034 373 994T441 924T539 871T655 825Q735 795 811 762T946 681T1042 565T1079 395Q1079 291 1040 213T933 82T776 2T586 -25Q501 -25 416 -6T263 51T152 147T109 283V434H297Z"  />
<glyph unicode="T" horiz-adv-x="1360" d="M395 160H578V1278H238V1053H59V1446H1300V1053H1122V1278H782V160H965V0H395V160Z"  />
<glyph unicode="U" horiz-adv-x="1632" d="M246 1288H63V1446H633V1288H451V541Q451 469 464 410T506 305Q551 234 631 196T817 158Q920 158 1001 196T1128 309Q1154 354 1169 413T1184 543V1288H1001V1446H1569V1288H1389V539Q1389 435 1363 345T1288 186Q1251 134 1201 95T1090 29T960 -11T817 -25Q662 -25 539 30T342 186Q291 256 269 344T246 539V1288Z"  />
<glyph unicode="V" horiz-adv-x="1462" d="M166 1288H25V1446H541V1288H381L705 336Q711 316 715 297T723 260Q727 241 729 223H735Q737 241 741 260Q744 277 748 296T760 336L1083 1288H924V1446H1440V1288H1296L840 0H623L166 1288Z"  />
<glyph unicode="W" horiz-adv-x="2066" d="M33 1446H547V1288H375L600 340Q604 320 607 301T612 266Q615 248 616 231H623Q624 248 628 266Q630 282 634 301T643 340L946 1446H1120L1421 340Q1426 320 1430 301T1437 266L1442 231H1450Q1451 248 1453 266Q1456 299 1464 340L1690 1288H1518V1446H2034V1288H1894L1571 0H1337L1055 1026Q1049 1045 1046 1065T1040 1103Q1037 1122 1036 1141H1028Q1027 1122 1024 1103Q1022 1086 1019 1066T1010 1026L727 0H494L172 1288H33V1446Z"  />
<glyph unicode="X" horiz-adv-x="1370" d="M61 160H197L569 731L203 1288H70V1446H573V1288H420L659 909Q675 886 686 869Q691 859 696 852H700Q704 859 709 869Q714 877 720 887T735 909L967 1288H817V1446H1307V1288H1171L797 713L1165 160H1303V0H799V160H950L709 537Q692 560 682 578Q677 588 672 596H668Q666 596 658 579T635 537L401 160H553V0H61V160Z"  />
<glyph unicode="Y" horiz-adv-x="1331" d="M381 160H563V612L158 1288H20V1446H518V1288H367L635 834Q647 809 655 791Q659 780 664 772H668Q672 780 676 791Q680 800 685 811T698 834L967 1288H817V1446H1311V1288H1174L768 612V160H950V0H381V160Z"  />
<glyph unicode="Z" horiz-adv-x="1294" d="M111 135L856 1210Q867 1225 877 1238T896 1260Q906 1271 915 1280V1284Q902 1282 889 1281Q866 1278 834 1278H299V1053H121V1446H1163V1313L418 236Q407 220 396 208T377 186Q367 175 358 166V162Q371 163 384 165Q395 166 409 167T440 168H1006V401H1184V0H111V135Z"  />
<glyph unicode="[" horiz-adv-x="637" d="M199 1505H537V1356H373V-43H537V-195H199V1505Z"  />
<glyph unicode="\" horiz-adv-x="866" d="M86 1524H262L782 -86H608L86 1524Z"  />
<glyph unicode="]" horiz-adv-x="639" d="M266 -43V1356H100V1505H440V-195H100V-43H266Z"  />
<glyph unicode="^" horiz-adv-x="1255" d="M551 1446H680L1090 506H909L614 1227L322 506H141L551 1446Z"  />
<glyph unicode="_" horiz-adv-x="1141" d="M1120 0V-160H20V0H1120Z"  />
<glyph unicode="`" horiz-adv-x="1022" d="M285 1806H514L725 1546H539L285 1806Z"  />
<glyph unicode="a" horiz-adv-x="1137" d="M68 289Q68 370 101 427T186 523T305 584T439 619T567 634T672 637H737V676Q737 737 721 779T675 848T605 885T516 897Q454 897 401 882T306 847Q258 825 219 797L139 938Q185 972 245 999Q296 1022 368 1041T532 1061Q732 1061 834 961T936 662V199Q936 154 981 154H1085V0H879Q809 0 780 31T750 113V127Q750 142 751 154T754 176Q756 187 758 195H754Q725 133 677 85Q657 64 631 45T572 10T499 -15T412 -25Q347 -25 286 -6T176 52T98 150T68 289ZM268 305Q268 270 280 239T317 183T375 144T455 129Q521 129 573 159T663 238T719 346T739 465V508H688Q664 508 624 507T538 500T443 482T356 447T293 390T268 305Z"  />
<glyph unicode="b" horiz-adv-x="1247" d="M174 1292H0V1446H373V967Q373 948 372 933T370 906Q368 893 367 881H371Q400 931 447 971Q467 988 492 1004T550 1033T621 1053T705 1061Q810 1061 894 1022T1038 911T1129 739T1161 518Q1161 394 1126 294T1028 123T878 14T688 -25Q643 -25 605 -17T536 4T479 34T434 69Q388 110 360 164H356Q357 153 359 140Q360 129 361 114T362 82V0H174V1292ZM367 514Q367 445 385 379T440 262T532 179T662 147Q722 147 776 171T870 243T934 359T958 516Q958 600 937 668T877 785T784 860T666 887Q608 887 554 866T459 800T392 684T367 514Z"  />
<glyph unicode="c" horiz-adv-x="1133" d="M82 516Q82 635 124 735T241 907T415 1020T631 1061Q669 1061 714 1056T804 1040T891 1010T965 966T1016 905T1036 825V698H860V770Q860 800 838 822T783 859T711 881T637 889Q559 889 494 863T383 788T311 671T285 520Q285 432 314 363T392 245T508 172T649 147Q715 147 770 164T867 203T938 248T981 281L1057 135Q1039 119 1003 92T914 39T792 -6T641 -25Q529 -25 428 12T250 120T128 290T82 516Z"  />
<glyph unicode="d" horiz-adv-x="1288" d="M86 518Q86 642 120 742T217 913T366 1022T557 1061Q601 1061 638 1054T706 1034T761 1006T805 974Q849 935 877 887H881Q879 897 877 909Q874 930 874 965V1292H702V1446H1073V199Q1073 176 1085 165T1118 154H1223V0H1016Q947 0 917 31T887 113V127Q887 154 890 168Q891 176 893 182H889Q862 124 814 78Q794 58 767 40T706 7T631 -16T539 -25Q434 -25 351 14T208 126T118 298T86 518ZM289 518Q289 434 310 366T371 249T463 174T582 147Q639 147 693 168T789 235T856 349T881 516Q881 588 863 654T808 773T716 856T588 887Q526 887 472 863T377 791T313 675T289 518Z"  />
<glyph unicode="e" horiz-adv-x="1137" d="M84 518Q84 642 123 742T232 913T396 1022T602 1061Q713 1061 797 1023T937 919T1022 765T1051 575Q1051 565 1050 552T1047 528Q1045 514 1044 500H287Q291 414 322 348T401 238T513 170T645 147Q713 147 769 165T867 205Q915 231 954 264L1036 119Q989 79 927 47Q874 20 801 -2T633 -25Q511 -25 410 16T237 131T124 303T84 518ZM846 627Q844 695 824 747T769 833T691 885T598 903Q541 903 491 885T401 831T334 744T295 627H846Z"  />
<glyph unicode="f" horiz-adv-x="768" d="M98 154H260V883H88V1036H260V1087Q260 1170 279 1230T329 1331T400 1398T481 1437T562 1455T633 1460Q653 1460 670 1459T701 1457Q716 1455 727 1454V1290Q719 1291 708 1293Q698 1294 684 1295T653 1296Q629 1296 596 1291T532 1264T480 1203T459 1092V1036H709V883H459V154H649V0H98V154Z"  />
<glyph unicode="g" horiz-adv-x="1282" d="M248 -193Q286 -213 332 -228Q371 -241 422 -251T532 -262Q600 -262 659 -246T763 -195T834 -103T860 33V115Q860 141 863 159Q864 170 866 180H862Q816 103 740 58T551 12Q443 12 358 53T212 165T120 334T88 543Q88 654 118 749T207 913T350 1022T543 1061Q594 1061 644 1051T740 1021T821 968T879 891H883Q882 895 881 901Q880 906 880 913T879 932Q879 981 905 1008T997 1036H1219V883H1104Q1084 883 1072 873T1059 842V43Q1059 -85 1015 -175T897 -321T729 -404T537 -430Q443 -430 352 -406T182 -344L248 -193ZM590 184Q644 184 693 201T781 260T841 370T864 541Q864 642 841 709T778 816T685 872T571 889Q504 889 452 865T364 797T310 690T291 547Q291 466 311 400T370 285T464 211T590 184Z"  />
<glyph unicode="h" horiz-adv-x="1380" d="M66 154H229V1292H55V1446H426V909Q426 890 425 875T423 848Q421 835 420 823H424Q441 861 474 903T557 980T669 1038T811 1061Q995 1061 1081 962T1167 664V154H1329V0H969V618Q969 673 962 720T933 803T873 858T772 879Q696 879 633 849T523 765T452 640T426 485V154H590V0H66V154Z"  />
<glyph unicode="i" horiz-adv-x="688" d="M256 1446H465V1243H256V1446ZM98 154H260V883H88V1036H459V154H623V0H98V154Z"  />
<glyph unicode="j" horiz-adv-x="606" d="M229 1446H438V1243H229V1446ZM-33 -256Q-27 -257 -20 -257Q-14 -258 -6 -258T12 -258Q31 -258 55 -255T103 -244T151 -219T192 -177T222 -114T233 -25V883H59V1036H432V-31Q432 -118 412 -180T358 -286T282 -356T195 -397T109 -417T35 -422Q19 -422 7 -422T-14 -420Q-25 -419 -33 -418V-256Z"  />
<glyph unicode="k" horiz-adv-x="1202" d="M66 154H229V1292H55V1446H426V639H578L784 883H649V1036H1120V883H983L727 584V580Q728 580 734 577T750 564T774 539T803 496L979 195Q986 183 994 175T1012 163T1035 156T1069 154H1135V0H979Q944 0 919 3T876 17T842 47T809 96L604 446Q587 474 565 480T508 487H426V154H565V0H66V154Z"  />
<glyph unicode="l" horiz-adv-x="600" d="M174 1292H2V1446H373V307Q373 274 377 247T394 201T427 171T483 160Q495 160 505 160T523 161Q532 161 539 162L537 -2Q525 -3 511 -4Q499 -5 483 -5T449 -6Q393 -6 344 7T256 53T196 145T174 295V1292Z"  />
<glyph unicode="m" horiz-adv-x="2048" d="M98 154H260V840Q260 883 215 883H88V1036H322Q453 1036 453 922V868Q453 856 452 845T449 826Q447 816 446 809H451Q470 855 506 900T591 981T698 1039T819 1061Q944 1061 1020 1003T1122 817H1126Q1148 865 1184 909T1269 987T1375 1041T1497 1061Q1670 1061 1752 962T1835 664V154H1999V0H1636V621Q1636 675 1630 722T1604 805T1548 861T1454 881Q1381 881 1325 847T1229 756T1170 627T1149 477V154H1311V0H950V621Q950 672 945 719T920 802T866 859T770 881Q696 881 638 845T541 751T480 619T459 469V154H623V0H98V154Z"  />
<glyph unicode="n" horiz-adv-x="1411" d="M98 154H260V838Q260 883 215 883H88V1036H322Q390 1036 421 1008T453 922V868Q453 856 452 845T449 826Q447 816 446 809H451Q456 823 469 847T506 899T561 955T637 1007T735 1046T854 1061Q1032 1061 1115 962T1198 664V154H1362V0H999V618Q999 673 992 720T964 803T905 858T805 879Q727 879 663 846T554 758T484 631T459 481V154H623V0H98V154Z"  />
<glyph unicode="o" horiz-adv-x="1282" d="M82 520Q82 638 126 737T245 908T423 1020T641 1061Q757 1061 859 1021T1036 908T1156 737T1200 520Q1200 402 1156 302T1037 130T859 16T641 -25Q525 -25 423 16T246 129T126 302T82 520ZM285 520Q285 439 313 371T389 253T502 175T641 147Q714 147 779 175T892 252T969 370T997 520Q997 601 969 668T893 785T779 861T641 889Q567 889 502 862T389 785T313 669T285 520Z"  />
<glyph unicode="p" horiz-adv-x="1305" d="M231 -256V838Q231 883 186 883H59V1036H289Q358 1036 387 1008T416 934V926Q416 913 416 903T414 884Q413 874 412 866H416Q444 920 492 963Q512 981 538 999T599 1030T674 1052T764 1061Q868 1061 952 1022T1095 911T1187 739T1219 518Q1219 394 1184 294T1086 123T937 14T750 -25Q707 -25 671 -18T603 2T547 30T503 63Q457 102 428 152H424Q425 141 427 127Q428 115 429 98T430 61V-256H594V-410H70V-256H231ZM426 514Q426 445 444 379T500 262T592 179T719 147Q780 147 834 171T930 243T994 359T1018 516Q1018 600 997 668T936 785T843 860T723 887Q665 887 612 866T517 800T451 684T426 514Z"  />
<glyph unicode="q" horiz-adv-x="1247" d="M86 518Q86 642 120 742T217 913T366 1022T555 1061Q630 1061 687 1038T784 985T849 925T885 881H889Q888 889 887 900Q886 909 886 922T885 952V1036H1073V-256H1235V-410H713V-256H874V70Q874 111 877 135Q879 149 881 160H877Q848 107 801 67Q781 50 756 34T698 4T627 -17T543 -25Q438 -25 353 14T209 126T118 298T86 518ZM289 518Q289 434 310 366T371 249T463 174T582 147Q639 147 693 168T789 234T856 350T881 520Q881 589 863 655T808 774T716 857T586 889Q525 889 471 864T377 792T313 676T289 518Z"  />
<glyph unicode="r" horiz-adv-x="866" d="M102 154H258V838Q258 883 213 883H84V1036H317Q386 1036 418 1007T451 915V850Q451 834 450 822T448 799Q447 788 446 778H451Q469 835 499 884T572 970T666 1028T778 1049Q788 1049 797 1048T814 1046Q822 1045 829 1044V848Q822 849 813 851Q805 852 795 853T772 854Q689 854 630 816T532 717T475 580T457 428V154H610V0H102V154Z"  />
<glyph unicode="s" horiz-adv-x="985" d="M82 334H256V266Q256 233 277 209T332 169T408 145T494 137Q537 137 575 145T641 171T686 213T702 270Q702 309 682 336T627 385T545 423T444 459Q387 480 329 505T225 567T150 653T121 774Q121 851 155 905T245 994T368 1045T504 1061Q558 1061 621 1050T737 1014T826 949T862 852V727H688V795Q688 819 674 838T635 872T577 893T506 901Q469 901 436 894T378 870T337 831T322 776Q322 739 342 712T395 664T471 627T561 594Q621 574 682 550T792 490T872 404T903 281Q903 207 871 150T784 54T652 -5T487 -25Q416 -25 344 -10T214 37T119 115T82 223V334Z"  />
<glyph unicode="t" horiz-adv-x="737" d="M211 883H37V1036H215V1321H410V1036H657V883H410V397Q410 318 433 271T491 200T563 168T631 160Q642 160 650 160T665 161Q672 161 678 162V-4Q669 -5 658 -6Q648 -7 635 -7T606 -8Q573 -8 531 -4T445 15T359 56T284 125T231 230T211 379V883Z"  />
<glyph unicode="u" horiz-adv-x="1362" d="M215 883H41V1036H414V414Q414 360 421 313T449 231T508 176T608 156Q686 156 748 190T853 280T920 409T944 559V883H770V1036H1143V197Q1143 152 1188 152H1296V0H1081Q1013 0 982 29T950 115V160Q950 173 950 184T952 204Q953 214 954 221H950Q945 207 932 184T896 133T842 77T768 27T672 -10T555 -25Q388 -25 302 71T215 373V883Z"  />
<glyph unicode="v" horiz-adv-x="1190" d="M18 1036H483V883H350L569 279Q575 262 579 245T587 213Q591 196 592 182H598Q599 196 603 213Q606 227 610 244T621 279L842 883H709V1036H1171V883H1042L707 0H483L150 883H18V1036Z"  />
<glyph unicode="w" horiz-adv-x="1753" d="M20 1036H483V883H344L520 281Q525 264 528 247T533 216Q536 199 537 184H543Q543 199 546 216Q548 230 551 247T559 281L786 1034H967L1194 281Q1199 264 1201 247T1206 216Q1208 199 1210 184H1217Q1217 199 1220 216Q1222 230 1225 247T1233 281L1411 883H1270V1036H1733V883H1604L1337 0H1116L897 692Q892 709 889 727T883 759Q880 776 879 791H874Q872 776 869 759Q867 745 864 727T856 692L637 0H416L150 883H20V1036Z"  />
<glyph unicode="x" horiz-adv-x="1171" d="M76 154H231L479 535L250 883H82V1036H373L557 735Q564 724 570 712T581 690Q586 679 592 668H596Q601 678 607 689Q612 699 618 710T633 735L821 1036H1096V883H938L707 537L963 154H1102V0H838L629 336Q621 347 615 359T603 380Q597 391 592 401H588L578 381Q573 372 566 360T551 334L346 0H76V154Z"  />
<glyph unicode="y" horiz-adv-x="1208" d="M131 -215Q149 -229 172 -240Q192 -249 218 -256T279 -264Q345 -264 394 -224T469 -121L512 -18L150 883H18V1036H492V883H354L586 266Q591 249 594 233T600 204Q603 189 604 176H610Q612 189 616 204Q619 217 623 233T635 266L864 883H731V1036H1190V883H1061L651 -164Q625 -230 588 -280T503 -363T402 -413T287 -430Q236 -430 195 -420T125 -398Q91 -384 63 -365L131 -215Z"  />
<glyph unicode="z" horiz-adv-x="1079" d="M670 823Q681 837 691 848T710 867Q719 876 727 883V887Q714 886 700 885Q688 884 673 884T643 883H283V717H109V1036H967V905L399 213Q388 199 378 189T359 171Q349 162 342 156V152Q355 152 368 153Q379 153 393 153T424 154H807V319H981V0H98V131L670 823Z"  />
<glyph unicode="{" horiz-adv-x="690" d="M242 354Q242 393 235 423T215 477T187 516T155 544Q116 570 68 578V754Q116 762 155 788Q171 799 186 815T214 855T234 910T242 981V1153Q242 1234 259 1292T306 1389T371 1452T443 1488T514 1505T573 1509Q584 1509 593 1509T609 1508Q617 1507 623 1507V1356H594Q574 1356 544 1350T486 1322T437 1257T416 1141V930Q416 892 409 861T390 804T363 759T333 724Q296 689 250 670V666Q296 649 333 615Q348 600 363 581T390 536T409 478T416 406V170Q416 96 436 53T485 -11T544 -39T594 -45H623V-197Q617 -198 609 -199Q602 -200 593 -200T573 -201Q548 -201 514 -197T444 -181T371 -144T306 -80T260 18T242 158V354Z"  />
<glyph unicode="|" horiz-adv-x="563" d="M195 1622H369V-326H195V1622Z"  />
<glyph unicode="}" horiz-adv-x="690" d="M70 -45H98Q117 -45 147 -39T205 -12T254 53T274 170V406Q274 445 281 477T299 535T326 580T357 615Q393 649 440 666V670Q393 689 357 724Q341 739 326 758T300 803T281 860T274 930V1141Q274 1214 254 1257T206 1322T147 1350T98 1356H70V1507Q76 1507 83 1508Q89 1508 97 1508T117 1509Q141 1509 175 1505T247 1489T320 1453T384 1390T431 1292T449 1153V981Q449 941 456 910T476 856T503 816T536 788Q574 762 623 754V578Q574 570 536 544Q519 533 504 517T476 477T457 424T449 354V158Q449 76 431 18T385 -80T320 -144T247 -180T176 -197T117 -201Q106 -201 98 -201T83 -199Q76 -198 70 -197V-45Z"  />
<glyph unicode="~" horiz-adv-x="1247" d="M137 418Q137 507 157 572T213 680T303 743T422 764Q476 764 515 749T585 712T641 664T692 615T747 578T815 563Q855 563 881 581T923 627T945 689T952 756H1114Q1114 666 1094 601T1037 493T947 431T827 410Q773 410 734 424T665 461T609 509T558 557T503 593T434 608Q394 608 368 590T327 545T305 483T299 418H137Z"  />
<glyph unicode="&#xA0;" horiz-adv-x="532" />
<glyph unicode="&#xA1;" horiz-adv-x="492" d="M141 1036H348V836H141V1036ZM156 639H334L348 -410H143L156 639Z"  />
<glyph unicode="&#xA2;" horiz-adv-x="1135" d="M516 150Q415 163 335 213T200 339T114 514T84 723Q84 834 114 933T199 1108T335 1234T516 1298V1470H662V1298Q798 1278 896 1194T1047 981L866 911Q847 954 821 991T762 1055T687 1098T596 1114Q521 1114 464 1084T367 1002T308 878T287 723Q287 638 306 567T364 444T461 363T596 334Q645 334 686 349T761 392T821 456T866 537L1047 465Q1022 408 986 355T902 258T794 186T662 150V-27H516V150Z"  />
<glyph unicode="&#xA3;" horiz-adv-x="1257" d="M88 164H264V653H125V797H264V1075Q264 1160 297 1232T389 1358T530 1440T709 1470Q787 1470 849 1450T957 1406Q1010 1378 1051 1343L938 1204Q907 1228 871 1246Q840 1262 799 1275T711 1288Q654 1288 609 1271T533 1224T486 1154T469 1067V797H838V653H469V168H991V401H1169V0H88V164Z"  />
<glyph unicode="&#xA4;" horiz-adv-x="506" d="M253 222Q310 222 341 262T372 365Q372 395 364 421T341 467T304 498T253 509Q224 509 202 498T165 468T141 422T133 365Q133 334 141 308T164 263T202 233T253 222ZM19 168L88 239Q50 294 50 365Q50 436 88 489L19 560L64 603L131 534Q155 552 185 563T253 574Q289 574 320 563T375 534L442 603L487 560L418 489Q455 435 455 365Q455 330 445 298T417 240L487 168L442 125L374 194Q325 157 253 157Q181 157 132 194L64 125L19 168Z"  />
<glyph unicode="&#xA5;" horiz-adv-x="1298" d="M213 537H547V612L492 711H213V840H424L86 1446H317L559 995Q576 959 592 922T620 854Q634 819 647 786H651Q664 819 678 854Q690 884 706 921T739 995L983 1446H1214L874 840H1083V711H807L752 612V537H1083V408H752V0H547V408H213V537Z"  />
<glyph unicode="&#xA7;" horiz-adv-x="891" d="M135 1026Q129 1049 127 1073T125 1120Q125 1195 151 1259T226 1370T347 1443T510 1470Q577 1470 630 1454T721 1418Q765 1395 799 1366L705 1235Q681 1254 650 1270Q624 1283 588 1294T510 1305Q465 1305 425 1292T356 1254T310 1189T293 1098Q293 1079 295 1059T303 1016L442 227H281L135 1026ZM182 115Q207 94 239 77Q266 63 302 51T381 39Q426 39 466 52T535 93T581 160T598 254Q598 274 596 297T586 346L451 1116H612L756 317Q762 293 764 270T766 225Q766 149 740 85T664 -27T543 -100T381 -127Q314 -127 261 -111T170 -75Q126 -52 92 -23L182 115Z"  />
<glyph unicode="&#xA8;" horiz-adv-x="1022" d="M627 1806H803V1599H627V1806ZM217 1806H393V1599H217V1806Z"  />
<glyph unicode="&#xA9;" horiz-adv-x="1642" d="M92 723Q92 827 118 923T191 1102T304 1252T451 1368T625 1443T819 1470Q921 1470 1015 1444T1190 1369T1338 1253T1452 1102T1526 923T1552 723Q1552 567 1495 431T1339 193T1106 34T819 -25Q718 -25 625 1T452 76T305 193T191 344T118 523T92 723ZM242 723Q242 595 286 484T408 291T591 162T819 115Q943 115 1049 162T1234 291T1358 484T1403 723Q1403 851 1358 962T1235 1155T1050 1284T819 1331Q697 1331 592 1284T409 1155T287 962T242 723ZM430 721Q430 802 458 876T538 1006T666 1096T834 1130Q878 1130 915 1121T985 1098T1043 1066T1089 1029Q1137 984 1167 928L1042 860Q1021 896 991 924Q965 948 928 968T840 989Q779 989 732 967T653 908T603 823T586 721Q586 666 602 618T651 533T730 475T840 453Q891 453 928 473T992 517Q1022 545 1042 582L1167 514Q1137 457 1089 412Q1069 393 1043 375T985 343T916 320T834 311Q741 311 666 344T539 434T458 565T430 721Z"  />
<glyph unicode="&#xAA;" horiz-adv-x="868" d="M375 782Q333 782 293 795T222 833T171 895T152 981Q152 1036 173 1074T227 1137T303 1176T389 1196T471 1204T539 1206H559V1219Q559 1255 549 1279T522 1319T480 1341T428 1348Q394 1348 363 1339T309 1319Q282 1306 258 1290L199 1391Q227 1411 264 1428Q296 1442 341 1454T446 1466Q574 1466 640 1400T707 1208V797H567V891H563Q545 860 519 836Q496 816 461 799T375 782ZM406 903Q440 903 468 919T516 962T546 1020T557 1085V1102H535Q505 1102 465 1100T388 1086T327 1053T301 991Q301 956 328 930T406 903ZM152 659H713V543H152V659Z"  />
<glyph unicode="&#xAB;" horiz-adv-x="1149" d="M838 999H1036L700 578L1036 158H838L502 578L838 999ZM88 578L424 999H623L287 578L623 158H424L88 578Z"  />
<glyph unicode="&#xAC;" horiz-adv-x="1217" d="M100 856H1077V309H911V696H100V856Z"  />
<glyph unicode="&#xAD;" horiz-adv-x="975" d="M188 672H786V496H188V672Z"  />
<glyph unicode="&#xAE;" horiz-adv-x="1642" d="M92 723Q92 827 118 923T191 1102T304 1252T451 1368T625 1443T819 1470Q921 1470 1015 1444T1190 1369T1338 1253T1452 1102T1526 923T1552 723Q1552 567 1495 431T1339 193T1106 34T819 -25Q718 -25 625 1T452 76T305 193T191 344T118 523T92 723ZM242 723Q242 595 286 484T408 291T591 162T819 115Q943 115 1049 162T1234 291T1358 484T1403 723Q1403 851 1358 962T1235 1155T1050 1284T819 1331Q697 1331 592 1284T409 1155T287 962T242 723ZM569 1112H866Q921 1112 966 1096T1043 1048T1092 974T1110 877Q1110 832 1097 797T1064 736T1018 694T969 672V668L975 659Q978 654 983 646T995 625L1143 340H983L840 639H715V340H569V1112ZM838 745Q895 745 929 780T963 877Q963 937 929 969T838 1001H715V745H838Z"  />
<glyph unicode="&#xAF;" horiz-adv-x="1022" d="M250 1751H772V1606H250V1751Z"  />
<glyph unicode="&#xB0;" horiz-adv-x="801" d="M399 864Q334 864 278 887T180 952T114 1049T90 1167Q90 1229 114 1284T180 1380T278 1446T399 1470Q463 1470 520 1446T619 1381T686 1284T711 1167Q711 1104 687 1049T620 953T520 888T399 864ZM399 1016Q431 1016 459 1028T508 1060T541 1107T553 1167Q553 1198 541 1226T508 1275T459 1308T399 1321Q367 1321 340 1309T293 1275T262 1226T250 1167Q250 1135 261 1108T293 1060T340 1028T399 1016Z"  />
<glyph unicode="&#xB1;" horiz-adv-x="1255" d="M86 664H545V1167H713V664H1169V504H713V0H545V504H86V664ZM1137 -195V-354H119V-195H1137Z"  />
<glyph unicode="&#xB2;" horiz-adv-x="764" d="M68 948Q68 1009 87 1057T136 1145T206 1215T287 1274T367 1327T437 1380T487 1438T506 1507Q506 1535 495 1559T465 1602T418 1630T360 1640Q322 1640 290 1625T235 1591Q208 1569 186 1542L86 1634Q116 1675 158 1708Q194 1736 247 1759T373 1782Q438 1782 491 1763T583 1708T641 1625T662 1520Q662 1445 631 1391T552 1296T450 1222T346 1156T264 1084T227 993H549V1098H678V866H76Q74 881 72 896Q70 909 69 923T68 948Z"  />
<glyph unicode="&#xB3;" horiz-adv-x="766" d="M94 1761H668V1663L438 1397Q485 1390 529 1372T607 1323T663 1248T684 1143Q684 1084 661 1030T596 935T495 870T365 846Q287 846 231 866T137 913Q93 943 63 981L150 1085Q171 1056 202 1034Q228 1014 266 999T358 983Q391 983 421 994T476 1027T514 1076T528 1139Q528 1175 513 1202T472 1247T414 1275T348 1284H283L250 1362L444 1597Q452 1606 460 1614T475 1627Q482 1633 489 1638V1645Q481 1643 471 1641Q454 1638 428 1638H223V1530H94V1761Z"  />
<glyph unicode="&#xB4;" horiz-adv-x="1022" d="M508 1806H735L481 1546H295L508 1806Z"  />
<glyph unicode="&#xB5;" horiz-adv-x="1219" d="M145 1036H344V418Q344 364 351 317T379 235T437 180T537 160Q617 160 679 192T785 279T851 403T874 551V1036H1073V0H881V141Q881 155 881 168T883 191Q884 202 885 213H879Q848 146 795 94Q772 71 743 50T677 12T596 -15T498 -25Q446 -25 411 -15T353 7Q327 21 311 39H307Q310 9 314 -19Q317 -44 319 -71T322 -121V-410H145V1036Z"  />
<glyph unicode="&#xB6;" horiz-adv-x="1221" d="M557 494Q458 494 370 530T216 631T111 783T72 971Q72 1071 110 1158T214 1309T368 1409T555 1446H1112V1270H711V-102H557V494ZM838 1153H989V-102H838V1153Z"  />
<glyph unicode="&#xB7;" horiz-adv-x="573" d="M182 702H391V485H182V702Z"  />
<glyph unicode="&#xB8;" horiz-adv-x="1022" d="M446 51L551 31V14L518 -115Q552 -117 581 -129T633 -161T667 -208T680 -268Q680 -316 661 -349T609 -404T537 -434T453 -444Q430 -444 410 -442T374 -437Q356 -434 342 -430V-322Q354 -325 368 -328Q380 -330 396 -332T432 -334Q450 -334 468 -332T502 -322T527 -302T537 -268Q537 -250 527 -237T501 -215T462 -203T416 -199H381L446 51Z"  />
<glyph unicode="&#xB9;" horiz-adv-x="688" d="M76 993H287V1499Q287 1528 290 1545Q291 1555 293 1563H289Q285 1557 281 1551Q273 1540 256 1526L158 1430L63 1530L303 1761H440V993H649V866H76V993Z"  />
<glyph unicode="&#xBA;" horiz-adv-x="965" d="M481 786Q409 786 346 811T234 883T159 992T131 1130Q131 1203 158 1265T233 1372T344 1442T479 1468Q552 1468 616 1443T728 1372T803 1265T831 1130Q831 1055 804 992T729 883T617 812T481 786ZM481 920Q523 920 559 935T623 978T666 1044T682 1130Q682 1175 666 1213T623 1278T560 1321T481 1337Q439 1337 402 1322T338 1279T295 1213T279 1130Q279 1083 295 1045T338 979T402 936T481 920ZM164 659H803V543H164V659Z"  />
<glyph unicode="&#xBB;" horiz-adv-x="1147" d="M860 578L524 999H723L1059 578L723 158H524L860 578ZM449 578L113 999H311L647 578L311 158H113L449 578Z"  />
<glyph unicode="&#xBC;" horiz-adv-x="1960" d="M1608 226H1182V324L1594 897H1760V346H1887V226H1760V2H1608V226ZM1608 346V645Q1608 660 1609 676T1612 707Q1614 723 1616 738H1610Q1605 725 1598 711Q1592 699 1584 685T1567 658L1340 350V346H1608ZM1237 1446H1390L704 0H549L1237 1446ZM115 680H326V1186Q326 1215 329 1232Q330 1242 332 1250H328Q324 1244 320 1238Q312 1227 295 1213L197 1117L102 1217L342 1448H479V680H688V553H115V680Z"  />
<glyph unicode="&#xBD;" horiz-adv-x="1927" d="M1227 84Q1227 145 1246 193T1295 281T1365 351T1446 410T1526 463T1596 516T1646 574T1665 643Q1665 671 1654 695T1624 738T1577 766T1519 776Q1481 776 1449 761T1394 727Q1367 705 1345 678L1245 770Q1275 811 1317 844Q1353 872 1406 895T1532 918Q1597 918 1650 899T1742 844T1800 761T1821 656Q1821 581 1790 527T1711 432T1609 358T1505 292T1423 220T1386 129H1708V234H1837V2H1235Q1233 17 1231 32Q1229 45 1228 59T1227 84ZM1227 1446H1380L694 0H539L1227 1446ZM101 680H312V1186Q312 1215 315 1232Q316 1242 318 1250H314Q310 1244 306 1238Q298 1227 281 1213L183 1117L88 1217L328 1448H465V680H674V553H101V680Z"  />
<glyph unicode="&#xBE;" horiz-adv-x="1987" d="M1630 226H1204V324L1616 897H1782V346H1909V226H1782V2H1630V226ZM1630 346V645Q1630 660 1631 676T1634 707Q1636 723 1638 738H1632Q1627 725 1620 711Q1614 699 1606 685T1589 658L1362 350V346H1630ZM125 1448H699V1350L469 1084Q516 1077 560 1059T638 1010T694 935T715 830Q715 771 692 717T627 622T526 557T396 533Q318 533 262 553T168 600Q124 630 94 668L181 772Q202 743 233 721Q259 701 297 686T389 670Q422 670 452 681T507 714T545 763T559 826Q559 862 544 889T503 934T445 962T379 971H314L281 1049L475 1284Q483 1293 491 1301T506 1314Q513 1320 520 1325V1332Q512 1330 502 1328Q485 1325 459 1325H254V1217H125V1448ZM1258 1446H1411L725 0H570L1258 1446Z"  />
<glyph unicode="&#xBF;" horiz-adv-x="952" d="M455 1036H659V836H455V1036ZM98 -57Q98 6 113 56T154 148T212 222T279 286T346 347T404 409T445 479T461 563V639H653V551Q653 473 627 416T563 312T479 226T396 148T331 63T305 -41Q305 -84 323 -121T372 -186T447 -230T541 -246Q589 -246 631 -233T706 -202Q743 -183 774 -158L883 -299Q842 -336 788 -365Q742 -390 677 -410T526 -430Q439 -430 361 -404T225 -329T132 -212T98 -57Z"  />
<glyph unicode="&#xC0;" horiz-adv-x="1481" d="M25 160H164L625 1446H856L1317 160H1456V0H954V160H1108L995 481H483L371 160H526V0H25V160ZM944 645L768 1147Q760 1169 756 1189T748 1224Q744 1242 743 1257H737Q736 1242 732 1224Q729 1209 725 1189T713 1147L534 645H944ZM420 1806H649L860 1546H674L420 1806Z"  />
<glyph unicode="&#xC1;" horiz-adv-x="1477" d="M23 160H162L623 1446H854L1315 160H1454V0H952V160H1106L993 481H481L369 160H524V0H23V160ZM942 645L766 1147Q758 1169 754 1189T746 1224Q742 1242 741 1257H735Q734 1242 730 1224Q727 1209 723 1189T711 1147L532 645H942ZM825 1806H1052L798 1546H612L825 1806Z"  />
<glyph unicode="&#xC2;" horiz-adv-x="1477" d="M23 160H162L623 1446H854L1315 160H1454V0H952V160H1106L993 481H481L369 160H524V0H23V160ZM942 645L766 1147Q758 1169 754 1189T746 1224Q742 1242 741 1257H735Q734 1242 730 1224Q727 1209 723 1189T711 1147L532 645H942ZM628 1806H843L1024 1546H846L737 1710H733L626 1546H448L628 1806Z"  />
<glyph unicode="&#xC3;" horiz-adv-x="1477" d="M23 160H162L623 1446H854L1315 160H1454V0H952V160H1106L993 481H481L369 160H524V0H23V160ZM942 645L766 1147Q758 1169 754 1189T746 1224Q742 1242 741 1257H735Q734 1242 730 1224Q727 1209 723 1189T711 1147L532 645H942ZM389 1548Q389 1808 598 1808Q635 1808 662 1798T712 1773T751 1740T786 1707T820 1681T858 1671Q882 1671 898 1683T923 1714T936 1756T940 1802H1087Q1087 1674 1036 1608T878 1542Q841 1542 814 1552T764 1577T725 1610T690 1643T656 1669T618 1679Q594 1679 578 1667T553 1637T540 1595T536 1548H389Z"  />
<glyph unicode="&#xC4;" horiz-adv-x="1477" d="M23 160H162L623 1446H854L1315 160H1454V0H952V160H1106L993 481H481L369 160H524V0H23V160ZM942 645L766 1147Q758 1169 754 1189T746 1224Q742 1242 741 1257H735Q734 1242 730 1224Q727 1209 723 1189T711 1147L532 645H942ZM854 1806H1030V1599H854V1806ZM444 1806H620V1599H444V1806Z"  />
<glyph unicode="&#xC5;" horiz-adv-x="1477" d="M23 160H162L623 1446H854L1315 160H1454V0H952V160H1106L993 481H481L369 160H524V0H23V160ZM942 645L766 1147Q758 1169 754 1189T746 1224Q742 1242 741 1257H735Q734 1242 730 1224Q727 1209 723 1189T711 1147L532 645H942ZM737 1513Q700 1513 666 1524T606 1557T565 1608T549 1677Q549 1717 564 1748T606 1802T666 1835T737 1847Q774 1847 808 1836T870 1802T913 1749T930 1677Q930 1639 914 1609T870 1557T809 1525T737 1513ZM737 1604Q772 1604 792 1624T813 1677Q813 1714 793 1735T737 1757Q705 1757 684 1736T663 1677Q663 1645 683 1625T737 1604Z"  />
<glyph unicode="&#xC6;" horiz-adv-x="1927" d="M25 160H154L618 1288H461V1446H1788V1110H1618V1278H1133V813H1640V645H1133V168H1653V338H1823V0H752V160H928V647H559L360 160H516V0H25V160ZM928 807V1278H813L621 807H928Z"  />
<glyph unicode="&#xC7;" horiz-adv-x="1524" d="M760 -20Q614 -5 493 59T284 223T149 453T100 731Q100 837 126 933T199 1111T313 1259T462 1372T640 1444T840 1470Q883 1470 941 1465T1060 1446T1180 1411T1287 1357T1362 1283T1391 1184V1008H1200V1120Q1200 1152 1183 1177T1138 1221T1074 1254T998 1277T920 1290T848 1294Q732 1294 634 1254T464 1140T352 964T311 739Q311 611 352 504T467 319T641 198T860 154Q886 154 922 157T999 168T1079 188T1150 220T1201 265T1221 324V436H1411V260Q1411 209 1385 169T1316 97T1218 43T1102 7T983 -15T872 -25L852 -115Q885 -117 914 -129T966 -161T1001 -208T1014 -268Q1014 -316 995 -349T943 -404T869 -434T786 -444Q762 -444 742 -442T706 -437Q688 -434 674 -430V-322Q686 -325 700 -328Q712 -330 729 -332T766 -334Q784 -334 802 -332T834 -322T858 -302T868 -268Q868 -250 859 -237T833 -215T796 -203T750 -199H713L760 -20Z"  />
<glyph unicode="&#xC8;" horiz-adv-x="1294" d="M109 160H289V1288H109V1446H1155V1110H977V1278H494V813H1006V645H494V168H1012V342H1190V0H109V160ZM348 1806H577L788 1546H602L348 1806Z"  />
<glyph unicode="&#xC9;" horiz-adv-x="1294" d="M758 1806H985L731 1546H545L758 1806ZM109 160H289V1288H109V1446H1155V1110H977V1278H494V813H1006V645H494V168H1012V342H1190V0H109V160Z"  />
<glyph unicode="&#xCA;" horiz-adv-x="1294" d="M561 1806H776L957 1546H779L670 1710H666L559 1546H381L561 1806ZM109 160H289V1288H109V1446H1155V1110H977V1278H494V813H1006V645H494V168H1012V342H1190V0H109V160Z"  />
<glyph unicode="&#xCB;" horiz-adv-x="1294" d="M785 1806H961V1599H785V1806ZM375 1806H551V1599H375V1806ZM109 160H289V1288H109V1446H1155V1110H977V1278H494V813H1006V645H494V168H1012V342H1190V0H109V160Z"  />
<glyph unicode="&#xCC;" horiz-adv-x="782" d="M109 160H289V1288H109V1446H676V1288H494V160H676V0H109V160ZM76 1806H305L516 1546H330L76 1806Z"  />
<glyph unicode="&#xCD;" horiz-adv-x="782" d="M109 160H289V1288H109V1446H676V1288H494V160H676V0H109V160ZM483 1806H710L456 1546H270L483 1806Z"  />
<glyph unicode="&#xCE;" horiz-adv-x="782" d="M109 160H289V1288H109V1446H676V1288H494V160H676V0H109V160ZM286 1806H501L682 1546H504L395 1710H391L284 1546H106L286 1806Z"  />
<glyph unicode="&#xCF;" horiz-adv-x="782" d="M109 160H289V1288H109V1446H676V1288H494V160H676V0H109V160ZM510 1806H686V1599H510V1806ZM100 1806H276V1599H100V1806Z"  />
<glyph unicode="&#xD0;" horiz-adv-x="1612" d="M109 160H289V639H135V807H289V1288H109V1446H772Q938 1446 1073 1398T1304 1257T1452 1031T1505 725Q1505 553 1453 418T1304 190T1073 49T772 0H109V160ZM758 168Q878 168 976 204T1145 310T1253 485T1292 725Q1292 859 1254 962T1145 1136T976 1242T758 1278H494V807H811V639H494V168H758Z"  />
<glyph unicode="&#xD1;" horiz-adv-x="1716" d="M109 160H289V1288H109V1446H492L1202 410Q1211 394 1220 376T1236 342Q1244 324 1251 305H1257Q1254 326 1252 347Q1250 365 1249 385T1247 422V1288H1063V1446H1634V1288H1452V0H1251L541 1036Q530 1051 522 1069T506 1104Q498 1122 492 1141H485Q487 1120 490 1099Q492 1081 493 1061T494 1024V160H680V0H109V160ZM520 1548Q520 1808 729 1808Q766 1808 793 1798T843 1773T882 1740T917 1707T951 1681T989 1671Q1013 1671 1029 1683T1054 1714T1067 1756T1071 1802H1218Q1218 1674 1167 1608T1009 1542Q972 1542 945 1552T895 1577T856 1610T821 1643T787 1669T749 1679Q725 1679 709 1667T684 1637T671 1595T667 1548H520Z"  />
<glyph unicode="&#xD2;" horiz-adv-x="1683" d="M98 733Q98 889 155 1023T312 1257T548 1413T842 1470Q999 1470 1134 1414T1370 1258T1527 1024T1585 733Q1585 626 1559 529T1486 347T1371 195T1221 77T1042 2T842 -25Q737 -25 641 1T463 77T313 194T198 347T124 528T98 733ZM309 733Q309 611 351 506T465 324T634 202T842 158Q952 158 1048 202T1217 323T1330 506T1372 733Q1372 851 1331 953T1217 1130T1049 1247T842 1290Q731 1290 634 1248T465 1130T351 953T309 733ZM523 1806H752L963 1546H777L523 1806Z"  />
<glyph unicode="&#xD3;" horiz-adv-x="1683" d="M930 1806H1157L903 1546H717L930 1806ZM98 733Q98 889 155 1023T312 1257T548 1413T842 1470Q999 1470 1134 1414T1370 1258T1527 1024T1585 733Q1585 626 1559 529T1486 347T1371 195T1221 77T1042 2T842 -25Q737 -25 641 1T463 77T313 194T198 347T124 528T98 733ZM309 733Q309 611 351 506T465 324T634 202T842 158Q952 158 1048 202T1217 323T1330 506T1372 733Q1372 851 1331 953T1217 1130T1049 1247T842 1290Q731 1290 634 1248T465 1130T351 953T309 733Z"  />
<glyph unicode="&#xD4;" horiz-adv-x="1683" d="M733 1806H948L1129 1546H951L842 1710H838L731 1546H553L733 1806ZM98 733Q98 889 155 1023T312 1257T548 1413T842 1470Q999 1470 1134 1414T1370 1258T1527 1024T1585 733Q1585 626 1559 529T1486 347T1371 195T1221 77T1042 2T842 -25Q737 -25 641 1T463 77T313 194T198 347T124 528T98 733ZM309 733Q309 611 351 506T465 324T634 202T842 158Q952 158 1048 202T1217 323T1330 506T1372 733Q1372 851 1331 953T1217 1130T1049 1247T842 1290Q731 1290 634 1248T465 1130T351 953T309 733Z"  />
<glyph unicode="&#xD5;" horiz-adv-x="1683" d="M98 733Q98 889 155 1023T312 1257T548 1413T842 1470Q999 1470 1134 1414T1370 1258T1527 1024T1585 733Q1585 626 1559 529T1486 347T1371 195T1221 77T1042 2T842 -25Q737 -25 641 1T463 77T313 194T198 347T124 528T98 733ZM309 733Q309 611 351 506T465 324T634 202T842 158Q952 158 1048 202T1217 323T1330 506T1372 733Q1372 851 1331 953T1217 1130T1049 1247T842 1290Q731 1290 634 1248T465 1130T351 953T309 733ZM494 1548Q494 1808 703 1808Q740 1808 767 1798T817 1773T856 1740T891 1707T925 1681T963 1671Q987 1671 1003 1683T1028 1714T1041 1756T1045 1802H1192Q1192 1674 1141 1608T983 1542Q946 1542 919 1552T869 1577T830 1610T795 1643T761 1669T723 1679Q699 1679 683 1667T658 1637T645 1595T641 1548H494Z"  />
<glyph unicode="&#xD6;" horiz-adv-x="1683" d="M959 1806H1135V1599H959V1806ZM549 1806H725V1599H549V1806ZM98 733Q98 889 155 1023T312 1257T548 1413T842 1470Q999 1470 1134 1414T1370 1258T1527 1024T1585 733Q1585 626 1559 529T1486 347T1371 195T1221 77T1042 2T842 -25Q737 -25 641 1T463 77T313 194T198 347T124 528T98 733ZM309 733Q309 611 351 506T465 324T634 202T842 158Q952 158 1048 202T1217 323T1330 506T1372 733Q1372 851 1331 953T1217 1130T1049 1247T842 1290Q731 1290 634 1248T465 1130T351 953T309 733Z"  />
<glyph unicode="&#xD7;" horiz-adv-x="1255" d="M518 584L94 1055L207 1167L627 700L1047 1167L1159 1055L733 584L1159 113L1047 0L627 465L207 0L94 113L518 584Z"  />
<glyph unicode="&#xD8;" horiz-adv-x="1681" d="M350 158Q292 210 246 273T166 410T116 564T98 733Q98 889 155 1023T313 1257T548 1413T840 1470Q946 1470 1041 1444T1221 1368L1313 1499L1413 1430L1321 1300Q1443 1198 1513 1053T1583 733Q1583 626 1557 529T1483 347T1368 195T1218 77T1040 2T840 -25Q730 -25 633 3T449 86L350 -51L250 18L350 158ZM1106 1210Q1047 1245 981 1264T840 1284Q729 1284 632 1243T463 1127T349 952T307 733Q307 609 350 504T469 324L1106 1210ZM561 244Q621 203 691 183T840 162Q951 162 1048 205T1218 325T1332 506T1374 733Q1374 855 1329 959T1204 1137L561 244Z"  />
<glyph unicode="&#xD9;" horiz-adv-x="1632" d="M246 1288H63V1446H633V1288H451V541Q451 469 464 410T506 305Q551 234 631 196T817 158Q920 158 1001 196T1128 309Q1154 354 1169 413T1184 543V1288H1001V1446H1569V1288H1389V539Q1389 435 1363 345T1288 186Q1251 134 1201 95T1090 29T960 -11T817 -25Q662 -25 539 30T342 186Q291 256 269 344T246 539V1288ZM498 1806H727L938 1546H752L498 1806Z"  />
<glyph unicode="&#xDA;" horiz-adv-x="1632" d="M905 1806H1132L878 1546H692L905 1806ZM246 1288H63V1446H633V1288H451V541Q451 469 464 410T506 305Q551 234 631 196T817 158Q920 158 1001 196T1128 309Q1154 354 1169 413T1184 543V1288H1001V1446H1569V1288H1389V539Q1389 435 1363 345T1288 186Q1251 134 1201 95T1090 29T960 -11T817 -25Q662 -25 539 30T342 186Q291 256 269 344T246 539V1288Z"  />
<glyph unicode="&#xDB;" horiz-adv-x="1632" d="M708 1806H923L1104 1546H926L817 1710H813L706 1546H528L708 1806ZM246 1288H63V1446H633V1288H451V541Q451 469 464 410T506 305Q551 234 631 196T817 158Q920 158 1001 196T1128 309Q1154 354 1169 413T1184 543V1288H1001V1446H1569V1288H1389V539Q1389 435 1363 345T1288 186Q1251 134 1201 95T1090 29T960 -11T817 -25Q662 -25 539 30T342 186Q291 256 269 344T246 539V1288Z"  />
<glyph unicode="&#xDC;" horiz-adv-x="1632" d="M934 1806H1110V1599H934V1806ZM524 1806H700V1599H524V1806ZM246 1288H63V1446H633V1288H451V541Q451 469 464 410T506 305Q551 234 631 196T817 158Q920 158 1001 196T1128 309Q1154 354 1169 413T1184 543V1288H1001V1446H1569V1288H1389V539Q1389 435 1363 345T1288 186Q1251 134 1201 95T1090 29T960 -11T817 -25Q662 -25 539 30T342 186Q291 256 269 344T246 539V1288Z"  />
<glyph unicode="&#xDD;" horiz-adv-x="1331" d="M381 160H563V612L158 1288H20V1446H518V1288H367L635 834Q647 809 655 791Q659 780 664 772H668Q672 780 676 791Q680 800 685 811T698 834L967 1288H817V1446H1311V1288H1174L768 612V160H950V0H381V160ZM758 1806H985L731 1546H545L758 1806Z"  />
<glyph unicode="&#xDE;" horiz-adv-x="1331" d="M109 160H289V1288H109V1446H676V1288H492V1141H834Q933 1141 1014 1114T1152 1036T1240 912T1272 748Q1272 655 1241 580T1152 453T1013 372T831 344H492V160H676V0H109V160ZM791 504Q922 504 993 567T1065 748Q1065 863 994 922T793 981H492V504H791Z"  />
<glyph unicode="&#xDF;" horiz-adv-x="1274" d="M66 154H229V1085Q229 1179 267 1251T367 1372T508 1445T672 1470Q757 1470 828 1444T951 1374T1032 1269T1061 1141Q1061 1091 1046 1052T1007 981T958 922T908 869T870 817T854 760Q854 728 881 699T949 641T1037 578T1126 504T1194 413T1221 297Q1221 219 1192 161T1114 63T1002 5T870 -14Q798 -14 745 -5T655 15Q613 28 582 45V221Q616 203 658 189Q693 177 742 168T848 158Q882 158 913 166T968 192T1006 238T1020 305Q1020 346 993 380T925 446T837 509T748 577T680 656T653 754Q653 796 668 831T706 896T755 954T805 1010T843 1070T858 1139Q858 1169 846 1197T810 1248T749 1284T664 1298Q619 1298 577 1284T501 1242T447 1172T426 1071V0H66V154Z"  />
<glyph unicode="&#xE0;" horiz-adv-x="1137" d="M68 289Q68 370 101 427T186 523T305 584T439 619T567 634T672 637H737V676Q737 737 721 779T675 848T605 885T516 897Q454 897 401 882T306 847Q258 825 219 797L139 938Q185 972 245 999Q296 1022 368 1041T532 1061Q732 1061 834 961T936 662V199Q936 154 981 154H1085V0H879Q809 0 780 31T750 113V127Q750 142 751 154T754 176Q756 187 758 195H754Q725 133 677 85Q657 64 631 45T572 10T499 -15T412 -25Q347 -25 286 -6T176 52T98 150T68 289ZM268 305Q268 270 280 239T317 183T375 144T455 129Q521 129 573 159T663 238T719 346T739 465V508H688Q664 508 624 507T538 500T443 482T356 447T293 390T268 305ZM221 1448H450L661 1188H475L221 1448Z"  />
<glyph unicode="&#xE1;" horiz-adv-x="1137" d="M68 289Q68 370 101 427T186 523T305 584T439 619T567 634T672 637H737V676Q737 737 721 779T675 848T605 885T516 897Q454 897 401 882T306 847Q258 825 219 797L139 938Q185 972 245 999Q296 1022 368 1041T532 1061Q732 1061 834 961T936 662V199Q936 154 981 154H1085V0H879Q809 0 780 31T750 113V127Q750 142 751 154T754 176Q756 187 758 195H754Q725 133 677 85Q657 64 631 45T572 10T499 -15T412 -25Q347 -25 286 -6T176 52T98 150T68 289ZM268 305Q268 270 280 239T317 183T375 144T455 129Q521 129 573 159T663 238T719 346T739 465V508H688Q664 508 624 507T538 500T443 482T356 447T293 390T268 305ZM627 1448H854L600 1188H414L627 1448Z"  />
<glyph unicode="&#xE2;" horiz-adv-x="1137" d="M68 289Q68 370 101 427T186 523T305 584T439 619T567 634T672 637H737V676Q737 737 721 779T675 848T605 885T516 897Q454 897 401 882T306 847Q258 825 219 797L139 938Q185 972 245 999Q296 1022 368 1041T532 1061Q732 1061 834 961T936 662V199Q936 154 981 154H1085V0H879Q809 0 780 31T750 113V127Q750 142 751 154T754 176Q756 187 758 195H754Q725 133 677 85Q657 64 631 45T572 10T499 -15T412 -25Q347 -25 286 -6T176 52T98 150T68 289ZM268 305Q268 270 280 239T317 183T375 144T455 129Q521 129 573 159T663 238T719 346T739 465V508H688Q664 508 624 507T538 500T443 482T356 447T293 390T268 305ZM430 1448H645L826 1188H648L539 1352H535L428 1188H250L430 1448Z"  />
<glyph unicode="&#xE3;" horiz-adv-x="1137" d="M68 289Q68 370 101 427T186 523T305 584T439 619T567 634T672 637H737V676Q737 737 721 779T675 848T605 885T516 897Q454 897 401 882T306 847Q258 825 219 797L139 938Q185 972 245 999Q296 1022 368 1041T532 1061Q732 1061 834 961T936 662V199Q936 154 981 154H1085V0H879Q809 0 780 31T750 113V127Q750 142 751 154T754 176Q756 187 758 195H754Q725 133 677 85Q657 64 631 45T572 10T499 -15T412 -25Q347 -25 286 -6T176 52T98 150T68 289ZM268 305Q268 270 280 239T317 183T375 144T455 129Q521 129 573 159T663 238T719 346T739 465V508H688Q664 508 624 507T538 500T443 482T356 447T293 390T268 305ZM191 1190Q191 1450 400 1450Q437 1450 464 1440T514 1415T553 1382T588 1349T622 1323T660 1313Q684 1313 700 1325T725 1356T738 1398T742 1444H889Q889 1316 838 1250T680 1184Q643 1184 616 1194T566 1219T527 1252T492 1285T458 1311T420 1321Q396 1321 380 1309T355 1279T342 1237T338 1190H191Z"  />
<glyph unicode="&#xE4;" horiz-adv-x="1137" d="M68 289Q68 370 101 427T186 523T305 584T439 619T567 634T672 637H737V676Q737 737 721 779T675 848T605 885T516 897Q454 897 401 882T306 847Q258 825 219 797L139 938Q185 972 245 999Q296 1022 368 1041T532 1061Q732 1061 834 961T936 662V199Q936 154 981 154H1085V0H879Q809 0 780 31T750 113V127Q750 142 751 154T754 176Q756 187 758 195H754Q725 133 677 85Q657 64 631 45T572 10T499 -15T412 -25Q347 -25 286 -6T176 52T98 150T68 289ZM268 305Q268 270 280 239T317 183T375 144T455 129Q521 129 573 159T663 238T719 346T739 465V508H688Q664 508 624 507T538 500T443 482T356 447T293 390T268 305ZM656 1448H832V1241H656V1448ZM246 1448H422V1241H246V1448Z"  />
<glyph unicode="&#xE5;" horiz-adv-x="1137" d="M68 289Q68 370 101 427T186 523T305 584T439 619T567 634T672 637H737V676Q737 737 721 779T675 848T605 885T516 897Q454 897 401 882T306 847Q258 825 219 797L139 938Q185 972 245 999Q296 1022 368 1041T532 1061Q732 1061 834 961T936 662V199Q936 154 981 154H1085V0H879Q809 0 780 31T750 113V127Q750 142 751 154T754 176Q756 187 758 195H754Q725 133 677 85Q657 64 631 45T572 10T499 -15T412 -25Q347 -25 286 -6T176 52T98 150T68 289ZM268 305Q268 270 280 239T317 183T375 144T455 129Q521 129 573 159T663 238T719 346T739 465V508H688Q664 508 624 507T538 500T443 482T356 447T293 390T268 305ZM539 1155Q502 1155 468 1166T408 1199T367 1250T351 1319Q351 1359 366 1390T408 1444T468 1477T539 1489Q576 1489 610 1478T672 1444T715 1391T732 1319Q732 1281 716 1251T672 1199T611 1167T539 1155ZM539 1246Q574 1246 594 1266T615 1319Q615 1356 595 1377T539 1399Q507 1399 486 1378T465 1319Q465 1287 485 1267T539 1246Z"  />
<glyph unicode="&#xE6;" horiz-adv-x="1767" d="M70 289Q70 370 100 427T181 522T295 582T428 614T563 628T684 631H739V666Q739 732 722 776T675 847T603 885T512 897Q450 897 397 882T303 847Q256 825 217 797L137 938Q182 972 242 999Q293 1022 365 1041T528 1061Q600 1061 654 1048T749 1011T818 954T864 879H868Q931 970 1024 1015T1237 1061Q1344 1061 1426 1023T1565 920T1651 767T1681 578Q1681 567 1680 555T1678 530Q1676 516 1675 502H932Q936 413 964 346T1038 233T1146 164T1278 141Q1344 141 1399 159T1496 201Q1544 227 1583 262L1665 123Q1618 82 1557 49Q1505 21 1432 -2T1266 -25Q1108 -25 995 44T819 236H815Q810 222 798 198T765 144T714 85T641 31T546 -9T426 -25Q355 -25 291 -4T177 57T99 155T70 289ZM1481 631Q1479 698 1458 748T1402 833T1325 885T1233 903Q1176 903 1127 885T1040 833T977 748T940 631H1481ZM268 299Q268 266 280 236T317 182T378 145T461 131Q525 131 576 161T664 239T721 346T741 465V502H645Q586 502 520 496T397 468T305 406T268 299Z"  />
<glyph unicode="&#xE7;" horiz-adv-x="1133" d="M547 -16Q450 -3 366 40T218 151T119 312T82 516Q82 635 124 735T241 907T415 1020T631 1061Q669 1061 714 1056T804 1040T891 1010T965 966T1016 905T1036 825V698H860V770Q860 800 838 822T783 859T711 881T637 889Q559 889 494 863T383 788T311 671T285 520Q285 432 314 363T392 245T508 172T649 147Q715 147 770 164T867 203T938 248T981 281L1057 135Q1040 120 1005 94T919 43T801 -2T657 -25L637 -115Q670 -117 699 -129T751 -161T786 -208T799 -268Q799 -316 780 -349T728 -404T654 -434T571 -444Q548 -444 528 -442T492 -437Q474 -434 459 -430V-322Q471 -325 486 -328Q499 -330 515 -332T551 -334Q569 -334 587 -332T619 -322T643 -302T653 -268Q653 -250 644 -237T618 -215T581 -203T535 -199H498L547 -16Z"  />
<glyph unicode="&#xE8;" horiz-adv-x="1137" d="M84 518Q84 642 123 742T232 913T396 1022T602 1061Q713 1061 797 1023T937 919T1022 765T1051 575Q1051 565 1050 552T1047 528Q1045 514 1044 500H287Q291 414 322 348T401 238T513 170T645 147Q713 147 769 165T867 205Q915 231 954 264L1036 119Q989 79 927 47Q874 20 801 -2T633 -25Q511 -25 410 16T237 131T124 303T84 518ZM846 627Q844 695 824 747T769 833T691 885T598 903Q541 903 491 885T401 831T334 744T295 627H846ZM285 1448H514L725 1188H539L285 1448Z"  />
<glyph unicode="&#xE9;" horiz-adv-x="1137" d="M692 1448H919L665 1188H479L692 1448ZM84 518Q84 642 123 742T232 913T396 1022T602 1061Q713 1061 797 1023T937 919T1022 765T1051 575Q1051 565 1050 552T1047 528Q1045 514 1044 500H287Q291 414 322 348T401 238T513 170T645 147Q713 147 769 165T867 205Q915 231 954 264L1036 119Q989 79 927 47Q874 20 801 -2T633 -25Q511 -25 410 16T237 131T124 303T84 518ZM846 627Q844 695 824 747T769 833T691 885T598 903Q541 903 491 885T401 831T334 744T295 627H846Z"  />
<glyph unicode="&#xEA;" horiz-adv-x="1137" d="M495 1448H710L891 1188H713L604 1352H600L493 1188H315L495 1448ZM84 518Q84 642 123 742T232 913T396 1022T602 1061Q713 1061 797 1023T937 919T1022 765T1051 575Q1051 565 1050 552T1047 528Q1045 514 1044 500H287Q291 414 322 348T401 238T513 170T645 147Q713 147 769 165T867 205Q915 231 954 264L1036 119Q989 79 927 47Q874 20 801 -2T633 -25Q511 -25 410 16T237 131T124 303T84 518ZM846 627Q844 695 824 747T769 833T691 885T598 903Q541 903 491 885T401 831T334 744T295 627H846Z"  />
<glyph unicode="&#xEB;" horiz-adv-x="1137" d="M721 1448H897V1241H721V1448ZM311 1448H487V1241H311V1448ZM84 518Q84 642 123 742T232 913T396 1022T602 1061Q713 1061 797 1023T937 919T1022 765T1051 575Q1051 565 1050 552T1047 528Q1045 514 1044 500H287Q291 414 322 348T401 238T513 170T645 147Q713 147 769 165T867 205Q915 231 954 264L1036 119Q989 79 927 47Q874 20 801 -2T633 -25Q511 -25 410 16T237 131T124 303T84 518ZM846 627Q844 695 824 747T769 833T691 885T598 903Q541 903 491 885T401 831T334 744T295 627H846Z"  />
<glyph unicode="&#xEC;" horiz-adv-x="662" d="M96 154H248V883H92V1036H446V154H596V0H96V154ZM29 1448H258L469 1188H283L29 1448Z"  />
<glyph unicode="&#xED;" horiz-adv-x="662" d="M436 1448H663L409 1188H223L436 1448ZM96 154H248V883H92V1036H446V154H596V0H96V154Z"  />
<glyph unicode="&#xEE;" horiz-adv-x="662" d="M239 1448H454L635 1188H457L348 1352H344L237 1188H59L239 1448ZM96 154H248V883H92V1036H446V154H596V0H96V154Z"  />
<glyph unicode="&#xEF;" horiz-adv-x="662" d="M96 154H248V883H92V1036H446V154H596V0H96V154ZM426 1446H602V1239H426V1446ZM72 1446H248V1239H72V1446Z"  />
<glyph unicode="&#xF0;" horiz-adv-x="1208" d="M88 481Q88 572 119 657T211 808T362 914T571 954Q634 954 680 941T759 911Q796 892 823 868H827Q795 955 736 1025T600 1147L236 987L215 1094L479 1212Q417 1243 345 1269T205 1311L260 1473Q368 1448 481 1406T694 1303L967 1425L987 1317L793 1229Q858 1175 913 1106T1007 954T1069 773T1092 563Q1092 494 1080 424T1041 288T973 166T874 66T741 0T573 -25Q456 -25 366 18T214 132T120 294T88 481ZM289 477Q289 414 307 355T362 249T452 175T578 147Q662 147 721 182T818 271T873 394T891 528Q891 586 871 635T813 719T722 775T602 795Q522 795 463 768T366 696T308 594T289 477Z"  />
<glyph unicode="&#xF1;" horiz-adv-x="1411" d="M98 154H260V838Q260 883 215 883H88V1036H322Q390 1036 421 1008T453 922V868Q453 856 452 845T449 826Q447 816 446 809H451Q456 823 469 847T506 899T561 955T637 1007T735 1046T854 1061Q1032 1061 1115 962T1198 664V154H1362V0H999V618Q999 673 992 720T964 803T905 858T805 879Q727 879 663 846T554 758T484 631T459 481V154H623V0H98V154ZM398 1190Q398 1450 607 1450Q644 1450 671 1440T721 1415T760 1382T795 1349T829 1323T867 1313Q891 1313 907 1325T932 1356T945 1398T949 1444H1096Q1096 1316 1045 1250T887 1184Q850 1184 823 1194T773 1219T734 1252T699 1285T665 1311T627 1321Q603 1321 587 1309T562 1279T549 1237T545 1190H398Z"  />
<glyph unicode="&#xF2;" horiz-adv-x="1282" d="M82 520Q82 638 126 737T245 908T423 1020T641 1061Q757 1061 859 1021T1036 908T1156 737T1200 520Q1200 402 1156 302T1037 130T859 16T641 -25Q525 -25 423 16T246 129T126 302T82 520ZM285 520Q285 439 313 371T389 253T502 175T641 147Q714 147 779 175T892 252T969 370T997 520Q997 601 969 668T893 785T779 861T641 889Q567 889 502 862T389 785T313 669T285 520ZM322 1448H551L762 1188H576L322 1448Z"  />
<glyph unicode="&#xF3;" horiz-adv-x="1282" d="M731 1448H958L704 1188H518L731 1448ZM82 520Q82 638 126 737T245 908T423 1020T641 1061Q757 1061 859 1021T1036 908T1156 737T1200 520Q1200 402 1156 302T1037 130T859 16T641 -25Q525 -25 423 16T246 129T126 302T82 520ZM285 520Q285 439 313 371T389 253T502 175T641 147Q714 147 779 175T892 252T969 370T997 520Q997 601 969 668T893 785T779 861T641 889Q567 889 502 862T389 785T313 669T285 520Z"  />
<glyph unicode="&#xF4;" horiz-adv-x="1282" d="M534 1448H749L930 1188H752L643 1352H639L532 1188H354L534 1448ZM82 520Q82 638 126 737T245 908T423 1020T641 1061Q757 1061 859 1021T1036 908T1156 737T1200 520Q1200 402 1156 302T1037 130T859 16T641 -25Q525 -25 423 16T246 129T126 302T82 520ZM285 520Q285 439 313 371T389 253T502 175T641 147Q714 147 779 175T892 252T969 370T997 520Q997 601 969 668T893 785T779 861T641 889Q567 889 502 862T389 785T313 669T285 520Z"  />
<glyph unicode="&#xF5;" horiz-adv-x="1282" d="M82 520Q82 638 126 737T245 908T423 1020T641 1061Q757 1061 859 1021T1036 908T1156 737T1200 520Q1200 402 1156 302T1037 130T859 16T641 -25Q525 -25 423 16T246 129T126 302T82 520ZM285 520Q285 439 313 371T389 253T502 175T641 147Q714 147 779 175T892 252T969 370T997 520Q997 601 969 668T893 785T779 861T641 889Q567 889 502 862T389 785T313 669T285 520ZM293 1190Q293 1450 502 1450Q539 1450 566 1440T616 1415T655 1382T690 1349T724 1323T762 1313Q786 1313 802 1325T827 1356T840 1398T844 1444H991Q991 1316 940 1250T782 1184Q745 1184 718 1194T668 1219T629 1252T594 1285T560 1311T522 1321Q498 1321 482 1309T457 1279T444 1237T440 1190H293Z"  />
<glyph unicode="&#xF6;" horiz-adv-x="1282" d="M758 1448H934V1241H758V1448ZM348 1448H524V1241H348V1448ZM82 520Q82 638 126 737T245 908T423 1020T641 1061Q757 1061 859 1021T1036 908T1156 737T1200 520Q1200 402 1156 302T1037 130T859 16T641 -25Q525 -25 423 16T246 129T126 302T82 520ZM285 520Q285 439 313 371T389 253T502 175T641 147Q714 147 779 175T892 252T969 370T997 520Q997 601 969 668T893 785T779 861T641 889Q567 889 502 862T389 785T313 669T285 520Z"  />
<glyph unicode="&#xF7;" horiz-adv-x="1255" d="M530 1077H723V891H530V1077ZM111 664H1145V504H111V664ZM530 276H723V90H530V276Z"  />
<glyph unicode="&#xF8;" horiz-adv-x="1282" d="M283 98Q192 171 138 280T84 520Q84 638 127 737T246 908T423 1020T641 1061Q716 1061 788 1042T922 989L1004 1102L1092 1040L1012 930Q1054 894 1088 849T1148 752T1186 641T1200 520Q1200 402 1156 302T1037 130T859 16T641 -25Q570 -25 502 -8T375 41L295 -74L207 -10L283 98ZM817 842Q779 862 734 875T641 889Q568 889 503 862T390 785T313 669T285 520Q285 440 316 372T395 254L817 842ZM481 188Q516 170 557 159T641 147Q715 147 780 175T893 252T969 370T997 520Q997 594 970 659T899 772L481 188Z"  />
<glyph unicode="&#xF9;" horiz-adv-x="1362" d="M215 883H41V1036H414V414Q414 360 421 313T449 231T508 176T608 156Q686 156 748 190T853 280T920 409T944 559V883H770V1036H1143V197Q1143 152 1188 152H1296V0H1081Q1013 0 982 29T950 115V160Q950 173 950 184T952 204Q953 214 954 221H950Q945 207 932 184T896 133T842 77T768 27T672 -10T555 -25Q388 -25 302 71T215 373V883ZM334 1448H563L774 1188H588L334 1448Z"  />
<glyph unicode="&#xFA;" horiz-adv-x="1362" d="M744 1448H971L717 1188H531L744 1448ZM215 883H41V1036H414V414Q414 360 421 313T449 231T508 176T608 156Q686 156 748 190T853 280T920 409T944 559V883H770V1036H1143V197Q1143 152 1188 152H1296V0H1081Q1013 0 982 29T950 115V160Q950 173 950 184T952 204Q953 214 954 221H950Q945 207 932 184T896 133T842 77T768 27T672 -10T555 -25Q388 -25 302 71T215 373V883Z"  />
<glyph unicode="&#xFB;" horiz-adv-x="1362" d="M544 1448H759L940 1188H762L653 1352H649L542 1188H364L544 1448ZM215 883H41V1036H414V414Q414 360 421 313T449 231T508 176T608 156Q686 156 748 190T853 280T920 409T944 559V883H770V1036H1143V197Q1143 152 1188 152H1296V0H1081Q1013 0 982 29T950 115V160Q950 173 950 184T952 204Q953 214 954 221H950Q945 207 932 184T896 133T842 77T768 27T672 -10T555 -25Q388 -25 302 71T215 373V883Z"  />
<glyph unicode="&#xFC;" horiz-adv-x="1362" d="M770 1448H946V1241H770V1448ZM360 1448H536V1241H360V1448ZM215 883H41V1036H414V414Q414 360 421 313T449 231T508 176T608 156Q686 156 748 190T853 280T920 409T944 559V883H770V1036H1143V197Q1143 152 1188 152H1296V0H1081Q1013 0 982 29T950 115V160Q950 173 950 184T952 204Q953 214 954 221H950Q945 207 932 184T896 133T842 77T768 27T672 -10T555 -25Q388 -25 302 71T215 373V883Z"  />
<glyph unicode="&#xFD;" horiz-adv-x="1208" d="M131 -215Q149 -229 172 -240Q192 -249 218 -256T279 -264Q345 -264 394 -224T469 -121L512 -18L150 883H18V1036H492V883H354L586 266Q591 249 594 233T600 204Q603 189 604 176H610Q612 189 616 204Q619 217 623 233T635 266L864 883H731V1036H1190V883H1061L651 -164Q625 -230 588 -280T503 -363T402 -413T287 -430Q236 -430 195 -420T125 -398Q91 -384 63 -365L131 -215ZM705 1448H932L678 1188H492L705 1448Z"  />
<glyph unicode="&#xFE;" horiz-adv-x="1245" d="M6 1446H373V971Q373 951 373 936T371 909Q370 896 369 885H373Q399 934 444 973Q463 989 488 1005T544 1033T614 1053T700 1061Q805 1061 890 1021T1035 908T1127 736T1159 518Q1159 398 1125 299T1030 127T883 15T694 -25Q604 -25 543 2T444 62Q400 101 373 150H369Q370 139 371 125Q372 113 372 96T373 59V-256H535V-410H10V-256H174V1292H6V1446ZM367 516Q367 436 387 369T446 252T539 175T664 147Q727 147 780 173T873 249T935 366T958 518Q958 600 937 668T878 786T787 862T668 889Q608 889 554 869T458 803T392 687T367 516Z"  />
<glyph unicode="&#xFF;" horiz-adv-x="1208" d="M131 -215Q149 -229 172 -240Q192 -249 218 -256T279 -264Q345 -264 394 -224T469 -121L512 -18L150 883H18V1036H492V883H354L586 266Q591 249 594 233T600 204Q603 189 604 176H610Q612 189 616 204Q619 217 623 233T635 266L864 883H731V1036H1190V883H1061L651 -164Q625 -230 588 -280T503 -363T402 -413T287 -430Q236 -430 195 -420T125 -398Q91 -384 63 -365L131 -215ZM731 1448H907V1241H731V1448ZM321 1448H497V1241H321V1448Z"  />
<glyph unicode="&#x131;" horiz-adv-x="662" d="M96 154H248V883H92V1036H446V154H596V0H96V154Z"  />
<glyph unicode="&#x152;" horiz-adv-x="1995" d="M100 725Q100 881 157 1016T314 1250T552 1407T850 1464Q924 1464 985 1455T1100 1446H1855V1110H1686V1278H1200V811H1706V645H1200V168H1720V338H1890V0H1102Q1048 0 986 -9T850 -18Q743 -18 646 8T466 81T315 196T200 346T126 524T100 725ZM309 725Q309 604 348 500T459 319T630 198T850 154Q881 154 907 156T953 162Q976 166 995 170V1278Q976 1281 953 1285Q933 1287 907 1289T850 1292Q730 1292 631 1248T460 1128T349 948T309 725Z"  />
<glyph unicode="&#x153;" horiz-adv-x="2048" d="M82 516Q82 639 126 739T245 911T420 1022T633 1061Q711 1061 778 1044T901 994T1003 917T1083 815H1087Q1149 931 1256 996T1513 1061Q1623 1061 1707 1023T1847 919T1933 765T1962 575Q1962 565 1961 552T1959 527Q1957 513 1956 498H1200Q1206 411 1237 345T1317 234T1426 166T1556 143Q1623 143 1679 161T1777 202Q1825 228 1864 262L1946 123Q1899 82 1837 49Q1784 21 1711 -2T1544 -25Q1463 -25 1395 -7T1269 44T1168 123T1092 227H1087Q1053 170 1008 124T906 44T781 -7T635 -25Q521 -25 421 13T245 122T126 293T82 516ZM1759 627Q1757 693 1737 744T1683 831T1606 884T1511 903Q1454 903 1403 885T1312 831T1245 744T1206 627H1759ZM285 516Q285 432 313 364T389 247T502 173T639 147Q711 147 775 173T889 248T966 366T995 522Q995 606 966 673T888 789T775 863T639 889Q567 889 503 863T390 787T313 669T285 516Z"  />
<glyph unicode="&#x160;" horiz-adv-x="1184" d="M299 1806H477L584 1640H588L697 1806H875L694 1546H479L299 1806ZM297 434V328Q297 288 321 257T384 203T476 170T586 158Q648 158 700 172T791 215T850 284T872 379Q872 442 843 486T765 562T654 620T524 672Q453 699 384 730T261 807T173 919T139 1081Q139 1183 177 1257T279 1378T426 1447T602 1470Q683 1470 762 1455T902 1410T1002 1335T1040 1231V1061H850V1161Q850 1192 828 1216T771 1257T691 1281T602 1290Q549 1290 503 1278T423 1241T368 1179T348 1092Q348 1034 373 994T441 924T539 871T655 825Q735 795 811 762T946 681T1042 565T1079 395Q1079 291 1040 213T933 82T776 2T586 -25Q501 -25 416 -6T263 51T152 147T109 283V434H297Z"  />
<glyph unicode="&#x161;" horiz-adv-x="985" d="M215 1448H393L500 1282H504L613 1448H791L610 1188H395L215 1448ZM82 334H256V266Q256 233 277 209T332 169T408 145T494 137Q537 137 575 145T641 171T686 213T702 270Q702 309 682 336T627 385T545 423T444 459Q387 480 329 505T225 567T150 653T121 774Q121 851 155 905T245 994T368 1045T504 1061Q558 1061 621 1050T737 1014T826 949T862 852V727H688V795Q688 819 674 838T635 872T577 893T506 901Q469 901 436 894T378 870T337 831T322 776Q322 739 342 712T395 664T471 627T561 594Q621 574 682 550T792 490T872 404T903 281Q903 207 871 150T784 54T652 -5T487 -25Q416 -25 344 -10T214 37T119 115T82 223V334Z"  />
<glyph unicode="&#x178;" horiz-adv-x="1331" d="M381 160H563V612L158 1288H20V1446H518V1288H367L635 834Q647 809 655 791Q659 780 664 772H668Q672 780 676 791Q680 800 685 811T698 834L967 1288H817V1446H1311V1288H1174L768 612V160H950V0H381V160ZM785 1806H961V1599H785V1806ZM375 1806H551V1599H375V1806Z"  />
<glyph unicode="&#x17D;" horiz-adv-x="1294" d="M379 1806H557L664 1640H668L777 1806H955L774 1546H559L379 1806ZM111 135L856 1210Q867 1225 877 1238T896 1260Q906 1271 915 1280V1284Q902 1282 889 1281Q866 1278 834 1278H299V1053H121V1446H1163V1313L418 236Q407 220 396 208T377 186Q367 175 358 166V162Q371 163 384 165Q395 166 409 167T440 168H1006V401H1184V0H111V135Z"  />
<glyph unicode="&#x17E;" horiz-adv-x="1079" d="M264 1448H442L549 1282H553L662 1448H840L659 1188H444L264 1448ZM670 823Q681 837 691 848T710 867Q719 876 727 883V887Q714 886 700 885Q688 884 673 884T643 883H283V717H109V1036H967V905L399 213Q388 199 378 189T359 171Q349 162 342 156V152Q355 152 368 153Q379 153 393 153T424 154H807V319H981V0H98V131L670 823Z"  />
<glyph unicode="&#x192;" horiz-adv-x="1038" d="M-37 -43Q-14 -46 10 -49Q30 -51 53 -53T98 -55Q126 -55 163 -48T236 -17T298 52T332 172L379 717H211V877H393L412 1085Q419 1170 444 1232T506 1337T587 1406T676 1446T763 1465T838 1470Q867 1470 897 1468T953 1463Q982 1459 1010 1456V1284Q981 1287 952 1291Q927 1293 899 1295T848 1298Q819 1298 781 1291T708 1260T646 1191T612 1071L592 877H831V717H578L530 156Q522 70 497 9T436 -95T357 -164T268 -204T181 -222T106 -227Q80 -227 55 -225T9 -221Q-15 -218 -37 -215V-43Z"  />
<glyph unicode="&#x2C6;" horiz-adv-x="1022" d="M403 1806H618L799 1546H621L512 1710H508L401 1546H223L403 1806Z"  />
<glyph unicode="&#x2C7;" horiz-adv-x="1022" d="M223 1806H401L508 1640H512L621 1806H799L618 1546H403L223 1806Z"  />
<glyph unicode="&#x2DA;" horiz-adv-x="1024" d="M512 1513Q475 1513 441 1524T381 1557T340 1608T324 1677Q324 1717 339 1748T381 1802T441 1835T512 1847Q549 1847 583 1836T645 1802T688 1749T705 1677Q705 1639 689 1609T645 1557T584 1525T512 1513ZM512 1604Q547 1604 567 1624T588 1677Q588 1714 568 1735T512 1757Q480 1757 459 1736T438 1677Q438 1645 458 1625T512 1604Z"  />
<glyph unicode="&#x2DC;" horiz-adv-x="1022" d="M162 1548Q162 1808 371 1808Q408 1808 435 1798T485 1773T524 1740T559 1707T593 1681T631 1671Q655 1671 671 1683T696 1714T709 1756T713 1802H860Q860 1674 809 1608T651 1542Q614 1542 587 1552T537 1577T498 1610T463 1643T429 1669T391 1679Q367 1679 351 1667T326 1637T313 1595T309 1548H162Z"  />
<glyph unicode="&#x3BC;" horiz-adv-x="1219" d="M145 1036H344V418Q344 364 351 317T379 235T437 180T537 160Q617 160 679 192T785 279T851 403T874 551V1036H1073V0H881V141Q881 155 881 168T883 191Q884 202 885 213H879Q848 146 795 94Q772 71 743 50T677 12T596 -15T498 -25Q446 -25 411 -15T353 7Q327 21 311 39H307Q310 9 314 -19Q317 -44 319 -71T322 -121V-410H145V1036Z"  />
<glyph unicode="&#x2013;" horiz-adv-x="1462" d="M193 664H1270V504H193V664Z"  />
<glyph unicode="&#x2014;" horiz-adv-x="1872" d="M193 664H1679V504H193V664Z"  />
<glyph unicode="&#x2018;" horiz-adv-x="469" d="M242 1468H389L289 1022H96L242 1468Z"  />
<glyph unicode="&#x2019;" horiz-adv-x="457" d="M203 1468H395L250 1022H102L203 1468Z"  />
<glyph unicode="&#x201A;" horiz-adv-x="504" d="M174 215H362L217 -231H74L174 215Z"  />
<glyph unicode="&#x201C;" horiz-adv-x="772" d="M242 1468H389L291 1022H96L242 1468ZM543 1468H690L592 1022H397L543 1468Z"  />
<glyph unicode="&#x201D;" horiz-adv-x="758" d="M504 1468H696L551 1022H403L504 1468ZM203 1468H395L250 1022H102L203 1468Z"  />
<glyph unicode="&#x201E;" horiz-adv-x="799" d="M471 215H657L512 -231H371L471 215ZM174 215H362L217 -231H74L174 215Z"  />
<glyph unicode="&#x2020;" horiz-adv-x="864" d="M334 879H86V1036H334V1446H524V1036H778V879H524V-102H334V879Z"  />
<glyph unicode="&#x2021;" horiz-adv-x="891" d="M98 510H346V879H98V1036H346V1446H539V1036H793V879H539V510H793V350H539V-102H346V350H98V510Z"  />
<glyph unicode="&#x2022;" horiz-adv-x="846" d="M422 279Q357 279 300 304T199 371T131 472T106 596Q106 662 131 720T199 820T299 888T422 913Q488 913 546 888T646 821T714 720T739 596Q739 530 714 472T647 372T546 304T422 279Z"  />
<glyph unicode="&#x2026;" horiz-adv-x="1581" d="M1219 215H1425V0H1219V215ZM686 215H895V0H686V215ZM156 215H362V0H156V215Z"  />
<glyph unicode="&#x2030;" horiz-adv-x="2261" d="M414 864Q349 864 293 887T194 952T128 1049T104 1167Q104 1229 128 1284T194 1380T292 1446T414 1470Q478 1470 535 1446T634 1381T700 1284T725 1167Q725 1104 701 1049T634 953T535 888T414 864ZM1241 1446H1434L328 0H137L1241 1446ZM414 1016Q446 1016 473 1027T521 1059T553 1107T565 1167Q565 1198 554 1226T522 1275T474 1308T414 1321Q382 1321 355 1309T308 1275T276 1226T264 1167Q264 1135 275 1107T307 1059T355 1028T414 1016ZM1573 279Q1573 341 1597 396T1663 492T1761 558T1882 582Q1946 582 2003 558T2102 493T2168 396T2193 279Q2193 216 2169 161T2102 64T2003 -1T1882 -25Q1817 -25 1761 -1T1663 64T1597 160T1573 279ZM846 279Q846 341 870 396T937 492T1035 558T1157 582Q1221 582 1278 558T1377 493T1443 396T1468 279Q1468 216 1444 161T1377 64T1278 -1T1157 -25Q1092 -25 1036 -1T937 64T871 160T846 279ZM1733 279Q1733 247 1744 219T1776 171T1823 139T1882 127Q1914 127 1942 138T1990 170T2022 219T2034 279Q2034 310 2023 338T1991 387T1942 420T1882 432Q1850 432 1823 420T1776 387T1745 338T1733 279ZM1006 279Q1006 247 1017 219T1049 171T1097 139T1157 127Q1188 127 1216 138T1264 170T1297 219T1309 279Q1309 310 1297 338T1265 387T1216 420T1157 432Q1125 432 1097 420T1049 387T1018 338T1006 279Z"  />
<glyph unicode="&#x2039;" horiz-adv-x="735" d="M88 578L424 999H623L287 578L623 158H424L88 578Z"  />
<glyph unicode="&#x203A;" horiz-adv-x="735" d="M449 578L113 999H311L647 578L311 158H113L449 578Z"  />
<glyph unicode="&#x2044;" horiz-adv-x="305" d="M420 1446H573L-113 0H-268L420 1446Z"  />
<glyph unicode="&#x2074;" horiz-adv-x="803" d="M469 1090H43V1188L455 1761H621V1210H748V1090H621V866H469V1090ZM469 1210V1509Q469 1524 470 1540T473 1571Q475 1587 477 1602H471Q466 1589 459 1575Q453 1563 445 1549T428 1522L201 1214V1210H469Z"  />
<glyph unicode="&#x20AC;" horiz-adv-x="1227" d="M90 637H203Q201 655 200 678T198 727T199 778T203 825H90V952H225Q256 1064 320 1159T475 1323T677 1431T915 1470Q957 1470 994 1467T1061 1458Q1094 1453 1122 1446L1075 1270Q1050 1276 1024 1280Q1001 1284 972 1287T911 1290Q825 1290 751 1266T616 1197T510 1090T440 952H1014L987 825H412Q405 779 406 732T412 637H954L928 512H446Q470 434 514 369T620 257T756 184T918 158Q957 158 991 162T1051 172Q1081 178 1106 186L1145 10Q1114 0 1078 -8Q1047 -15 1005 -20T915 -25Q784 -25 671 15T467 126T315 296T223 512H90V637Z"  />
<glyph unicode="&#x2122;" horiz-adv-x="1954" d="M973 1446H1116L1329 975Q1335 961 1340 946T1349 918Q1353 903 1356 889H1360Q1364 903 1368 918Q1372 931 1377 946T1389 975L1602 1446H1745L1815 545H1659L1618 1083Q1616 1107 1618 1126Q1619 1137 1620 1145H1616L1421 711H1296L1102 1145H1098Q1099 1137 1100 1126Q1102 1107 1100 1083L1057 545H901L973 1446ZM371 1309H57V1446H838V1309H524V545H371V1309Z"  />

</font>
</defs>
</svg>
