<?xml  version="1.0" encoding="UTF-8"?>
<!DOCTYPE svg PUBLIC "-//W3C//DTD SVG 1.0//EN" "http://www.w3.org/TR/2001/REC-SVG-20010904/DTD/svg10.dtd" >
<svg xmlns="http://www.w3.org/2000/svg" >
<metadata>
<version>1.0</version>
<id><![CDATA[Felt Tip Senior W01 Reg]]></id>
<vendor>Monotype Imaging Inc.</vendor>
<credits>
<name>Fonts.com WebFonts</name>
<URL>http://webfonts.fonts.com</URL>
<role>Home of the Web fonts</role>
</credits>
<license>
<URL>http://webfonts.fonts.com/Legal</URL>
</license>
<copyright><![CDATA[Copyright (c) 2000 Mark Simonson. All rights reserved. Felt Tip Senior is a trademark of Mark Simonson Studio. www.ms-studio.com]]></copyright>
<trademark></trademark>
<licensee>
<name></name>
</licensee>
</metadata>
<defs >
<font horiz-adv-x="442" id="dc032f2d-f18f-486a-96d0-47f72e448620">
<font-face font-family="" panose-1="2 0 0 0 0 0 0 0 0 0" ascent="615" descent="-385" units-per-em="1000" alphabetic="0">
</font-face>
<missing-glyph horiz-adv-x="0" />

<glyph unicode="&#xA;" />
<glyph unicode="&#xD;" horiz-adv-x="261" />
<glyph unicode=" " horiz-adv-x="261" />
<glyph unicode="!" horiz-adv-x="211" d="M154 530Q154 467 153 406T152 282Q152 273 151 262T146 241T135 224T116 217Q105 217 98 224T85 242T77 264T74 285Q74 292 75 296Q81 334 81 375T80 454Q80 476 79 497T77 541Q77 559 87 566T114 573Q138 573 146 564T154 530ZM146 66Q146 57 141 42T128 12T109 -14T89 -25Q77 -25 71 -16T62 6T59 32T58 53Q58 104 108 104Q130 104 138 97T146 66Z"  />
<glyph unicode="&quot;" horiz-adv-x="322" d="M271 421Q271 409 271 381T269 323T258 271T231 249Q216 249 208 262T199 288Q199 318 202 348T205 409Q205 422 205 437T199 465Q195 476 192 486T188 508Q188 534 217 534Q240 534 251 522T266 493T271 456T271 421ZM144 486Q144 478 142 455T136 407T130 359T124 330Q118 313 109 307T82 300Q74 300 67 306T55 322T48 341T45 358Q45 365 49 378T58 407T67 442T71 477Q71 485 70 492T68 507Q68 519 74 526T94 534Q112 534 128 520T144 486Z"  />
<glyph unicode="#" horiz-adv-x="783" d="M806 283Q806 275 799 268T782 254T762 244T745 240Q721 240 688 240T619 239T551 236T497 230Q477 226 458 223T428 200Q426 195 423 189T420 176Q420 170 424 167T435 162T449 160T460 160Q473 160 494 160T537 160T580 159T612 155Q620 153 629 145T638 127Q638 120 631 115T615 107T597 101T583 99Q541 96 501 96T418 97Q399 97 386 93T363 71Q358 62 350 48T331 19T309 -6T286 -16Q274 -16 264 -10T254 9Q254 18 259 26T270 43T281 60T286 79Q286 89 278 92T262 95Q240 95 230 90T215 77T209 60T205 43T193 30T165 24Q157 24 147 28T136 42Q136 50 141 56T147 70Q147 78 130 78T93 80T56 85T39 104Q39 122 51 131T80 144T118 149T156 154T186 165T198 188Q198 198 187 200T169 203Q143 203 119 193T69 183Q58 183 49 187T40 206Q40 221 49 230T71 244T99 251T125 257Q141 261 159 261T196 261T229 269T254 295Q258 304 268 325T290 369T315 409T339 426Q355 426 364 414T374 387Q374 377 368 365T355 341T341 315T335 290Q335 277 349 277Q369 277 383 292T406 330T423 380T438 429T454 467T476 483Q488 483 501 471T514 446Q514 441 507 424T491 387T475 347T468 317Q468 300 476 297T501 293Q567 293 632 299T763 305Q767 305 774 304T789 301T801 294T806 283ZM352 197Q352 210 343 213T323 216Q303 216 296 213T274 194Q271 191 269 188T266 180Q266 175 270 172T281 166T293 163T303 162Q320 162 336 169T352 197Z"  />
<glyph unicode="$" horiz-adv-x="711" d="M688 433Q688 418 673 404T636 378T593 361T558 354Q553 354 545 355T530 359T518 366T513 378Q513 386 521 391T540 402T560 413T569 427Q569 433 565 435T556 439T544 441T534 441Q516 441 508 433T491 409Q490 407 483 389T465 345T444 289T424 234T408 192T401 175Q401 167 411 165T426 162Q439 160 454 152T482 131T503 104T511 75Q511 71 509 65Q503 48 486 29T446 -9T402 -41T363 -62Q351 -67 334 -70T300 -80T270 -95T254 -119Q252 -127 248 -141T240 -171T232 -200T228 -220Q228 -231 214 -239T190 -248Q176 -248 161 -238T146 -211Q146 -203 150 -193T160 -173T169 -154T174 -135Q174 -127 170 -124T159 -117Q153 -115 143 -108T124 -94T106 -82T95 -76Q92 -76 92 -79T91 -85Q91 -96 92 -107T94 -130Q94 -144 89 -155T67 -167Q50 -167 40 -161T24 -145T16 -122T14 -94Q14 -76 19 -60T31 -29T45 1T58 33Q75 87 95 138T139 241Q146 257 148 274T152 310T155 345T163 380Q174 412 199 431T250 469Q267 480 278 498T299 534Q305 545 314 564T336 601T362 632T390 645Q402 645 411 640T420 621Q420 607 411 593T390 565T369 538T359 512Q359 501 368 499T386 496Q418 496 448 508T489 554Q493 565 497 588T507 635T523 676T549 694Q566 694 576 687T586 661Q586 647 579 624T564 579T548 541T541 523Q541 513 553 511T572 506Q584 504 604 499T642 484T674 462T688 433ZM429 420Q429 433 415 433Q365 433 319 415Q307 410 296 400T275 377T260 350T254 322Q254 308 259 297T272 276T289 256T307 237Q312 232 320 224T337 216Q345 216 350 227T359 245Q364 256 375 281T399 335T420 387T429 420ZM407 62Q407 73 393 80T368 87Q361 87 355 80T344 64T336 46T333 30Q333 21 342 21Q347 21 358 25T380 36T399 50T407 62ZM292 124Q292 139 284 150T265 170T241 187T222 207Q219 212 214 219T202 226Q195 226 191 214T184 197Q181 191 173 171T155 127T139 86T132 65Q132 50 144 44T164 29Q170 23 169 14T168 -3Q168 -19 178 -23T202 -28Q216 -28 231 -9T260 37T283 88T292 124Z"  />
<glyph unicode="%" horiz-adv-x="790" d="M749 88Q749 58 727 30T672 -19T605 -54T543 -67Q509 -67 498 -55T487 -11Q487 -1 497 16T524 54T561 95T602 133T639 160T666 171Q674 171 688 161T715 138T739 110T749 88ZM733 460Q733 432 706 394T639 314T551 228T464 147T396 80T369 38Q369 25 358 15T333 5Q325 5 318 9T304 20T295 35T291 50Q291 63 296 75T310 98T328 119T347 137Q356 146 380 168T436 219T502 279T564 338T611 386T630 412Q630 417 629 421T620 426Q618 426 603 420T566 403T516 381T464 359T417 340T386 329Q374 326 356 325T319 322T285 313T266 292Q259 271 246 251T213 214T172 189T127 179Q105 179 86 188T53 212T30 246T22 288Q22 303 34 321T63 355T99 382T133 393Q146 393 152 395T164 401T174 406T190 409Q217 409 243 400T297 391Q316 391 341 397T394 411T446 428T489 446Q505 453 523 463T559 482T596 497T632 504Q641 504 657 502T691 494T720 481T733 460ZM664 65Q664 69 662 72T654 76Q650 76 640 71T620 58T603 43T595 33Q595 30 599 30T605 29Q612 29 622 31T641 38T657 50T664 65ZM182 286Q182 289 182 293T176 298Q172 298 169 296T160 294Q155 294 152 297T145 303T137 310T127 313Q114 313 108 300T101 276Q101 262 113 255T137 248Q152 248 167 258T182 286Z"  />
<glyph unicode="&amp;" horiz-adv-x="433" d="M406 320Q406 295 391 285T359 271T326 261T311 241Q311 237 312 235T314 228Q314 213 301 201T267 179T224 161T180 146T147 130T133 114Q133 109 139 105T155 97T173 89T187 79Q196 68 209 61T233 47T253 33T262 15Q262 -2 252 -17T236 -48Q228 -66 224 -84T214 -121Q207 -153 201 -185T195 -250Q195 -261 197 -271T200 -292Q200 -302 193 -312T175 -331T152 -345T131 -351Q114 -351 110 -340T106 -315Q106 -291 108 -262T114 -203T125 -145T139 -94Q143 -84 148 -71T154 -47Q154 -27 136 -7T97 32T58 70T40 104Q40 123 55 139T88 167T122 188T137 201Q137 207 127 212T106 225T84 243T74 267Q74 276 80 286T97 306T118 321T137 330Q149 333 163 335T190 342T210 356T218 383Q218 418 222 452T232 522Q233 533 234 551T239 588T251 619T276 633Q287 633 295 621T309 593T317 560T320 535Q320 520 316 502T308 464T299 425T295 388Q295 368 312 365T350 360T388 353T406 320Z"  />
<glyph unicode="&apos;" horiz-adv-x="221" d="M175 498Q175 488 171 467T160 419T144 366T123 315T99 278T74 263Q61 263 52 275T43 299Q43 310 48 320Q54 335 63 360T79 413T92 466T98 507Q98 522 108 533T134 545Q154 545 164 531T175 498Z"  />
<glyph unicode="(" horiz-adv-x="315" d="M312 462Q312 443 300 434T272 415Q238 394 210 367T161 306T129 235T117 157Q117 134 120 109T132 62T156 21T196 -7Q205 -11 214 -12T232 -16Q242 -18 249 -22T257 -38Q257 -49 248 -56T228 -63Q214 -63 200 -66T171 -70Q143 -70 126 -57T94 -20Q80 4 70 26T53 70T43 117T40 169Q40 194 49 225T72 289T104 349T137 397Q146 407 162 424T198 457T236 486T268 498Q281 498 296 487T312 462Z"  />
<glyph unicode=")" horiz-adv-x="302" d="M250 118Q250 105 245 92T233 66T217 41T202 19Q198 12 188 4T167 -13T148 -30T139 -42Q139 -50 141 -58T144 -74Q144 -93 129 -97T99 -102Q74 -102 59 -83T44 -40Q44 -26 62 -10T103 26T145 69T164 122Q164 148 154 187T127 267T90 342T50 396Q31 413 31 439Q31 469 62 469Q72 469 86 458T116 431T143 401T161 378Q173 360 188 325T217 251T240 176T250 118Z"  />
<glyph unicode="*" horiz-adv-x="569" d="M534 255Q534 247 529 240T516 228T500 220T484 216Q478 215 459 214T418 209T381 202T364 192Q364 183 380 173T416 153T456 136T482 126Q492 123 499 116T506 98Q506 79 490 72T457 65Q449 65 430 69T389 81T350 95T324 107Q318 111 309 117T292 123Q287 123 286 120T284 111Q284 97 287 84T290 56Q290 39 284 29T259 18Q241 18 232 27T219 51T215 80T215 109Q215 123 217 137T219 165Q219 183 201 183Q170 183 136 176T69 168Q54 168 40 176T25 202Q25 214 35 221T60 231T89 236T113 237Q116 237 123 237T137 238T149 242T154 251Q154 260 141 274T113 305T84 340T71 376Q71 391 85 397T112 404Q130 404 146 389T176 355T202 321T223 305Q227 305 230 317T234 345T236 375T237 394V415Q237 429 243 445T267 461Q288 461 303 452T319 418Q319 389 313 359T306 299Q306 284 310 273T332 261Q374 261 415 270T498 279Q508 279 521 273T534 255Z"  />
<glyph unicode="+" horiz-adv-x="508" d="M490 184Q490 173 481 163T460 153Q449 153 441 161T426 175Q412 186 390 187T350 189Q342 189 334 189T319 187T308 180T303 163Q303 132 305 102T313 42Q313 40 313 37T314 31Q314 7 294 -7T251 -21Q241 -21 236 -16T227 -2T224 16T223 33Q223 57 226 80T230 127Q230 138 227 150T210 163Q182 163 155 155T100 147Q93 147 80 149T55 157T33 169T23 187Q23 204 34 211T61 221T94 222T123 220Q136 220 155 221T191 227T221 242T234 271Q234 288 229 307T223 348Q223 357 224 369T229 391T240 409T259 417Q282 417 294 407T307 373Q307 354 304 336T301 297Q301 278 306 268T333 257Q347 257 360 258T388 260Q403 260 418 257T446 242Q451 237 458 231T473 217T485 201T490 184Z"  />
<glyph unicode="&#x2c;" horiz-adv-x="256" d="M195 -56Q195 -94 189 -123T170 -173T142 -211T107 -241Q94 -250 77 -257T42 -264Q28 -264 18 -257T7 -234Q7 -222 12 -215T26 -202T45 -193T64 -185Q77 -179 88 -172T107 -154T121 -127T126 -84Q126 -37 117 -17T95 12T74 28T64 57Q64 71 72 79T94 87Q119 87 138 73T170 36T189 -10T195 -56Z"  />
<glyph unicode="-" horiz-adv-x="339" d="M318 209Q318 187 306 185T274 182Q231 182 189 171T103 160Q95 160 84 160T63 164T47 173T40 192Q40 201 45 210T59 227T78 240T98 245Q139 245 179 250T262 255Q271 255 280 252T298 242T312 228T318 209Z"  />
<glyph unicode="." horiz-adv-x="228" d="M160 13Q160 7 156 0T144 -14T129 -26T115 -31Q92 -31 82 -13T71 23Q71 30 73 40T79 61T91 77T107 83Q132 81 146 63T160 13Z"  />
<glyph unicode="/" horiz-adv-x="462" d="M403 476Q403 463 396 452T381 430Q350 384 324 335T268 238Q247 203 225 170T180 101Q169 84 158 67T133 32Q125 22 113 13T88 3Q74 3 64 15T54 41Q54 57 66 72Q101 122 136 169T205 268Q217 286 235 314T273 374T307 434T329 482Q334 497 343 502T369 508Q381 508 392 498T403 476Z"  />
<glyph unicode="0" horiz-adv-x="418" d="M373 256Q373 210 360 167T321 90T257 36T167 16Q108 16 81 52T54 143Q54 179 75 220T128 297T199 355T272 379Q293 379 311 367T343 337T365 297T373 256ZM302 254Q302 260 302 268T300 283T294 295T280 300Q257 300 231 288T182 256T144 212T129 163Q129 125 140 109T189 93Q217 93 238 109T273 150T294 202T302 254Z"  />
<glyph unicode="1" horiz-adv-x="232" d="M177 59Q177 50 173 32T163 -4T146 -36T124 -50Q107 -50 101 -35T93 0T92 40T94 71Q94 84 93 108T89 162T84 224T77 286T69 337T60 369Q55 380 52 391T49 415Q49 428 54 442T76 456Q105 456 114 436T129 391Q135 365 143 320T159 225T172 130T177 59Z"  />
<glyph unicode="2" horiz-adv-x="521" d="M507 29Q507 23 501 18T487 10T471 4T458 1Q444 1 433 6T407 14Q378 18 352 25T296 32Q270 32 246 25T197 18Q187 18 173 20T147 29T126 44T117 66Q117 84 137 108T182 161T227 220T248 280Q248 295 236 295T212 296Q180 296 143 291T76 270Q69 266 62 264T47 261Q33 261 28 270T22 292Q22 303 27 311T42 324T61 333T80 339Q124 350 168 356T258 363Q284 363 304 345T324 300Q324 265 309 231T277 168T244 121T229 100Q229 97 238 96T260 94T284 93T300 93Q316 93 343 93T398 89T452 78T488 58Q492 53 499 45T507 29Z"  />
<glyph unicode="3" horiz-adv-x="487" d="M451 137Q451 111 432 83T384 32T324 -7T270 -22Q259 -22 246 -18T221 -7T201 11T193 36Q193 50 206 55T238 62T280 65T322 72T354 91T367 129Q367 141 348 147T304 156T256 159T224 159Q208 159 198 167T177 185Q170 190 164 197T157 215Q157 224 174 236T211 263T248 291T265 319Q265 325 259 326T248 328Q230 328 208 326T164 319T120 310T82 298Q69 293 59 293Q44 293 38 303T32 328Q32 341 46 350T83 367T133 378T185 386T230 390T258 391Q271 391 286 390T316 384T339 369T349 341Q349 324 341 308T323 278T305 255T296 242Q296 239 300 237T309 233T319 231T326 230Q346 227 368 222T408 207T439 179T451 137Z"  />
<glyph unicode="4" horiz-adv-x="448" d="M423 248Q423 240 416 233T400 221T381 212T365 207Q349 202 341 201T328 196T323 181T322 149Q322 118 320 88T318 26Q318 21 314 13T303 -2T289 -15T276 -20Q267 -20 258 -14T243 2T232 22T228 42Q228 64 232 85T236 130Q236 135 236 143T234 158T228 171T216 177Q185 177 154 173T91 169Q79 169 67 172T44 181T27 196T20 220Q20 236 32 252T62 283T98 311T127 334Q136 341 148 356T175 385T203 410T228 421Q243 421 255 409T277 380T293 345T302 316Q305 300 310 286T336 272Q345 272 354 273T371 274Q379 274 388 274T405 271T418 264T423 248ZM232 266Q232 271 231 278T227 293T220 306T208 312Q203 312 191 303T167 283T146 261T136 248Q136 243 142 241T156 237T172 236T183 236Q200 236 216 240T232 266Z"  />
<glyph unicode="5" horiz-adv-x="510" d="M515 322Q515 315 507 310T489 300T469 294T454 292Q401 285 342 283T230 280Q215 280 207 279T188 266Q186 264 181 259T175 251Q175 248 181 247T194 245T209 244T218 244Q243 244 270 241T319 227T357 198T372 147Q372 109 356 78T312 24T251 -11T180 -24Q166 -24 148 -18T113 -2T85 22T73 52Q73 63 82 75T103 87Q113 87 122 81T142 66T162 51T186 44Q201 44 219 51T255 72T283 101T295 134Q295 148 287 156T268 170T243 176T219 178Q209 178 200 178T180 177Q159 177 142 168T103 159Q85 159 66 170T47 203Q47 208 55 222T75 251T97 282T112 304Q116 310 123 323T140 349T158 371T176 381Q184 381 189 376T201 365T220 354T253 349Q309 349 364 348T476 347Q487 347 501 342T515 322Z"  />
<glyph unicode="6" horiz-adv-x="407" d="M354 95Q354 74 340 56T306 24T262 2T219 -6Q192 -6 163 4T110 33T70 77T54 131Q54 146 67 174T101 234T147 300T197 361T243 405T276 423Q288 423 304 413T320 389Q320 383 299 363T251 316T204 265T182 223Q182 215 193 215T207 214Q233 214 255 202T298 175Q310 167 320 160T338 143T350 123T354 95ZM280 99Q280 111 266 118T233 129T196 134T169 135Q161 135 153 132T144 118Q144 109 152 99T173 81T197 68T219 62Q227 62 237 64T257 70T273 81T280 99Z"  />
<glyph unicode="7" horiz-adv-x="404" d="M370 371Q370 355 362 322T343 251T322 178T305 125Q304 121 301 110T294 87T287 64T284 50Q284 42 289 34T294 17Q294 5 281 3T259 0Q224 0 213 14T201 60Q201 67 210 97T232 162T255 230T270 273Q271 277 274 285T280 303T285 321T288 333Q288 348 273 348Q248 348 223 344T173 334T122 325T72 320Q53 320 40 328T26 357Q26 367 32 374T48 385T67 392T86 395Q128 399 168 406T251 420Q268 423 287 427T324 431Q354 431 362 415T370 371Z"  />
<glyph unicode="8" horiz-adv-x="411" d="M394 419Q394 415 392 411Q386 391 383 372T378 333Q376 313 372 295T358 261T334 236T297 222Q293 222 286 221T272 218T260 213T254 203Q254 194 264 184T286 162T309 135T319 99Q319 88 314 77T303 55Q288 32 267 16T222 -11T171 -27T118 -32Q102 -32 86 -28T57 -14T36 8T27 40Q27 51 35 66T54 98T76 127T96 149Q103 155 114 165T137 186T156 208T164 229Q164 238 155 249T145 284Q145 302 153 316T174 343Q193 361 211 379T249 412T293 436T344 445Q350 445 358 444T375 440T388 432T394 419ZM310 311Q310 321 298 326T277 331Q260 331 246 325T231 298Q231 290 238 287T252 284Q257 284 267 286T286 291T303 300T310 311ZM241 99Q241 122 227 132T192 143Q182 143 168 132T141 107T119 79T110 57Q110 52 114 50T125 46T137 44T146 44Q155 44 171 48T202 60T229 78T241 99Z"  />
<glyph unicode="9" horiz-adv-x="407" d="M349 356Q349 351 348 348T346 340Q332 298 325 258T318 173Q318 159 319 139T323 98T331 58T344 27Q348 19 348 14Q348 3 339 -3T320 -9Q292 -9 277 10T255 57T246 114T244 163Q244 185 247 207T250 247Q250 252 248 257T239 262Q234 262 230 260T222 255Q202 240 172 234T115 227Q78 227 56 245T34 302Q34 328 49 350T86 387T135 412T185 421Q208 421 226 414T256 384Q258 379 262 372T273 365Q277 365 280 367T288 373T301 379T322 382Q333 382 341 375T349 356ZM224 330Q224 342 212 350T189 358Q177 358 170 352T151 342Q145 340 138 339T126 334T117 326T113 312Q113 304 117 299T129 294Q134 294 149 298T181 309T211 321T224 330Z"  />
<glyph unicode=":" horiz-adv-x="225" d="M129 362Q129 352 129 333T124 293T112 258T89 243Q74 243 66 254T55 280T50 311T49 337Q49 348 50 359T56 380T69 396T91 402Q109 402 119 391T129 362ZM192 49Q192 32 181 19T151 6Q136 6 126 12T109 29T100 51T97 77Q97 87 99 98T106 119T119 134T141 140Q155 140 164 125T173 97Q173 91 176 86T182 76T189 65T192 49Z"  />
<glyph unicode=";" horiz-adv-x="219" d="M179 365Q179 358 175 340T163 304T147 271T130 256Q118 256 111 264T101 283T97 306T96 328Q96 340 96 352T100 373T112 389T138 395Q151 395 165 389T179 365ZM160 25Q160 -25 140 -76T80 -160Q72 -167 62 -173T41 -179Q25 -179 21 -168T17 -144Q17 -132 28 -119T52 -88T77 -45T89 15Q89 28 85 39T80 63Q80 75 88 82T108 90Q120 90 129 84T146 68T156 47T160 25Z"  />
<glyph unicode="&lt;" horiz-adv-x="561" d="M537 448Q537 430 524 417T497 392Q437 345 376 302T257 210Q253 207 238 196T206 173T176 150T162 136Q162 133 168 130T183 124T200 119T211 115Q228 106 244 94T275 68T306 42T340 23Q373 11 407 6T475 -10Q492 -15 497 -23T503 -48Q503 -55 502 -63T497 -80T488 -93T473 -99Q453 -99 430 -89T382 -78Q370 -78 358 -72T335 -58T312 -41T291 -26Q274 -16 261 -7T234 10T205 26T170 39Q153 43 139 50T112 64T86 78T58 89Q47 92 38 96T28 115Q28 118 28 121T29 128Q29 135 39 143T62 159T88 173T106 182Q127 192 150 209T198 244T244 281T287 315Q295 321 312 336T352 369T398 408T443 444T480 471T503 482Q518 482 527 473T537 448Z"  />
<glyph unicode="=" horiz-adv-x="551" d="M531 294Q531 276 518 269T489 262Q451 262 414 262T339 263Q329 263 302 263T245 262T189 260T156 254Q138 245 119 245Q100 245 86 254T71 284Q71 295 80 302T101 312T127 317T148 320Q183 323 218 323T289 325Q341 327 393 328T497 330Q511 330 521 319T531 294ZM460 111Q460 103 456 98T444 89T430 85T415 83Q390 83 366 88T317 94Q293 94 268 90T216 82T165 74T118 70Q110 70 96 72T67 80T43 92T33 111Q33 124 42 131T64 141T91 144T114 145Q156 145 196 148T278 159Q296 162 319 169T360 177Q372 177 389 172T421 157T448 136T460 111Z"  />
<glyph unicode="&gt;" horiz-adv-x="621" d="M594 258Q594 247 581 234T551 210T516 188T490 173Q429 134 371 91T255 2Q245 -6 220 -28T166 -74T112 -115T77 -133Q58 -133 52 -118T45 -87Q45 -83 61 -69T103 -33T163 13T232 64T301 117T361 166T404 204T420 228Q420 232 416 234T405 238T394 241T386 242Q353 247 322 254T259 276Q206 299 158 332T59 391Q42 399 35 409T27 439Q27 448 39 459T61 470Q68 470 80 465T105 452T131 437T152 427Q196 410 228 390T293 352T361 320T450 304Q461 303 485 303T533 300T575 287T594 258Z"  />
<glyph unicode="?" horiz-adv-x="400" d="M379 495Q379 459 365 429T330 372T283 323T237 280T201 243T187 210Q187 190 176 180T144 169Q135 169 129 175T120 189T114 206T112 222Q112 239 126 259T161 302T206 346T251 391T286 433T300 472Q300 515 257 515Q236 515 214 509T171 493T132 468T102 436Q92 422 81 408T51 394Q33 394 29 409T25 438Q25 455 31 467T46 488T68 505T94 521Q113 533 133 544T173 566T216 582T261 588Q282 588 303 583T341 566T368 537T379 495ZM181 28Q181 9 168 -2T136 -14Q116 -14 106 2T96 36Q96 41 99 48T108 62T120 73T132 78Q155 78 168 65T181 28Z"  />
<glyph unicode="@" horiz-adv-x="774" d="M743 396Q743 384 739 370T729 342T717 314T708 287Q701 260 691 235T665 190T627 160T573 148Q567 148 562 147T551 143Q540 138 520 133T479 122T438 113T407 109Q392 109 373 113T336 126T306 148T294 180Q294 200 304 219T331 255T368 281T407 295Q416 297 425 298T443 302Q453 305 466 312T490 319Q500 319 511 314T531 301T546 282T553 262Q554 259 554 256T553 249Q553 240 556 234T570 228Q585 228 598 235T620 254T636 280T646 309Q649 326 656 344T663 379Q663 394 652 405T624 425T584 439T541 448T502 452T472 454Q451 454 426 451T376 440T328 422T288 398Q261 377 234 350T185 292T149 227T135 157Q135 110 159 77T216 14Q245 -11 282 -17T357 -24Q396 -24 434 -20T511 -16Q526 -16 543 -22T561 -47Q561 -65 536 -75T479 -91T416 -98T373 -99Q343 -99 312 -97T251 -87T195 -65T147 -26Q127 -2 111 18T83 59T66 105T60 163Q60 188 67 215T88 270T116 321T149 365Q161 378 183 398T230 439T280 475T321 497Q361 510 401 518T484 527Q503 527 529 525T585 517T642 502T692 478T729 443T743 396Z"  />
<glyph unicode="A" horiz-adv-x="461" d="M475 137Q475 127 463 122T436 115T406 112T385 112Q371 112 363 107T354 87Q354 75 359 65T371 44T382 22T388 -4Q388 -19 375 -33T346 -48Q339 -48 334 -40T325 -21T319 1T317 18Q317 27 313 39T302 65T292 89T287 105Q287 110 277 112T253 115T227 116T210 117Q195 118 181 119T151 121Q138 121 124 118T106 99Q101 76 94 55T79 12Q74 -3 63 -5T37 -8Q24 -8 19 1T14 21Q14 39 30 69T67 134T106 204T130 266Q136 298 147 327T158 391Q158 395 158 405T159 426T163 444T174 452Q181 452 189 448T204 439Q240 413 269 374T309 290Q310 283 314 264T323 223T334 184T348 163Q355 160 376 159T419 157T458 151T475 137ZM278 199Q278 209 271 233T254 281T233 324T211 343Q207 343 205 334T201 314T198 291T196 276Q193 267 187 256T175 232T163 209T158 190Q158 180 169 176T196 169T226 167T247 167Q278 167 278 199Z"  />
<glyph unicode="B" horiz-adv-x="459" d="M424 82Q424 73 420 65T410 48Q395 28 372 16T321 -4T267 -14T216 -17Q204 -17 186 -16T149 -11T113 -2T85 9Q70 18 65 31T59 62Q59 74 67 84T75 114Q75 131 75 147T76 181Q76 192 75 212T69 243Q64 251 58 256T47 266T39 279T35 298Q35 335 61 360T125 401T203 422T271 429Q280 429 304 428T353 423T397 410T416 388Q416 350 396 320T352 266T307 227T287 203Q287 198 294 194T310 185T329 176T343 169Q351 163 365 153T392 130T414 106T424 82ZM355 74Q355 85 343 97T323 116Q314 124 297 129T259 138T217 147T178 159T149 175T138 199Q138 208 146 213T165 223T188 229T206 235Q219 240 242 253T288 283T328 318T345 352Q345 359 338 363T322 369T304 371T291 372Q227 372 164 352Q145 346 138 342T130 332T128 321T120 304Q116 299 115 293T114 280Q114 261 118 243T126 205Q132 176 131 145T134 84Q139 57 160 51T204 44Q212 44 236 44T287 48T334 57T355 74Z"  />
<glyph unicode="C" horiz-adv-x="479" d="M465 50Q465 45 463 40T459 29Q457 20 448 16T427 10T403 8T384 9Q362 9 320 10T233 16T149 27T94 47Q69 67 56 100T42 164Q42 226 73 268T156 341Q205 370 250 389T354 408Q364 408 379 408T407 403T431 392T441 369Q441 359 437 354T425 347T411 345T396 345Q382 345 370 348T344 352Q334 352 325 350T306 345Q293 340 269 331T221 309T175 285T146 261Q129 237 121 213T112 158Q112 130 120 114T142 91T177 82T221 80L311 81Q319 81 344 81T396 80T444 71T465 50Z"  />
<glyph unicode="D" horiz-adv-x="462" d="M427 213Q427 182 414 159T379 116T333 81T286 50Q274 42 253 29T210 2T166 -21T131 -31Q111 -31 99 -23T87 7Q87 14 92 23T104 43T115 68T121 100Q121 133 113 165T101 231Q99 245 93 261T86 289Q86 291 87 293T88 298Q88 301 84 301Q75 301 70 296T60 283T50 271T38 265Q28 265 21 278T14 300Q14 307 19 315T30 330T44 344T58 356Q67 363 69 371T71 387T73 399T83 404Q99 404 123 402T174 396T224 387T262 376Q287 366 315 351T369 315T410 270T427 213ZM367 217Q367 237 360 248T341 267T315 278T286 290Q278 294 263 301T232 316T200 328T177 334Q166 334 157 330T148 313Q148 304 151 296T159 279Q166 261 170 239T177 192T180 145T181 102Q181 91 185 85T202 78Q223 78 251 91T305 125T349 170T367 217Z"  />
<glyph unicode="E" horiz-adv-x="493" d="M493 373Q493 365 486 360T468 350T447 344T430 341Q390 338 351 338T271 331Q258 328 244 324T215 314T186 306T158 302Q147 302 143 296T136 280Q135 276 133 264T129 238T125 212T123 197Q123 190 129 190Q132 190 135 191T140 193Q164 201 188 202T237 206Q253 207 268 212T299 222T330 232T361 237Q366 237 373 236T386 231T397 222T402 210Q402 202 396 195T380 180T361 169T345 163Q318 158 291 158T237 151Q220 146 202 142T166 137Q152 137 145 145T128 153Q118 153 115 146T112 131Q112 115 131 105T174 88T222 80T255 78Q264 78 279 78T309 79T339 85T359 97Q363 104 369 112T384 121Q392 121 399 113T411 95T419 73T422 55Q422 27 394 20Q362 12 328 6T259 0Q242 0 217 5T166 20T118 40T83 64Q65 82 57 97T49 139Q49 163 57 185T65 232Q65 242 67 266T74 316T88 361T111 381Q116 381 120 378T128 372T140 366T158 363Q175 363 194 370T230 383Q259 391 289 394T349 397H413Q420 397 433 397T460 397T483 390T493 373Z"  />
<glyph unicode="F" horiz-adv-x="539" d="M517 411Q517 400 512 394T500 385T483 380T466 377Q398 369 331 366T196 355Q182 353 175 352T164 346T159 333T158 312V252Q225 255 292 264T426 274Q432 274 444 272T469 265T491 254T501 239Q501 233 491 229T467 223T441 220T424 218Q381 216 338 210T253 198Q234 196 211 195T170 187Q165 185 162 183T158 175Q158 137 165 99T172 23Q172 11 162 -2T138 -16Q120 -16 109 -4T97 26Q97 49 98 71T99 115Q99 118 99 128T99 151T97 172T93 183Q88 185 80 189T63 198T48 208T41 220Q41 226 47 231T63 240T80 247T93 254Q99 259 100 271T101 290Q101 295 100 302T97 316T90 327T78 332Q70 332 65 326T51 319Q42 319 39 326T35 341Q35 358 43 369T65 388T93 400T122 407Q171 415 220 420T318 431Q349 435 380 439T444 443Q451 443 463 442T488 438T508 428T517 411Z"  />
<glyph unicode="G" horiz-adv-x="573" d="M558 190Q558 183 546 177T516 165T476 156T434 150T397 145T373 143Q368 142 360 142T352 134Q352 121 357 109T362 82Q362 58 347 40T310 10T263 -9T219 -16Q180 -16 148 -5T92 28T55 81T42 153Q42 187 53 217T84 272T129 319T183 357Q199 367 223 382T273 410T324 433T367 443Q385 443 404 436T439 417T465 387T475 351Q475 342 471 332T461 314T446 300T427 294Q419 294 410 298T401 313Q401 318 404 322T410 329T417 336T420 345Q420 351 415 356T403 366T388 372T375 375Q368 375 362 373T350 369Q318 358 287 346T229 314Q212 302 190 285T149 246T116 202T102 157Q102 136 112 117T138 82T174 57T215 48Q227 48 239 49T263 56T281 69T288 93Q288 102 279 106T258 113T234 116T216 117Q202 117 192 126T182 149Q182 162 189 169T209 179Q233 185 271 192T351 206T431 217T492 222Q499 222 510 221T532 217T550 208T558 190Z"  />
<glyph unicode="H" horiz-adv-x="491" d="M441 66Q441 58 440 47T435 25T424 7T406 0Q396 0 390 4T381 16T375 32T372 48Q371 55 367 79T355 130T340 177T325 198Q322 198 320 197T316 193Q312 188 299 185T271 180T242 178T221 177Q215 177 204 177T179 176T156 172T142 165Q140 162 140 156Q140 136 148 118T156 79Q156 73 154 62T148 41T137 24T122 16Q105 16 97 27T84 55T80 92T78 130T73 163T61 183Q52 188 44 194T35 211Q35 221 39 225T48 233T57 246T61 274Q61 306 59 336T57 399Q57 410 65 418T84 427Q102 427 110 406T123 357T128 302T132 262Q136 247 141 239T165 230Q189 230 213 234T262 239Q275 239 292 236T320 224L321 226Q321 240 316 257T305 293T294 331T289 369Q289 375 291 382T296 395T305 406T316 411Q333 411 341 404T352 379Q357 350 371 306T401 217T429 130T441 66Z"  />
<glyph unicode="I" horiz-adv-x="198" d="M163 38Q163 24 148 13T119 2Q104 2 94 15T77 46T67 82T64 111Q64 168 60 224T56 337Q56 345 57 357T62 381T72 401T91 409Q103 409 109 401T117 382T119 359T119 339Q119 322 119 291T122 226T127 162T137 119Q140 112 144 102T153 80T160 57T163 38Z"  />
<glyph unicode="J" horiz-adv-x="377" d="M334 119Q334 89 320 64T284 21T233 -7T178 -18Q146 -18 125 -7T87 21T58 61T33 107Q28 115 25 123T21 139Q21 149 27 154T41 163Q50 167 65 174T91 182Q98 182 106 178T121 167T132 153T137 138Q137 133 134 130T128 124T121 117T118 107Q118 96 125 87T143 72T166 62T187 58Q200 58 214 63T239 77T258 98T265 125Q265 145 257 183T238 264T216 345T197 407Q195 415 193 423T191 440Q191 452 196 461T215 470Q241 470 251 456T269 419Q272 406 278 382T292 328T306 266T320 204T330 152T334 119Z"  />
<glyph unicode="K" horiz-adv-x="545" d="M516 50Q516 38 510 28T490 18Q470 18 446 21T395 29T345 40T301 52Q295 53 275 60T232 75T192 89T172 96Q165 96 165 89Q165 81 172 68T179 39Q179 22 168 16T142 10Q123 10 114 17T102 35T98 59T99 87Q99 130 92 171T72 254T46 335T17 415Q14 424 14 433Q14 442 18 451T33 460Q53 460 65 446T83 415Q95 380 107 345T133 274Q134 270 137 262T145 253Q150 253 154 258T160 266Q185 295 216 325T279 375Q288 381 305 392T340 415T375 434T402 443Q412 443 421 433T431 414Q431 408 429 405T422 397Q413 388 397 378T363 357T327 334T293 308Q283 299 269 287T241 260T218 230T208 201Q208 184 222 171T257 148T299 132T333 123Q351 120 373 116T417 106T461 94T500 81Q509 78 512 69T516 50Z"  />
<glyph unicode="L" horiz-adv-x="380" d="M372 82Q372 73 369 63T361 43T348 27T330 20Q302 20 275 15T220 10Q207 10 188 11T147 16T108 26T80 40Q59 57 51 84T42 137Q42 144 42 150T44 165Q50 213 56 261T70 359Q73 387 99 387Q118 387 124 377T131 350Q131 300 125 248T119 148Q119 111 140 96T195 81Q208 81 226 81T262 83T298 88T328 95Q340 100 352 100Q372 100 372 82Z"  />
<glyph unicode="M" horiz-adv-x="527" d="M485 48Q485 33 475 26T450 18Q412 18 398 32T384 85Q384 114 385 141T386 197Q386 201 385 209T378 217Q375 217 365 210T340 195T303 180T254 173Q225 173 206 181T173 198T152 215T139 223Q136 223 135 214T134 194T134 172T135 160Q135 132 135 104T134 48Q134 28 126 11T95 -6Q82 -6 76 1T66 18T63 41T63 62Q63 138 56 214T49 367Q49 381 56 397T81 413Q94 413 108 401T135 369T163 328T193 286T225 255T259 242Q275 242 293 249T329 268T360 293T384 320Q390 328 397 334T416 341Q427 341 439 330T452 308Q452 261 450 216T448 123Q448 98 454 89T466 77T479 69T485 48Z"  />
<glyph unicode="N" horiz-adv-x="518" d="M475 243Q475 224 474 205T467 167Q461 146 450 118T422 63T385 19T338 0Q323 0 306 13T269 47T231 90T195 134T163 167T138 181Q130 181 130 170Q130 152 137 125T144 70Q144 58 143 46T136 25T123 9T100 2Q83 2 79 10T72 34Q65 93 60 154T40 272Q35 289 35 304Q35 316 40 327T60 339Q71 339 91 326T135 293T184 248T231 200T271 158T296 129Q304 119 315 105T340 89H343Q361 89 374 111T396 162T409 220T414 262Q414 279 409 294T398 324T387 352T382 383Q382 391 386 397T399 403Q426 403 441 385T463 342T473 290T475 243Z"  />
<glyph unicode="O" horiz-adv-x="393" d="M336 202Q336 184 335 164T329 125T318 87T297 56Q281 39 267 27T238 7T206 -6T164 -10Q110 -10 80 21T49 107Q49 160 68 197T122 272Q132 282 145 295T174 320T205 339T237 347Q250 347 266 340T296 323T320 299T333 272Q335 255 335 237T336 202ZM273 210Q273 238 263 250T226 262Q205 262 186 246T153 206T129 157T120 113Q120 95 127 86T146 74T172 70T200 70Q219 70 232 86T255 125T268 172T273 210Z"  />
<glyph unicode="P" horiz-adv-x="515" d="M486 348Q486 333 474 316T446 282T411 253T381 234Q349 217 307 204T229 185Q216 183 209 182T198 176T194 165T193 145Q193 111 196 78T199 10Q199 3 196 -5T187 -22T174 -35T159 -41Q149 -41 142 -31T129 -7T120 21T115 42Q108 78 96 112T71 179T51 248T42 320Q42 351 61 372T109 407T169 425T225 431Q244 431 269 428T320 419T372 407T415 395Q423 393 435 390T458 381T478 367T486 348ZM375 324Q375 336 353 342T303 350T249 353T215 354Q207 354 192 353T160 349T133 338T121 318Q121 314 130 302T152 276T175 253T188 242Q192 242 194 245T199 250Q204 256 219 260T253 267T294 275T334 286T363 301T375 324Z"  />
<glyph unicode="Q" horiz-adv-x="656" d="M613 242Q613 199 599 167T568 111T536 73T522 50Q522 44 527 31T540 2T552 -32T558 -66Q558 -83 552 -88T530 -94Q506 -94 493 -77T472 -39T456 -1T434 16Q429 16 423 10Q410 -3 380 -11T313 -23T244 -30T191 -32Q163 -32 136 -29T88 -14T55 18T42 74Q42 107 54 140T86 203T130 260T181 306Q209 328 238 347T297 381T360 404T431 413Q467 413 500 401T558 366T598 312T613 242ZM550 236Q550 245 548 262T539 297T524 328T502 341Q491 341 487 337T482 327T480 315T475 302Q464 289 448 278T415 266Q403 266 393 275T374 295T357 315T340 324Q337 324 334 323T328 320Q299 306 262 282T193 227T138 161T115 91Q115 62 126 49T168 35Q216 35 262 42T355 62Q358 63 364 64T371 70Q371 74 362 82T341 99T320 119T310 139Q310 165 338 165Q353 165 372 156T410 135T443 114T464 104Q483 104 499 119T526 155T543 198T550 236Z"  />
<glyph unicode="R" horiz-adv-x="478" d="M492 -55Q492 -70 483 -73T461 -77Q438 -77 421 -63T388 -35Q355 -7 317 15T241 60Q229 67 213 80T181 108T155 141T144 173Q144 198 158 216T193 249T240 275T286 299T322 326T336 362Q336 373 333 382T315 392Q304 392 285 389T244 381T203 370T175 360Q154 348 147 334T134 296Q130 275 127 244T123 179T121 113T120 58Q120 49 120 35T116 7T106 -17T86 -27Q66 -27 56 -20T45 9Q45 14 45 18T46 26Q51 64 52 103T54 180Q54 212 53 244T46 308Q44 317 43 326T42 343Q42 358 45 365T53 374T66 377T84 377Q94 377 98 382T108 393Q127 413 147 424T189 442T235 449T286 451Q305 451 325 448T361 437T388 415T398 376Q398 340 385 314T351 270T308 239T264 216T231 198T217 179Q217 167 237 152T288 119T354 80T420 38T471 -8T492 -55Z"  />
<glyph unicode="S" horiz-adv-x="452" d="M424 128Q424 111 417 96T399 67T373 43T345 25Q334 19 314 12T272 -3T230 -16T198 -21Q186 -21 172 -14T146 3T126 27T118 52Q118 66 130 74T154 82Q161 82 169 78T187 70T205 62T225 58Q234 58 254 65T296 82T334 103T350 124Q350 138 327 148T268 168T193 188T117 213T59 246T35 294Q35 325 58 347T115 385T183 407T243 415Q258 415 276 409T312 391T340 365T352 334Q352 324 347 312T334 290T315 272T293 265Q285 265 281 268T276 280Q276 290 279 299T283 319Q283 339 270 345T239 352Q229 352 209 348T167 337T130 320T114 296Q114 284 137 275T194 257T269 236T343 210T401 175T424 128Z"  />
<glyph unicode="T" horiz-adv-x="614" d="M592 391Q592 383 586 378T572 371T555 369T541 368Q484 365 428 361T315 356Q306 356 298 354T289 341Q289 336 291 328Q298 298 309 252T330 156T347 60T355 -13Q355 -20 355 -28T352 -43T344 -54T329 -59Q298 -59 288 -40T275 7Q273 30 268 73T256 161T241 248T224 308Q218 320 215 328T206 342T192 350T170 354Q160 355 136 356T86 360T41 372T21 396Q21 400 26 407T39 420T54 432T67 437Q78 437 89 433T112 426Q124 423 136 422T160 419Q173 418 185 418T210 418Q238 418 268 418T329 419T390 424T448 435Q465 440 482 442T517 445Q532 445 548 442T575 425Q580 418 586 409T592 391Z"  />
<glyph unicode="U" horiz-adv-x="496" d="M446 268Q446 245 442 214T429 152T407 92T378 48Q343 13 292 2T194 -10Q150 -10 122 9T77 60T55 129T49 203Q49 216 49 244T54 302T69 353T99 375Q114 375 124 370T134 346Q134 340 132 330Q125 293 123 258T120 185Q120 164 123 142T136 100T161 69T204 56Q247 56 279 70T334 110T367 171T378 248Q378 268 374 282T365 308T355 330T351 353Q351 370 359 386T386 403Q391 403 397 399T406 391Q429 368 437 334T446 268Z"  />
<glyph unicode="V" horiz-adv-x="487" d="M472 345Q472 340 467 332T455 316T441 301T431 289Q420 275 410 255T390 213T373 170T359 132Q355 120 345 94T322 42T292 -5T260 -26Q250 -26 236 -4T206 46T176 102T155 140Q151 146 139 160T112 194T79 233T47 271T24 300T14 313Q14 341 40 341Q51 341 68 330T102 304T133 274T155 249Q158 245 167 233T187 205T212 172T236 140T256 117T268 107Q274 107 282 127T302 177T326 242T357 308T394 358T439 378Q454 378 463 369T472 345Z"  />
<glyph unicode="W" horiz-adv-x="632" d="M575 293Q575 275 573 244T566 178T556 113T545 66Q539 46 524 26T490 -10T448 -36T404 -47Q387 -47 372 -37T343 -10T321 23T307 56Q305 61 303 73T296 99T288 123T277 133Q271 133 257 114T221 73T171 31T107 12Q91 12 81 19T64 36T56 60T53 87Q53 155 51 221T49 355Q49 366 54 377T73 389Q91 389 101 376T112 345V325L113 305V269Q113 263 113 234T113 174T117 117T130 91Q137 91 149 99T175 119T201 141T218 157Q231 170 239 190T255 228T273 260T299 274Q313 274 322 257T340 213T355 155T370 98T388 54T412 36Q435 36 451 51T476 91T491 145T498 204T501 259T501 300Q501 316 512 332T541 349Q551 349 558 343T568 329T573 311T575 293Z"  />
<glyph unicode="X" horiz-adv-x="471" d="M429 377Q429 360 411 335T370 284T329 236T310 203Q310 183 323 162T353 121T383 87T397 64Q397 51 383 38T355 24Q347 24 338 28T318 40T300 54T288 68Q285 72 280 82T270 102T259 119T248 127Q238 127 231 115T218 95Q215 92 210 88T200 79T191 69T187 59Q187 53 191 50T202 43T212 36T217 25Q217 17 211 11T197 1T180 -6T165 -8Q139 -8 121 2T103 42Q103 71 119 93T153 134T188 168T204 199Q204 208 194 220T169 243T141 264T119 278Q111 282 92 290T52 309T16 330T0 349Q0 364 9 377T36 391Q61 391 95 372T162 331T221 289T256 270Q264 270 275 280T299 307T325 341T350 376T374 402T393 413Q404 413 416 401T429 377Z"  />
<glyph unicode="Y" horiz-adv-x="509" d="M494 423Q494 408 483 389T456 352T424 318T395 296Q387 291 366 282T323 264T283 247T262 236Q256 230 250 214T238 180T229 145T226 119Q226 90 231 80T244 66T256 55T262 28Q262 14 246 6T218 -2Q198 -2 186 9T167 38T158 73T155 107Q155 130 162 151T170 196Q170 201 169 207T159 214Q133 214 110 223T68 249T39 288T28 337Q28 350 30 369T38 405T55 434T84 447Q95 447 109 440T123 419Q123 413 118 406T107 390T96 375T91 361Q91 321 117 308T179 294Q202 294 241 303T317 330T382 371T409 425Q409 442 420 453T449 464Q455 464 463 460T477 450T489 437T494 423Z"  />
<glyph unicode="Z" horiz-adv-x="583" d="M569 58Q569 47 563 39T548 26T529 18T509 14Q478 11 447 10T384 7Q336 5 290 3T196 0H164Q150 0 132 0T98 5T71 20T59 50Q59 71 76 94T118 142T174 189T229 234T272 272T289 300Q289 305 284 306T275 308Q228 308 182 294T91 266Q80 263 71 263Q61 263 48 267T35 286Q35 302 40 313T61 331Q69 334 87 339T130 350T181 362T232 372T276 380T303 383Q312 383 329 383T364 380T395 370T408 349Q408 336 396 316T367 276T333 237T305 210Q291 198 270 182T228 149T189 115T162 81Q195 79 228 78T294 77Q312 77 330 77T366 80Q402 83 438 89T509 95Q518 95 528 94T548 88T563 77T569 58Z"  />
<glyph unicode="[" horiz-adv-x="398" d="M394 492Q394 472 379 460T346 444Q313 436 272 424T197 410Q185 409 178 409T167 407T161 397T158 376Q157 370 157 364T157 351Q157 310 160 270T164 188Q164 149 153 110T142 33Q142 10 152 6T181 2Q188 2 204 0T239 -4T273 -10T295 -16Q318 -28 318 -54Q318 -71 303 -76T275 -82Q258 -82 234 -81T185 -76T137 -68T100 -56Q89 -50 80 -46T65 -35T55 -20T51 3Q51 11 52 20T54 37Q62 87 74 134T86 234Q86 259 85 283T79 334Q77 352 74 370T70 408Q70 440 86 455T134 472Q172 474 209 481T282 500Q288 502 299 506T323 514T346 522T362 525Q377 525 385 516T394 492Z"  />
<glyph unicode="\" horiz-adv-x="484" d="M473 20Q473 6 456 -2T427 -10Q416 -10 387 11T324 61T260 115T217 153Q169 193 126 241T41 337Q31 348 21 365T10 397Q10 411 21 415T43 420Q53 420 63 415T81 403T97 387T111 371Q136 339 163 310T221 254Q258 224 295 195T369 136Q386 122 405 108T439 78Q450 67 461 52T473 20Z"  />
<glyph unicode="]" horiz-adv-x="421" d="M387 465Q387 451 373 426T343 367T312 295T298 216Q298 166 297 118T296 19Q296 4 297 -11T298 -40Q298 -51 293 -60T278 -75T259 -84T238 -88Q232 -88 228 -87Q213 -86 189 -85T141 -83T94 -80T60 -73Q44 -67 36 -58T28 -32Q28 -16 42 -7T70 2Q96 2 122 -2T175 -6Q198 -6 207 15T219 64T219 122T217 166Q217 188 220 218T230 279T245 338T264 387Q269 397 269 405Q269 421 260 423T238 426Q216 426 194 428T150 431Q129 431 109 428T69 424Q53 424 49 436T44 460Q44 479 51 490T80 502H336Q353 502 370 494T387 465Z"  />
<glyph unicode="^" horiz-adv-x="434" d="M373 161Q373 142 364 128T333 114Q315 114 304 122T285 143T274 171T271 202Q271 235 271 269T275 337Q276 340 276 347Q276 352 274 359T264 367Q260 367 248 357T218 330T181 295T144 258T113 227T95 208Q81 191 58 191Q40 191 29 202T17 233Q17 247 26 256T45 273Q98 310 152 359T252 454Q260 462 269 473T288 494T309 512T333 519Q348 519 358 513T369 490V482Q364 440 360 399T355 317Q355 305 355 289T357 255T360 221T367 194Q373 177 373 161Z"  />
<glyph unicode="_" horiz-adv-x="695" d="M690 -59Q690 -74 683 -83T666 -99T643 -107T618 -109Q588 -109 559 -103T500 -96Q482 -96 463 -99Q421 -105 379 -106T293 -109Q236 -111 179 -112T65 -113Q58 -113 50 -112T34 -107T22 -98T17 -83Q17 -75 23 -67T37 -52T55 -41T73 -36Q111 -36 148 -36T223 -37Q324 -37 422 -27T622 -16Q632 -16 644 -18T666 -25T683 -38T690 -59Z"  />
<glyph unicode="`" horiz-adv-x="315" d="M288 307Q288 289 278 273T247 256Q230 256 224 269T207 294Q196 305 182 317T152 343T121 368T93 391Q83 399 77 410T71 435Q71 450 81 456T105 463Q112 463 125 455T153 435T180 412T199 394Q206 388 221 377T251 354T277 329T288 307Z"  />
<glyph unicode="a" horiz-adv-x="450" d="M444 -6Q444 -26 427 -34T392 -42Q368 -42 345 -35T305 -10Q303 -8 298 -1T287 14T277 28T271 35Q269 35 259 26T244 15Q225 4 203 1T158 -3Q110 -3 80 20T49 95Q49 108 54 129T67 172T86 210T112 232Q129 238 144 245T175 259T207 270T243 275Q260 275 281 268T313 247Q332 243 347 235T363 203Q363 177 357 152T350 100Q350 72 357 58T374 37T397 28T419 24T437 15T444 -6ZM265 122Q265 131 262 135T249 140Q241 140 231 132T208 124Q200 124 192 130T183 145Q183 152 191 157T208 169T225 181T233 195Q233 200 229 201T222 202Q207 202 190 192T158 168T134 136T124 103Q124 84 136 77T166 69Q175 69 192 72T225 83T253 100T265 122Z"  />
<glyph unicode="b" horiz-adv-x="410" d="M367 184Q367 153 355 120T322 60T271 14T209 -4Q183 -4 160 3T110 11Q103 11 97 10T83 9Q72 9 69 14T65 29Q65 74 68 119T71 210Q71 217 71 228T71 252T69 275T66 293Q63 303 57 321T44 360T33 398T28 424Q28 434 37 445T56 456Q66 456 76 447T95 425T109 399T117 377Q120 366 121 350T126 318T138 292T163 281Q185 281 219 277T287 263T343 233T367 184ZM288 164Q288 178 277 186T251 199T221 205T195 206Q169 206 154 199T139 163Q139 141 139 125T144 97T163 79T205 73Q249 73 268 98T288 164Z"  />
<glyph unicode="c" horiz-adv-x="426" d="M421 32Q421 16 412 9T391 1T364 0T339 1Q295 1 252 0T163 -2Q144 -2 123 0T84 10T54 32T42 71Q42 109 61 145T110 210T177 255T252 272Q269 272 287 268T319 255T343 232T352 198Q352 179 339 160T304 141Q278 141 271 148T262 165T255 182T232 190Q217 190 197 181T158 157T128 125T115 91Q115 77 132 71T172 63T216 62T246 63Q255 63 283 63T342 62T397 53T421 32Z"  />
<glyph unicode="d" horiz-adv-x="591" d="M563 36Q563 29 554 24T533 16T510 11T493 9Q460 9 434 17T387 36T355 55T337 64Q330 64 310 53T264 29T208 4T152 -7Q137 -7 119 -2T84 14T56 39T45 72Q45 84 49 97T58 121Q79 166 117 186T204 207Q214 207 225 206T247 201T264 190T271 169Q271 147 249 139T201 126T152 115T130 90Q130 76 140 71T162 66Q178 66 202 74T252 93T298 119T329 145Q323 159 319 177T313 214T310 251T309 284Q309 301 313 329T324 390T343 454T370 513T405 555T448 572Q475 572 493 552T523 505T538 447T543 395Q543 333 522 283T476 196T429 138T408 112Q408 100 422 92T454 79T490 72T515 70Q521 70 529 68T545 61T558 50T563 36ZM489 387Q489 394 487 411T481 447T470 479T452 493Q443 493 433 474T414 430T399 383T392 354Q389 335 387 317T385 279Q385 256 388 235T396 191Q413 206 429 230T459 281T481 336T489 387Z"  />
<glyph unicode="e" horiz-adv-x="539" d="M532 53Q532 45 526 38T512 26T494 17T478 12Q427 0 376 -10T272 -20Q248 -20 223 -14T173 5T129 34T97 73Q87 73 75 74T51 79T32 91T24 113Q24 125 30 131T46 138T65 140T84 139Q95 139 101 147T111 164Q123 188 138 209T172 247T215 272T268 282Q299 282 321 267T343 218Q343 189 331 170T302 139T264 119T226 107T196 98T184 86Q184 75 198 68T231 56T268 50T295 48Q306 48 317 48T339 49Q362 51 384 53T430 59Q443 61 457 64T484 67Q488 67 496 67T512 66T526 62T532 53ZM274 195Q274 204 261 207T241 211Q232 211 222 206T203 192T188 174T182 157Q182 150 192 150Q199 150 212 154T239 165T263 180T274 195Z"  />
<glyph unicode="f" horiz-adv-x="521" d="M526 197Q526 188 519 182T502 171T482 164T464 161Q412 155 359 151T252 147Q242 147 228 146T214 131Q214 122 218 108T229 78T239 44T244 10Q244 -3 237 -11T216 -20Q207 -20 200 -14T187 1T178 19T171 36Q162 58 153 79T135 123Q130 137 124 138T103 139Q93 139 79 139T52 142T30 152T20 175Q20 196 31 202T55 210T80 211T92 222Q92 241 88 264T83 310Q83 341 93 375T123 438T171 485T234 504Q255 504 270 492T294 462T309 424T314 387Q314 341 295 301T232 240Q229 238 223 235T216 226Q216 221 223 218T240 213T259 210T272 209Q312 209 350 217T429 226Q435 226 450 225T483 221T513 212T526 197ZM252 379Q252 386 252 395T250 413T242 427T226 433Q205 433 192 419T170 383T158 339T155 300Q155 291 157 283T171 274Q183 274 197 286T224 316T244 350T252 379Z"  />
<glyph unicode="g" horiz-adv-x="389" d="M343 197Q343 177 334 160T325 122Q325 77 330 34T335 -55Q335 -79 330 -116T312 -188T278 -249T226 -275Q203 -275 180 -268T136 -248T95 -220T62 -187Q58 -182 52 -173T45 -158Q45 -148 51 -139T66 -123T85 -112T105 -108Q125 -108 134 -119T150 -148Q153 -155 159 -163T172 -179T189 -192T206 -197Q228 -197 238 -173T253 -116T257 -54T257 -10Q257 -2 257 11T255 36T246 57T228 66H200Q180 66 155 68T107 78T70 102T55 146Q55 176 72 197T116 231T171 251T226 257Q239 257 259 255T298 247T330 228T343 197ZM229 174Q229 182 223 184T211 186Q206 186 194 183T168 176T145 166T134 156Q134 151 139 148T152 142T166 139T176 138Q184 138 193 139T211 145T224 156T229 174Z"  />
<glyph unicode="h" horiz-adv-x="392" d="M382 -28Q382 -49 369 -60T334 -71Q308 -71 294 -53T270 -9T251 40T225 76Q219 80 207 87T187 95Q183 95 181 87T177 70T176 51T175 38Q175 20 164 10T136 0Q125 0 117 6T104 22T96 42T92 62Q89 87 86 126T76 207T57 284T25 337Q19 342 17 347T14 360Q14 374 23 386T48 399Q58 399 70 388T94 362T113 332T124 308Q127 298 128 279T134 240T144 206T165 191Q181 191 200 184T236 166T269 142T294 115Q313 91 325 66T350 12Q353 6 358 1T368 -8T378 -18T382 -28Z"  />
<glyph unicode="i" horiz-adv-x="192" d="M147 406Q147 400 144 385T135 354T123 326T108 314Q84 314 74 329T63 366Q63 378 64 389T68 411T80 427T102 433Q114 433 130 428T147 406ZM145 179Q145 168 144 147T140 102T135 58T129 28Q124 14 118 8T96 2Q76 2 64 19T52 54Q52 68 55 81T60 109Q66 146 66 185Q66 203 76 210T104 218Q125 218 135 210T145 179Z"  />
<glyph unicode="j" horiz-adv-x="310" d="M166 323Q166 317 165 310T161 297T153 286T141 281Q123 281 107 298T89 332Q88 338 88 349T89 371T86 392T79 406Q70 415 70 430Q70 447 80 455T107 463Q127 463 138 458T151 431Q153 405 159 377T166 323ZM270 54Q270 34 269 14T263 -24T247 -56T214 -80Q188 -92 160 -104T101 -116Q77 -116 55 -102T22 -67Q16 -55 9 -41T2 -13Q2 3 15 11T42 19Q66 19 73 12T84 -5T92 -21T115 -29Q127 -29 141 -25T168 -12T189 9T198 35Q198 55 198 79T194 127T184 173T163 211Q148 229 148 249Q148 263 155 271T177 279Q185 279 193 274T208 261T222 245T232 231Q242 216 249 193T260 145T267 96T270 54Z"  />
<glyph unicode="k" horiz-adv-x="518" d="M517 19Q517 7 509 2T490 -3Q478 -3 451 2T394 14T338 29T301 42Q292 46 277 56T244 77T213 100T192 118Q189 121 183 130T171 139Q166 139 165 129T164 116Q163 105 162 82T156 35T142 -7T117 -25Q98 -25 90 -10T81 27T81 70T83 104Q83 130 77 156T63 209T49 263T43 317Q43 329 46 341T49 365Q49 377 45 388T37 412T28 436T24 462Q24 497 57 497Q67 497 78 492T98 478T112 458T118 437Q118 400 123 363T132 288Q133 283 135 268T140 236T146 206T154 193Q156 193 167 203T191 227T217 252T234 267Q244 274 261 287T297 315T330 344T351 370Q355 377 359 381T373 386Q384 386 398 376T412 353Q412 339 395 318T355 276T309 236T275 209Q268 204 255 196T242 177Q242 167 255 157T289 136T334 116T382 98T423 85T450 78Q459 76 471 71T493 58T510 40T517 19Z"  />
<glyph unicode="l" horiz-adv-x="193" d="M138 14Q138 -2 133 -9T110 -17Q93 -17 83 -10T69 8T63 32T62 60Q62 102 65 142T68 223Q68 260 64 296T60 370Q60 376 61 385T65 404T73 419T88 425Q101 425 116 417T131 394Q131 331 134 270T138 147V14Z"  />
<glyph unicode="m" horiz-adv-x="723" d="M689 -32Q689 -48 674 -53T646 -59Q620 -59 599 -52T561 -23Q549 -8 543 12T534 52T526 84T515 98Q505 98 492 88T462 67T426 45T388 35Q369 35 359 45T342 66T330 88T315 98Q301 98 287 82T257 47T227 11T194 -5Q183 -5 177 1T168 15T165 32T164 50Q164 62 160 79T147 113T128 142T102 154Q90 154 80 147T61 130T44 114T27 106Q14 106 11 113T7 132Q7 148 17 165T42 197T74 221T108 231Q138 231 156 215T187 180T208 144T224 128Q228 128 240 138T268 160T299 183T327 193Q351 193 364 182T386 159T399 135T410 124Q416 124 432 136T466 162T501 189T527 201Q538 201 550 193T572 174T591 150T602 128Q608 110 609 95T612 65T622 38T650 13Q661 6 675 -5T689 -32Z"  />
<glyph unicode="n" horiz-adv-x="498" d="M456 -2Q456 -16 442 -28T413 -41Q394 -41 383 -30T364 -3T353 32T345 67T336 94T321 105Q307 105 294 91T268 59T242 27T212 12Q199 12 194 22T187 47T184 79T179 112T164 137T135 147Q121 147 107 142T79 131T53 120T32 115Q15 115 8 125T0 151Q0 164 19 177T64 201T115 219T153 226Q176 226 191 215T216 192T235 168T252 157Q258 157 266 164T285 180T312 196T349 203Q365 203 377 193T399 167T416 134T427 105Q429 98 434 83T444 51T452 19T456 -2Z"  />
<glyph unicode="o" horiz-adv-x="373" d="M332 167Q332 127 321 92T288 31T234 -10T159 -25Q111 -25 83 2T54 78Q54 108 66 139T100 196T150 237T211 253Q222 253 228 249T241 245Q249 245 256 248T272 251Q290 251 301 244T320 224T329 197T332 167ZM209 144Q209 153 201 157T185 162Q175 162 166 155T151 138T141 116T137 96V82Q137 52 171 52Q177 52 187 53T198 64Q198 69 196 74T194 84Q194 101 201 116T209 144Z"  />
<glyph unicode="p" horiz-adv-x="399" d="M371 129Q371 105 364 79T342 29T307 -9T258 -24Q226 -24 207 -16T176 -8Q172 -8 170 -13T167 -26T166 -41T166 -51Q166 -75 168 -99T170 -147Q170 -156 166 -166T156 -186T140 -200T121 -206Q108 -206 101 -196T89 -172T83 -144T81 -121Q81 -104 80 -72T76 -6T69 59T61 105Q56 122 56 135Q56 170 89 185Q125 202 157 213T232 225Q256 225 281 222T326 208T358 178T371 129ZM299 113Q299 138 288 144T255 151Q244 151 226 151T191 146T162 132T150 107Q150 89 156 78T174 61T200 52T230 50Q262 50 280 64T299 113Z"  />
<glyph unicode="q" horiz-adv-x="448" d="M451 -88Q451 -112 439 -139T406 -188T360 -226T310 -241Q283 -241 265 -232T237 -208T222 -173T217 -128Q217 -92 221 -57T225 14Q225 22 220 22Q215 22 211 20T203 15Q188 8 166 6T127 3Q104 3 89 11T65 32T52 64T48 103Q48 146 64 173T115 222Q136 234 166 246T221 259Q239 259 256 254T287 238T309 212T318 176Q318 156 311 138T304 113Q304 109 308 109Q330 91 342 68T375 25Q387 14 400 2T425 -24T443 -54T451 -88ZM240 166Q240 179 235 187T215 196Q205 196 193 194T169 185T150 171T142 150Q142 142 146 139T150 127Q150 118 146 112T135 100T125 91T120 81Q120 73 126 70T139 67Q146 67 155 70T174 79T192 89T207 99Q223 108 231 128T240 166ZM367 -98Q367 -89 361 -76T345 -50T324 -29T304 -20Q299 -20 300 -29T301 -42Q301 -48 299 -50T295 -55T290 -63T288 -78Q288 -87 288 -101T292 -130T301 -154T319 -164Q329 -164 338 -157T353 -140T363 -118T367 -98Z"  />
<glyph unicode="r" horiz-adv-x="293" d="M273 227Q273 223 261 215T232 198T202 180T184 165Q172 148 167 134T159 104T157 73T158 38Q158 15 150 1T117 -13Q97 -13 88 4T78 38Q78 55 83 71T88 104Q88 138 80 154T62 179T44 196T35 223Q35 248 63 248Q80 248 84 243T99 224Q103 219 106 209T118 199Q127 199 139 210T166 234T197 258T231 269Q237 269 244 265T257 255T268 242T273 227Z"  />
<glyph unicode="s" horiz-adv-x="363" d="M312 240Q312 212 300 198T272 175T244 162T231 150Q231 146 240 141T260 128T281 109T290 79Q290 59 274 38T234 -2T185 -32T141 -44Q129 -44 114 -39T85 -24T62 -3T52 23Q52 38 61 42T82 47Q99 47 116 40T151 33Q155 33 164 36T184 43T201 52T209 61Q209 67 199 71T175 79T148 86T129 93Q119 99 108 109T88 131T74 157T68 182Q68 201 85 218T127 250T177 272T219 281Q229 281 244 280T275 275T301 263T312 240Z"  />
<glyph unicode="t" horiz-adv-x="498" d="M482 200Q482 182 468 174T431 162T383 157T335 152T298 140T283 113Q283 87 300 70T343 53Q363 53 381 62T419 71Q435 71 446 63T458 37Q458 27 444 17T410 -1T373 -15T345 -20Q319 -20 292 -12T246 16Q235 28 229 46T219 81T209 110T192 122Q185 122 165 121T123 117T81 112T56 107Q50 105 46 105Q33 105 24 117T14 143Q14 159 29 166T67 175T117 177T167 181T206 195T223 227Q223 233 223 238T222 249Q222 256 223 267T228 289T238 307T254 315Q268 315 283 303T299 275Q299 264 291 252T283 227Q283 220 287 217T298 211T310 209T322 208Q351 208 381 211T441 214Q444 214 451 214T465 213T477 209T482 200Z"  />
<glyph unicode="u" horiz-adv-x="583" d="M585 26Q585 15 563 9T513 0T458 -5T424 -6Q394 -6 378 5T354 28T340 52T325 63Q316 63 305 52T276 28T232 3T166 -8Q147 -8 129 -5T96 7T72 30T63 68Q63 78 63 98T62 139T58 179T51 206Q46 216 46 224Q46 238 55 245T79 252Q100 252 109 238T121 203T125 157T126 111T136 76T162 62Q190 62 215 71T258 96T288 137T299 190Q299 199 297 208T295 226Q295 237 302 243T319 250Q339 250 348 226T367 170T388 112T424 77Q435 74 453 74T490 73T525 72T549 66Q553 63 559 59T571 49T581 37T585 26Z"  />
<glyph unicode="v" horiz-adv-x="356" d="M327 218Q327 201 325 179T318 133T308 87T295 50Q289 37 279 19T256 -15T228 -43T196 -55Q173 -55 157 -44T129 -16T107 21T91 58Q87 66 77 89T55 140T35 190T26 222Q26 236 37 245T61 254Q73 254 85 239T108 199T130 148T151 97T172 58T192 42Q205 42 217 59T237 100T250 145T255 179Q255 194 250 208T244 239Q244 259 252 272T283 286Q295 286 303 279T317 262T325 239T327 218Z"  />
<glyph unicode="w" horiz-adv-x="578" d="M543 173Q543 160 541 142T535 104T526 68T513 39Q496 14 470 4T414 -6Q389 -6 362 -4T317 20Q313 24 308 33T296 50T282 64T269 71Q261 71 248 62T216 43T174 23T122 14Q94 14 78 32T54 76T43 130T41 179Q41 186 41 197T45 218T54 235T71 242Q86 242 100 236T115 211Q115 194 111 176T106 140Q106 117 120 103T158 88Q183 88 198 101T227 131T252 162T281 176Q300 176 311 160T335 123T364 86T410 69Q433 69 450 88T467 130Q467 142 463 154T459 180Q459 198 469 205T497 212Q522 212 532 205T543 173Z"  />
<glyph unicode="x" d="M418 11Q418 -2 410 -18T386 -34Q383 -34 377 -28T364 -13T351 3T340 14Q335 18 324 29T299 51T274 71T257 80Q245 80 236 64T217 28T197 -8T172 -24Q162 -24 157 -20T150 -10T147 5T146 20Q146 38 152 52T167 77T182 100T189 126Q189 144 174 159Q168 164 158 173T137 192T114 207T94 214Q83 214 74 208T54 201Q32 201 24 217T15 252Q15 261 19 266T30 273T44 275T59 276Q72 278 82 286T104 294Q128 294 148 281T186 252T216 223T239 209Q252 209 264 217T287 235T311 253T337 262Q344 262 352 259T361 248Q361 237 351 226T329 204T307 181T297 157Q297 149 305 141T325 124T347 108T364 95Q370 89 379 79T397 56T412 32T418 11Z"  />
<glyph unicode="y" horiz-adv-x="455" d="M398 -52Q398 -117 370 -149T273 -181Q260 -181 241 -181T203 -176T173 -161T160 -132Q160 -113 174 -104T207 -92T246 -90T278 -91Q301 -91 314 -84T327 -50Q327 -44 325 -23T317 22T306 64T291 82Q280 82 267 72T236 51T198 29T150 19Q120 19 101 34T72 71T59 121T55 172Q55 183 55 200T60 232T73 259T99 271Q114 271 125 261T136 235Q136 217 132 198T128 160Q128 153 129 142T133 120T143 102T159 94Q170 94 182 100T204 112Q234 132 253 153T287 207Q295 225 301 238T331 251Q346 251 353 243T364 223T367 198T366 174Q366 145 371 117T382 62T393 6T398 -52Z"  />
<glyph unicode="z" horiz-adv-x="557" d="M546 29Q546 4 531 -2T494 -8Q472 -8 453 1T407 10Q372 10 338 1T268 -8Q251 -8 226 -4T177 9T136 34T119 71Q119 96 132 114T162 144T192 165T206 182Q206 185 204 185T199 186Q181 186 163 181T128 170T94 159T60 154Q47 154 31 163T14 188Q14 197 31 207T71 225T113 238T141 246Q147 247 168 248T212 252T254 255T274 258Q281 263 286 266T302 270Q319 270 333 264T347 238Q347 212 335 198T302 170Q296 167 282 156T252 132T226 107T214 87Q214 80 223 77T245 72T268 70T284 69Q320 69 355 73T427 77Q437 77 456 75T496 67T531 52T546 29Z"  />
<glyph unicode="{" horiz-adv-x="390" d="M380 585Q380 563 371 555T340 546Q322 546 304 554T265 563Q246 563 230 554T202 531T183 498T176 462Q176 439 182 419T195 382T208 351T214 323Q214 312 210 303T205 284Q205 272 215 264T237 245T259 220T269 181Q269 152 258 130T235 85T211 38T200 -18Q200 -45 209 -61T232 -88T262 -105T292 -118T315 -135T325 -161Q325 -180 312 -189T281 -198Q240 -198 209 -184T156 -146T125 -88T114 -14Q114 18 124 42T145 86T167 125T177 164Q177 176 171 181T156 188T137 189T119 188Q104 188 88 189T58 197T36 214T27 244Q27 256 33 265T49 281T70 290T92 294Q106 294 114 298T122 318Q122 331 118 347T108 380T99 417T94 458Q94 481 98 502T116 544Q132 568 146 585T176 614T214 630T269 635Q280 635 299 633T336 626T367 611T380 585Z"  />
<glyph unicode="|" horiz-adv-x="200" d="M165 456Q165 449 162 441T154 425T146 407T141 387Q138 361 134 331T126 270T120 210T117 155Q117 134 122 115T133 81T144 54T149 36Q149 23 139 18T117 12Q85 12 66 35T46 90Q46 147 51 204T61 318Q64 350 66 385T77 452Q83 473 93 488T129 504Q145 504 155 487T165 456Z"  />
<glyph unicode="}" horiz-adv-x="383" d="M353 529Q353 500 341 473T309 420T267 370T226 323T194 279T181 239Q181 220 191 210T215 196T247 190T279 187T304 178T314 158Q314 133 304 125T283 113T261 109T251 96Q251 85 258 69T274 32T290 -11T298 -59Q298 -78 293 -95T278 -130Q251 -176 216 -193T127 -211Q112 -211 92 -211T54 -208T24 -194T12 -161Q12 -147 18 -139T39 -130Q60 -130 80 -133T121 -137Q162 -137 186 -116T210 -52Q210 -26 200 -2T171 41Q158 54 153 67T146 94T140 121T127 146Q110 168 105 192T99 243Q99 266 112 291T144 342T186 393T228 439T261 478T274 505Q274 517 267 526T249 540T226 548T204 551H64Q50 551 39 561T28 585Q28 600 34 609T51 623T74 630T99 632Q137 632 174 625T250 618Q293 618 323 597T353 529Z"  />
<glyph unicode="~" horiz-adv-x="623" d="M606 417Q606 396 602 385T577 365Q563 360 551 351T527 333T502 314T473 301Q437 292 398 278T321 264Q297 264 276 279T255 321Q255 333 262 345T269 371Q269 381 261 381Q252 381 237 373T204 351T165 323T125 294T88 273T59 264Q21 264 21 299Q21 311 37 326T74 356T117 383T148 401Q162 408 182 421T225 447T268 469T305 478Q317 478 325 472T339 457T347 436T350 415Q350 401 344 387T338 359Q338 342 355 342Q373 342 397 348T445 366T489 392T519 422Q527 436 536 450T565 464Q585 464 595 450T606 417Z"  />
<glyph unicode="&#xA0;" horiz-adv-x="239" />
<glyph unicode="&#xA1;" horiz-adv-x="211" d="M154 288Q154 237 104 237Q82 237 74 244T66 275Q66 284 71 299T84 329T103 355T123 366Q135 366 141 357T150 335T153 309T154 288ZM138 57Q138 49 137 45Q131 7 131 -34T132 -113Q132 -135 133 -156T135 -200Q135 -218 125 -225T98 -232Q74 -232 66 -223T58 -189Q58 -126 59 -65T60 60Q60 69 61 80T66 100T77 117T96 124Q106 124 114 117T127 99T135 77T138 57Z"  />
<glyph unicode="&#xA2;" horiz-adv-x="479" d="M465 50Q465 45 463 40T459 29Q457 20 448 16T427 10T403 8T384 9Q374 9 360 9T327 11Q335 -12 341 -29T348 -55Q348 -72 336 -79T312 -86Q275 -86 253 -57T231 14V16Q186 21 148 28T94 47Q69 67 56 100T42 164Q42 226 73 268T156 341Q182 356 206 369T255 391Q258 438 267 480Q274 507 286 526T325 546Q335 546 342 540T355 525T363 505T366 485Q366 469 356 450T341 408H354Q364 408 379 408T407 403T431 392T441 369Q441 359 437 354T425 347T411 345T396 345Q382 345 370 348T344 352Q337 352 334 351Q326 289 319 221T312 98Q312 93 312 89T313 81Q323 81 348 81T399 80T445 71T465 50ZM250 323Q218 309 187 292T146 261Q129 237 121 213T112 158Q112 130 120 114T142 91T177 82T221 80L233 81Q235 138 239 194T249 308L250 323Z"  />
<glyph unicode="&#xA3;" horiz-adv-x="496" d="M465 33Q465 6 447 -5T402 -20T348 -23T299 -24Q260 -28 228 -36T175 -45Q167 -45 147 -46T105 -50T63 -55T38 -60Q32 -62 29 -62Q15 -62 6 -50T-4 -24Q-4 -8 11 -1T50 8T100 10T150 14T188 28T205 60V69L204 74L185 146Q150 140 120 140Q111 140 97 142T68 150T44 162T34 181Q34 194 43 201T66 211T93 214T116 215Q129 215 142 215T168 216Q157 267 148 311T138 373Q138 403 152 428T189 471T240 500T295 510Q326 510 348 499T386 471T414 431T440 385Q444 378 448 370T452 353Q452 343 446 339T432 330Q422 325 407 318T381 311Q374 311 366 315T351 326T340 340T335 355Q335 360 338 363T345 369T352 376T355 386Q355 397 348 406T330 421T307 431T285 435Q271 435 258 430T233 416T215 395T208 368Q208 347 216 307T236 222Q247 223 258 224T280 228Q298 232 321 239T362 247Q373 247 390 242T422 227T449 206T461 181Q461 164 446 159T417 153Q392 153 368 158T318 163Q303 163 287 162T254 158Q260 135 265 117T275 86Q277 78 279 70T281 53Q281 46 280 44Q286 42 292 42T304 41Q334 41 363 44T423 47Q426 47 433 47T447 46T459 42T465 33Z"  />
<glyph unicode="&#xA4;" horiz-adv-x="506" d="M253 222Q310 222 341 262T372 365Q372 395 364 421T341 467T304 498T253 509Q224 509 202 498T165 468T141 422T133 365Q133 334 141 308T164 263T202 233T253 222ZM19 168L88 239Q50 294 50 365Q50 436 88 489L19 560L64 603L131 534Q155 552 185 563T253 574Q289 574 320 563T375 534L442 603L487 560L418 489Q455 435 455 365Q455 330 445 298T417 240L487 168L442 125L374 194Q325 157 253 157Q181 157 132 194L64 125L19 168Z"  />
<glyph unicode="&#xA5;" horiz-adv-x="509" d="M494 423Q494 408 483 389T456 352T424 318T395 296Q386 291 361 281T311 259Q339 260 366 260T422 261Q436 261 446 250T456 225Q456 207 443 200T414 193Q376 193 339 193T264 194H242Q237 180 234 164T228 136L253 140Q271 144 294 151T336 158Q347 158 364 153T396 139T423 118T435 93Q435 76 420 71T390 65Q365 65 341 70T292 75Q279 75 266 74T238 71Q242 67 246 65T253 59T259 48T262 28Q262 14 246 6T218 -2Q193 -2 180 16T161 58Q143 55 126 53T93 51Q85 51 71 53T42 61T18 74T8 93Q8 106 17 113T39 123T66 126T89 127Q106 127 123 127T157 129Q160 145 165 161T170 194Q140 193 114 191T81 185Q63 176 44 176Q25 176 11 185T-4 215Q-4 225 3 231T22 242T46 247T67 250Q49 267 39 289T28 337Q28 350 30 369T38 405T55 434T84 447Q95 447 109 440T123 419Q123 413 118 406T107 390T96 375T91 361Q91 321 117 308T179 294Q202 294 241 303T317 330T382 371T409 425Q409 442 420 453T449 464Q455 464 463 460T477 450T489 437T494 423Z"  />
<glyph unicode="&#xA6;" horiz-adv-x="192" d="M157 490Q157 486 156 471T152 434T145 390T137 347T128 315T118 302Q94 302 84 317T73 355Q73 367 74 393T78 447T90 495T112 516Q118 516 126 515T140 511T152 503T157 490ZM145 179Q145 168 144 147T140 102T135 58T129 28Q124 14 118 8T96 2Q76 2 64 19T52 54Q52 68 55 81T60 109Q66 146 66 185Q66 203 76 210T104 218Q125 218 135 210T145 179Z"  />
<glyph unicode="&#xA7;" horiz-adv-x="380" d="M329 128Q329 96 313 69T277 28Q299 14 313 -4T327 -48Q327 -82 308 -109T267 -151Q259 -157 244 -164T213 -179T181 -192T157 -197Q148 -197 138 -190T118 -173T103 -149T97 -123Q97 -110 106 -102T124 -94Q129 -94 135 -97T149 -105T163 -113T178 -117Q184 -117 199 -111T231 -94T259 -73T271 -52Q271 -38 255 -28T213 -8Q185 -21 170 -21Q159 -21 148 -16T128 -4T114 13T110 31Q79 45 57 66T35 119Q35 154 56 178T107 217Q84 231 70 249T56 294Q56 325 72 347T112 385T160 407T202 415Q212 415 225 409T251 391T271 365T279 334Q279 324 276 312T266 290T253 272T237 265Q232 265 229 268T225 280Q225 290 227 299T230 319Q230 339 221 345T199 352Q192 352 178 348T149 337T123 320T112 296Q112 288 120 281T142 267T174 254T212 239Q238 237 247 232T255 220Q286 204 307 182T329 128ZM278 124Q278 141 254 153T195 178Q189 176 188 176Q181 176 166 172T134 161T106 144T94 121Q94 112 103 105T128 91T164 77T205 62Q215 66 227 73T251 89T270 107T278 124Z"  />
<glyph unicode="&#xA8;" horiz-adv-x="315" d="M276 373Q276 356 265 343T235 330Q220 330 210 336T193 353T184 375T181 401Q181 411 183 422T190 443T203 458T225 464Q239 464 248 449T257 421Q257 414 260 410T266 400T273 389T276 373ZM118 434Q118 424 118 404T113 365T102 330T79 315Q64 315 56 325T44 351T39 382T38 409Q38 419 39 430T46 452T59 468T81 474Q99 474 108 463T118 434Z"  />
<glyph unicode="&#xA9;" horiz-adv-x="656" d="M619 299Q619 236 603 190T567 113Q565 107 561 104Q550 87 541 77T526 62Q521 57 512 50T490 37T464 25T436 20Q431 20 425 12Q412 -3 381 -13T313 -29T242 -37T189 -39Q160 -39 133 -35T84 -18T50 22T37 91Q37 132 49 173T82 251T127 320T178 378Q207 405 236 429T296 471T361 499T433 510Q470 510 504 495T563 452T604 385T619 299ZM554 298Q554 310 552 332T543 376T528 415T506 437Q486 443 469 444T432 442T390 431T341 414Q337 412 334 411T328 408Q298 390 261 358T190 286T135 199T112 106Q112 66 123 49T165 31Q213 31 261 40T356 66Q373 72 388 79T419 94Q392 93 366 93T312 92Q293 92 272 94T232 104T203 126T191 166Q191 204 210 240T259 304T326 349T401 366Q418 366 435 362T467 350T491 327T500 293Q500 273 487 254T452 235Q427 235 420 243T410 260T404 277T381 285Q366 285 346 276T307 252T277 220T264 186Q264 172 281 166T321 158T365 157T395 158Q399 158 410 158T435 158T467 157T500 155Q512 170 521 189T538 227T550 264T554 298Z"  />
<glyph unicode="&#xAA;" horiz-adv-x="450" d="M447 138Q447 121 432 116T403 110Q378 110 354 115T304 120Q280 120 255 116T203 108T152 100T106 96Q97 96 83 98T54 106T30 119T20 138Q20 151 29 158T52 168T79 171T102 172Q144 172 184 174T266 185Q277 187 289 190T315 198Q311 200 305 206Q303 208 298 215T287 231T277 245T271 252Q269 252 259 243T244 232Q225 221 203 218T158 214Q110 214 80 237T49 312Q49 325 54 346T67 388T86 426T112 448Q129 455 144 462T175 476T207 487T243 492Q260 492 281 485T313 464Q332 459 347 451T363 420Q363 394 357 369T350 317Q350 289 357 275T374 254T397 245T419 241T437 232T444 211Q444 198 436 191T417 179Q430 170 438 160T447 138ZM265 339Q265 348 262 352T249 357Q241 357 231 349T208 341Q200 341 192 347T183 362Q183 369 191 374T208 386T225 398T233 412Q233 416 229 417T222 419Q207 419 190 409T158 384T134 352T124 319Q124 301 136 294T166 286Q175 286 192 289T225 299T253 316T265 339Z"  />
<glyph unicode="&#xAB;" horiz-adv-x="614" d="M583 61Q583 50 572 40T551 30Q539 30 526 39T500 53Q480 60 464 70T432 89T397 105T356 113Q346 114 331 114T303 118T280 128T270 151Q270 160 276 168T292 184T312 196T329 207Q359 226 388 247T444 291Q451 296 464 307T493 331T521 352T543 361Q553 361 559 357T568 347T573 335T574 324Q574 318 561 306T531 279T498 253T476 237Q450 217 428 200T395 173Q414 169 428 166T454 158T479 146T510 127Q522 119 534 112T559 98Q570 93 576 84T583 61ZM330 288Q330 274 322 265T305 248Q276 225 245 204T185 158Q183 156 175 151T159 138L156 136Q176 128 190 113T222 90Q239 84 255 81T289 73Q314 66 314 40Q314 30 307 15T284 0Q271 0 261 5T238 10Q221 10 210 20T185 38Q171 46 158 55T128 69Q113 74 100 82T73 94Q64 96 55 101T46 121Q46 123 46 124T47 128Q47 135 52 141T65 153T81 162T94 169Q118 181 138 199T181 234Q189 240 205 254T240 282T274 308T299 320Q313 320 321 311T330 288Z"  />
<glyph unicode="&#xAD;" horiz-adv-x="339" d="M318 209Q318 187 306 185T274 182Q231 182 189 171T103 160Q95 160 84 160T63 164T47 173T40 192Q40 201 45 210T59 227T78 240T98 245Q139 245 179 250T262 255Q271 255 280 252T298 242T312 228T318 209Z"  />
<glyph unicode="&#xAE;" horiz-adv-x="393" d="M336 425Q336 397 333 364T315 304Q322 293 322 284Q322 272 315 269T300 266Q293 266 287 269Q273 255 261 245T234 228T203 218T164 214Q110 214 80 245T49 331Q49 384 68 421T122 495Q132 506 145 519T174 543T205 563T237 571Q250 571 266 564T296 546T320 522T333 495Q335 478 335 460T336 425ZM214 318Q209 321 201 327T185 343V326Q185 321 184 314T181 300T174 289T162 284Q152 284 145 289T137 308Q137 313 138 315Q140 329 140 343T140 371Q140 382 140 393T138 416Q136 426 136 431V434Q119 406 109 376T99 325Q99 303 108 292T132 276T163 271T198 271Q224 271 245 300L214 318ZM290 446Q290 480 278 495T231 510Q208 510 187 494T147 452Q151 453 161 453L162 455Q176 472 196 476T236 481Q243 481 251 480T268 475T281 464T287 443Q287 419 275 406T249 384L221 370L232 363Q238 358 247 353T268 342Q279 370 284 399T290 446ZM244 439Q240 439 234 438T220 435T208 431T200 428Q191 423 190 412Q188 404 188 398Q195 405 205 410T223 419T238 428T244 438V439Z"  />
<glyph unicode="&#xAF;" horiz-adv-x="339" d="M305 407Q305 397 300 388T286 371T267 358T248 353Q206 353 166 348T83 343Q74 343 65 346T47 356T34 371T28 389Q28 411 40 414T71 417Q114 417 156 428T242 439Q251 439 261 439T282 435T298 426T305 407Z"  />
<glyph unicode="&#xB0;" horiz-adv-x="359" d="M326 377Q326 349 309 332T268 305T217 292T169 289Q150 289 129 294T91 309T62 336T50 375Q50 392 57 408T75 439T99 465T127 486Q137 492 152 501T182 520T214 536T242 543Q249 543 259 540T278 530T293 516T300 499Q300 493 292 486T283 468Q283 459 289 451T304 432T319 409T326 377ZM250 373Q250 385 242 397T230 420Q229 423 229 429T227 442T222 453T214 458Q206 458 191 449T161 426T135 399T123 377Q123 369 130 366T146 360T164 358T178 358Q184 358 196 358T220 358T241 362T250 373Z"  />
<glyph unicode="&#xB2;" horiz-adv-x="298" d="M290 319Q290 313 286 308T275 298T262 292T251 289Q244 289 238 292T225 296Q212 298 200 301T175 305Q163 305 152 302T128 298Q122 298 113 300T96 308T82 320T76 339Q76 351 84 364T104 391T124 419T137 447H135Q121 446 105 444T78 435Q74 433 69 431T57 428Q49 428 44 431T36 440T32 450T31 460Q31 479 44 488T69 500Q90 505 112 509T157 513Q177 513 190 499T203 464Q203 438 193 414T168 368H177Q186 368 200 368T230 364T258 356T278 343Q282 338 286 332T290 319Z"  />
<glyph unicode="&#xB3;" horiz-adv-x="268" d="M220 362Q220 345 209 329T181 300T147 279T116 271Q110 271 101 273T84 280T69 294T63 314Q63 332 76 336T106 342T135 345T149 359Q149 362 144 359T131 356Q119 358 109 358T94 358Q79 358 66 369L61 374Q55 379 51 385T46 400Q46 411 59 421T82 437Q68 435 54 433T29 426Q25 424 22 423T13 422Q-4 422 -10 434T-16 454Q-16 465 1 473T40 487T82 496T110 499Q119 499 129 498T149 492T164 480T170 461Q170 448 165 438T154 421Q166 419 177 415T198 404T214 387T220 362Z"  />
<glyph unicode="&#xB4;" horiz-adv-x="328" d="M257 417Q257 410 246 398T221 373T193 348T172 328Q161 316 151 302T130 274T108 253T83 244Q67 244 53 252T39 278Q39 286 47 297T67 319T91 340T112 358L161 403Q175 417 190 433T225 449Q257 449 257 417Z"  />
<glyph unicode="&#xB6;" horiz-adv-x="461" d="M400 36Q400 20 395 13T372 5Q355 5 345 12T331 30T325 54T324 82Q324 112 325 142T329 202Q324 202 321 202T313 203Q302 203 292 203T271 202Q273 174 276 151T284 117Q287 110 291 100T300 78T307 55T310 36Q310 22 295 11T266 0Q251 0 241 13T224 44T214 80T211 109Q211 154 208 201Q191 200 173 200T138 200Q119 200 98 202T58 211T28 233T16 273Q16 311 35 347T84 411T152 457T227 474Q258 474 287 461T324 415Q326 427 332 437T350 447Q363 447 378 439T393 416Q393 353 396 292T400 169V36ZM207 392Q192 392 172 383T133 359T103 327T90 293Q90 281 103 275T134 267T171 264T205 265Q204 282 204 300T203 335Q203 346 205 362T215 392H207ZM330 262Q328 291 326 321T322 380Q317 365 306 354T278 343H266V337Q266 326 266 307T268 265Q298 265 330 262Z"  />
<glyph unicode="&#xB7;" horiz-adv-x="228" d="M160 156Q160 150 156 142T144 128T129 116T115 111Q92 111 82 129T71 166Q71 173 73 183T79 204T91 220T107 226Q132 224 146 206T160 156Z"  />
<glyph unicode="&#xB8;" horiz-adv-x="256" d="M20 49Q33 80 48 87T75 87T90 62T82 25Q81 24 77 16T67 -3T58 -24T54 -39Q54 -42 61 -42T78 -41T101 -37T122 -35Q139 -35 162 -40T206 -58T241 -88T256 -133Q256 -166 244 -190T210 -231T162 -256T104 -264Q90 -264 74 -260T45 -247T22 -227T12 -198Q12 -187 21 -175T42 -163Q52 -163 59 -168T74 -179T89 -191T110 -196Q139 -196 159 -184T179 -146Q179 -129 161 -116T113 -102Q103 -102 94 -102T74 -103Q53 -103 36 -112T-3 -121Q-21 -121 -35 -115T-49 -87Q-49 -82 -39 -63T-17 -22T6 21T20 49Z"  />
<glyph unicode="&#xB9;" horiz-adv-x="234" d="M164 346Q164 342 161 334T153 318T139 303T121 297Q101 297 97 310T94 339Q94 343 94 346T95 351Q95 359 93 376T88 412T81 447T72 468Q68 473 66 478T63 490Q63 497 68 504T87 512Q107 512 115 505T130 482Q134 471 140 453T151 415T160 376T164 346Z"  />
<glyph unicode="&#xBA;" horiz-adv-x="373" d="M332 397Q332 357 321 322T288 261T234 220T159 205Q111 205 83 232T54 308Q54 338 66 369T100 425T149 466T211 482Q222 482 228 478T241 474Q249 474 256 477T272 480Q290 480 301 473T320 454T329 427T332 397ZM366 155Q366 126 355 116T331 105Q317 105 303 111T273 118Q264 118 255 115Q235 110 214 109T172 106Q144 104 116 103T60 101Q53 101 45 107T37 131Q37 148 46 163T64 179Q82 179 100 178T138 177Q187 177 235 188T333 199Q344 199 355 190T366 155ZM209 374Q209 383 201 387T185 391Q175 391 166 384T151 367T141 346T137 326V312Q137 295 146 289T171 282Q177 282 187 283T198 294Q198 299 196 304T194 314Q194 331 201 346T209 374Z"  />
<glyph unicode="&#xBB;" horiz-adv-x="614" d="M360 210Q360 201 353 193T337 177T317 165T300 155Q271 135 242 114T185 71Q178 65 165 54T136 30T107 9T86 0Q76 0 70 4T61 15T56 27T55 38Q55 44 68 56T98 82T131 107T153 124Q179 144 201 161T234 188Q215 192 201 195T175 203T150 215T119 234Q107 242 95 249T70 263Q59 268 53 277T46 300Q46 312 57 321T78 331Q90 331 103 322T129 308Q148 301 164 291T197 272T232 256T273 248Q283 248 298 248T326 244T350 233T360 210ZM583 240Q583 238 583 237T582 233Q582 226 577 220T564 209T549 200T536 193Q511 180 491 163T448 128Q440 122 424 108T389 79T355 53T331 42Q317 42 308 50T299 73Q299 87 307 96T324 113Q353 136 384 158T444 204L471 223L474 225Q454 233 440 248T407 271Q390 277 374 280T340 288Q326 292 321 299T316 321Q316 331 322 346T346 361Q358 361 369 356T391 351Q408 351 419 341T444 323Q458 315 471 306T501 292Q516 288 529 280T556 267Q565 265 574 260T583 240Z"  />
<glyph unicode="&#xBC;" horiz-adv-x="526" d="M164 346Q164 342 161 334T153 318T139 303T121 297Q101 297 97 310T94 339Q94 343 94 346T95 351Q95 359 93 376T88 412T81 447T72 468Q68 473 66 478T63 490Q63 497 68 504T87 512Q107 512 115 505T130 482Q134 471 140 453T151 415T160 376T164 346ZM403 476Q403 463 396 452T381 430Q350 384 324 335T268 238Q247 203 225 170T180 101Q169 84 158 67T133 32Q125 22 113 13T88 3Q74 3 64 15T54 41Q54 57 66 72Q101 122 136 169T205 268Q217 286 235 314T273 374T307 434T329 482Q334 497 343 502T369 508Q381 508 392 498T403 476ZM516 132Q516 126 511 120T498 109T482 100T468 95Q459 92 453 92Q451 90 452 88T453 78Q453 61 452 45T451 12Q451 0 437 -13T410 -27Q400 -27 392 -22T377 -10T368 6T365 21Q365 33 367 44T370 68Q370 70 373 74T373 78Q353 78 334 76T295 74Q275 74 256 85T236 117Q236 129 244 139T264 159T288 175T308 189Q315 195 324 203T342 220T360 233T380 239Q393 239 403 231T421 211T434 186T442 164Q444 159 447 159Q452 159 458 160T469 161Q476 161 484 161T500 157T511 148T516 132ZM378 141Q378 146 376 153T368 161Q365 161 359 157T346 148T334 138T328 132Q328 130 331 130T336 131Q341 130 345 130T352 130Q361 130 369 131T378 141Z"  />
<glyph unicode="&#xBD;" horiz-adv-x="526" d="M164 346Q164 342 161 334T153 318T139 303T121 297Q101 297 97 310T94 339Q94 343 94 346T95 351Q95 359 93 376T88 412T81 447T72 468Q68 473 66 478T63 490Q63 497 68 504T87 512Q107 512 115 505T130 482Q134 471 140 453T151 415T160 376T164 346ZM403 476Q403 463 396 452T381 430Q350 384 324 335T268 238Q247 203 225 170T180 101Q169 84 158 67T133 32Q125 22 113 13T88 3Q74 3 64 15T54 41Q54 57 66 72Q101 122 136 169T205 268Q217 286 235 314T273 374T307 434T329 482Q334 497 343 502T369 508Q381 508 392 498T403 476ZM496 16Q496 10 492 5T481 -5T469 -11T458 -14Q450 -14 445 -11T432 -7Q419 -5 407 -1T382 3Q370 3 359 -1T335 -5Q329 -5 320 -3T302 5T288 17T282 36Q282 48 290 61T310 88T331 116T344 144H342Q328 144 312 142T285 132Q280 130 275 128T264 125Q256 125 251 128T242 137T238 148T237 157Q237 176 251 185T276 197Q297 202 319 206T364 210Q384 210 397 196T410 161Q410 136 399 111T375 65L384 66Q393 66 407 65T437 62T465 54T484 41Q489 36 492 30T496 16Z"  />
<glyph unicode="&#xBE;" horiz-adv-x="526" d="M220 362Q220 345 209 329T181 300T147 279T116 271Q110 271 101 273T84 280T69 294T63 314Q63 332 76 336T106 342T135 345T149 359Q149 362 144 359T131 356Q119 358 109 358T94 358Q79 358 66 369L61 374Q55 379 51 385T46 400Q46 411 59 421T82 437Q68 435 54 433T29 426Q25 424 22 423T13 422Q-4 422 -10 434T-16 454Q-16 465 1 473T40 487T82 496T110 499Q119 499 129 498T149 492T164 480T170 461Q170 448 165 438T154 421Q166 419 177 415T198 404T214 387T220 362ZM403 476Q403 463 396 452T381 430Q350 384 324 335T268 238Q247 203 225 170T180 101Q169 84 158 67T133 32Q125 22 113 13T88 3Q74 3 64 15T54 41Q54 57 66 72Q101 122 136 169T205 268Q217 286 235 314T273 374T307 434T329 482Q334 497 343 502T369 508Q381 508 392 498T403 476ZM516 132Q516 126 511 120T498 109T482 100T468 95Q459 92 453 92Q451 90 452 88T453 78Q453 61 452 45T451 12Q451 0 437 -13T410 -27Q400 -27 392 -22T377 -10T368 6T365 21Q365 33 367 44T370 68Q370 70 373 74T373 78Q353 78 334 76T295 74Q275 74 256 85T236 117Q236 129 244 139T264 159T288 175T308 189Q315 195 324 203T342 220T360 233T380 239Q393 239 403 231T421 211T434 186T442 164Q444 159 447 159Q452 159 458 160T469 161Q476 161 484 161T500 157T511 148T516 132ZM378 141Q378 146 376 153T368 161Q365 161 359 157T346 148T334 138T328 132Q328 130 331 130T336 131Q341 130 345 130T352 130Q361 130 369 131T378 141Z"  />
<glyph unicode="&#xBF;" horiz-adv-x="400" d="M308 323Q308 318 305 311T296 297T284 286T273 281Q250 281 237 294T223 331Q223 350 236 361T269 372Q289 372 298 356T308 323ZM379 -79Q379 -96 374 -108T358 -129T336 -146T310 -162Q291 -174 272 -186T231 -207T189 -223T144 -230Q123 -230 102 -225T64 -208T36 -179T25 -137Q25 -101 39 -71T74 -13T121 36T167 79T203 116T217 149Q217 169 229 179T261 190Q269 190 275 184T284 170T290 153T292 137Q292 120 278 100T243 57T198 13T153 -32T118 -74T104 -113Q104 -156 148 -156Q169 -156 191 -150T233 -134T272 -109T302 -77Q312 -63 323 -50T354 -36Q371 -36 375 -50T379 -79Z"  />
<glyph unicode="&#xC0;" horiz-adv-x="461" d="M475 137Q475 127 463 122T436 115T406 112T385 112Q371 112 363 107T354 87Q354 75 359 65T371 44T382 22T388 -4Q388 -19 375 -33T346 -48Q339 -48 334 -40T325 -21T319 1T317 18Q317 27 313 39T302 65T292 89T287 105Q287 110 277 112T253 115T227 116T210 117Q195 118 181 119T151 121Q138 121 124 118T106 99Q101 76 94 55T79 12Q74 -3 63 -5T37 -8Q24 -8 19 1T14 21Q14 39 30 69T67 134T106 204T130 266Q136 298 147 327T158 391Q158 395 158 405T159 426T163 444T174 452Q181 452 189 448T204 439Q240 413 269 374T309 290Q310 283 314 264T323 223T334 184T348 163Q355 160 376 159T419 157T458 151T475 137ZM278 199Q278 209 271 233T254 281T233 324T211 343Q207 343 205 334T201 314T198 291T196 276Q193 267 187 256T175 232T163 209T158 190Q158 180 169 176T196 169T226 167T247 167Q278 167 278 199ZM333 479Q333 461 323 445T292 428Q275 428 269 441T252 466Q241 477 227 489T197 515T166 540T138 563Q128 571 122 582T116 607Q116 622 126 628T150 635Q157 635 170 627T198 607T225 584T244 566Q251 560 266 549T296 526T322 501T333 479Z"  />
<glyph unicode="&#xC1;" horiz-adv-x="461" d="M475 137Q475 127 463 122T436 115T406 112T385 112Q371 112 363 107T354 87Q354 75 359 65T371 44T382 22T388 -4Q388 -19 375 -33T346 -48Q339 -48 334 -40T325 -21T319 1T317 18Q317 27 313 39T302 65T292 89T287 105Q287 110 277 112T253 115T227 116T210 117Q195 118 181 119T151 121Q138 121 124 118T106 99Q101 76 94 55T79 12Q74 -3 63 -5T37 -8Q24 -8 19 1T14 21Q14 39 30 69T67 134T106 204T130 266Q136 298 147 327T158 391Q158 395 158 405T159 426T163 444T174 452Q181 452 189 448T204 439Q240 413 269 374T309 290Q310 283 314 264T323 223T334 184T348 163Q355 160 376 159T419 157T458 151T475 137ZM278 199Q278 209 271 233T254 281T233 324T211 343Q207 343 205 334T201 314T198 291T196 276Q193 267 187 256T175 232T163 209T158 190Q158 180 169 176T196 169T226 167T247 167Q278 167 278 199ZM307 632Q307 625 296 613T271 588T243 563T222 543Q211 531 201 517T180 489T158 468T133 459Q117 459 103 467T89 493Q89 501 97 512T117 534T141 555T162 573L211 618Q225 632 240 648T275 664Q307 664 307 632Z"  />
<glyph unicode="&#xC2;" horiz-adv-x="461" d="M475 137Q475 127 463 122T436 115T406 112T385 112Q371 112 363 107T354 87Q354 75 359 65T371 44T382 22T388 -4Q388 -19 375 -33T346 -48Q339 -48 334 -40T325 -21T319 1T317 18Q317 27 313 39T302 65T292 89T287 105Q287 110 277 112T253 115T227 116T210 117Q195 118 181 119T151 121Q138 121 124 118T106 99Q101 76 94 55T79 12Q74 -3 63 -5T37 -8Q24 -8 19 1T14 21Q14 39 30 69T67 134T106 204T130 266Q136 298 147 327T158 391Q158 395 158 405T159 426T163 444T174 452Q181 452 189 448T204 439Q240 413 269 374T309 290Q310 283 314 264T323 223T334 184T348 163Q355 160 376 159T419 157T458 151T475 137ZM278 199Q278 209 271 233T254 281T233 324T211 343Q207 343 205 334T201 314T198 291T196 276Q193 267 187 256T175 232T163 209T158 190Q158 180 169 176T196 169T226 167T247 167Q278 167 278 199ZM301 480Q302 477 302 471Q302 459 292 450T262 440Q245 440 234 450T217 476T209 508T206 537L205 540L206 541Q203 540 192 527T167 498T142 466T128 447Q123 439 113 434T91 429Q81 429 72 435T62 453Q62 461 67 467T77 479Q104 502 130 532T179 589Q185 596 190 604T202 620T217 631T238 636Q251 636 256 629T262 610T265 580T271 544Q274 533 278 523T288 505T296 490T301 480Z"  />
<glyph unicode="&#xC3;" horiz-adv-x="461" d="M475 137Q475 127 463 122T436 115T406 112T385 112Q371 112 363 107T354 87Q354 75 359 65T371 44T382 22T388 -4Q388 -19 375 -33T346 -48Q339 -48 334 -40T325 -21T319 1T317 18Q317 27 313 39T302 65T292 89T287 105Q287 110 277 112T253 115T227 116T210 117Q195 118 181 119T151 121Q138 121 124 118T106 99Q101 76 94 55T79 12Q74 -3 63 -5T37 -8Q24 -8 19 1T14 21Q14 39 30 69T67 134T106 204T130 266Q136 298 147 327T158 391Q158 395 158 405T159 426T163 444T174 452Q181 452 189 448T204 439Q240 413 269 374T309 290Q310 283 314 264T323 223T334 184T348 163Q355 160 376 159T419 157T458 151T475 137ZM278 199Q278 209 271 233T254 281T233 324T211 343Q207 343 205 334T201 314T198 291T196 276Q193 267 187 256T175 232T163 209T158 190Q158 180 169 176T196 169T226 167T247 167Q278 167 278 199ZM394 558Q394 542 392 535T386 523T377 516T364 505Q353 496 345 486T323 471Q304 464 286 455T247 445Q233 445 220 458T207 494Q207 502 209 508T213 522Q204 517 194 506T174 487Q158 470 143 458T119 445Q108 445 101 453T93 479Q93 489 101 501T119 523T141 542T159 556Q166 562 176 571T198 589T219 604T239 610Q248 610 253 604T262 590T267 573T269 557Q269 547 266 538T263 520V519Q271 519 282 523T304 534T324 549T337 567Q342 579 348 590T366 601Q380 601 387 587T394 558Z"  />
<glyph unicode="&#xC4;" horiz-adv-x="461" d="M475 137Q475 127 463 122T436 115T406 112T385 112Q371 112 363 107T354 87Q354 75 359 65T371 44T382 22T388 -4Q388 -19 375 -33T346 -48Q339 -48 334 -40T325 -21T319 1T317 18Q317 27 313 39T302 65T292 89T287 105Q287 110 277 112T253 115T227 116T210 117Q195 118 181 119T151 121Q138 121 124 118T106 99Q101 76 94 55T79 12Q74 -3 63 -5T37 -8Q24 -8 19 1T14 21Q14 39 30 69T67 134T106 204T130 266Q136 298 147 327T158 391Q158 395 158 405T159 426T163 444T174 452Q181 452 189 448T204 439Q240 413 269 374T309 290Q310 283 314 264T323 223T334 184T348 163Q355 160 376 159T419 157T458 151T475 137ZM278 199Q278 209 271 233T254 281T233 324T211 343Q207 343 205 334T201 314T198 291T196 276Q193 267 187 256T175 232T163 209T158 190Q158 180 169 176T196 169T226 167T247 167Q278 167 278 199ZM300 512Q300 495 289 482T259 469Q244 469 234 475T217 492T208 514T205 540Q205 550 207 561T214 582T227 597T249 603Q263 603 272 588T281 560Q281 553 284 549T290 539T297 528T300 512ZM142 573Q142 563 142 543T137 504T126 469T103 454Q88 454 80 464T68 490T63 521T62 548Q62 558 63 569T70 591T83 607T105 613Q123 613 132 602T142 573Z"  />
<glyph unicode="&#xC5;" horiz-adv-x="461" d="M475 137Q475 127 463 122T436 115T406 112T385 112Q371 112 363 107T354 87Q354 75 359 65T371 44T382 22T388 -4Q388 -19 375 -33T346 -48Q339 -48 334 -40T325 -21T319 1T317 18Q317 27 313 39T302 65T292 89T287 105Q287 110 277 112T253 115T227 116T210 117Q195 118 181 119T151 121Q138 121 124 118T106 99Q101 76 94 55T79 12Q74 -3 63 -5T37 -8Q24 -8 19 1T14 21Q14 39 30 69T67 134T106 204T130 266Q136 298 147 327T158 391Q158 395 158 405T159 426T163 444T174 452Q181 452 189 448T204 439Q240 413 269 374T309 290Q310 283 314 264T323 223T334 184T348 163Q355 160 376 159T419 157T458 151T475 137ZM278 199Q278 209 271 233T254 281T233 324T211 343Q207 343 205 334T201 314T198 291T196 276Q193 267 187 256T175 232T163 209T158 190Q158 180 169 176T196 169T226 167T247 167Q278 167 278 199ZM307 587Q307 566 299 547T275 512T236 488T182 478Q165 478 149 483T119 497T97 517T89 540Q89 556 101 572T133 601T175 622T222 631Q230 631 234 629T243 627Q248 627 253 628T265 630Q290 630 298 616T307 587ZM217 564Q217 569 211 571T200 573Q186 573 179 566T171 550V543Q171 528 194 528Q199 528 206 528T213 534Q213 536 212 538T211 544Q211 552 214 555T217 564Z"  />
<glyph unicode="&#xC6;" horiz-adv-x="729" d="M733 373Q733 365 725 360T707 350T686 344T669 341Q629 338 590 338T510 331Q497 328 483 324T454 314T425 306T397 302Q386 302 382 296T376 280Q375 277 373 267T369 244T365 220T363 201V197Q361 190 369 190Q371 190 374 191T380 193Q403 201 427 202T477 206Q493 207 508 212T539 222T569 232T600 237Q605 237 612 236T625 231T636 222T641 210Q641 202 635 195T619 180T601 169T584 163Q558 158 531 158T477 151Q436 141 419 140T394 142T383 149T368 153Q359 153 354 145L352 137V131Q352 115 371 105T414 88T462 80T495 78Q504 78 518 78T549 79T578 85T598 97Q602 104 608 112T623 121Q631 121 638 113T650 95T658 73T661 55Q661 27 633 20Q601 12 567 6T499 0Q484 0 461 5T414 17T368 35T330 56Q332 42 335 29T330 -4Q324 -19 305 -33T271 -48Q263 -48 261 -40T259 -21T263 1T268 18Q271 27 271 39T272 65T272 89T274 105Q276 110 266 112T243 115T218 116T201 117Q187 118 173 119T145 121Q131 121 116 118T91 99Q76 76 60 55T27 12Q16 -3 4 -5T-23 -8Q-35 -8 -37 1T-34 21Q-29 33 -14 50T21 89T66 134T112 180T153 226T183 266Q202 298 225 327T262 391Q263 395 267 405T276 426T289 444T303 452Q310 452 316 448T327 439Q354 412 366 373Q371 369 378 366T397 363Q414 363 433 370T469 383Q498 391 528 394T588 397H653Q660 397 673 397T699 397T723 390T733 373ZM312 310Q310 324 306 333T296 343Q292 343 286 334T273 314T261 291T252 276Q246 267 235 256T213 232T193 209T180 190Q176 180 185 176T209 169T238 167T259 167Q284 167 296 186Q299 197 301 208T304 232Q304 242 305 264T312 310Z"  />
<glyph unicode="&#xC7;" horiz-adv-x="479" d="M465 50Q465 45 463 40T459 29Q457 20 448 16T427 10T403 8T384 9Q372 9 355 9T316 11T271 13T224 17Q222 13 221 10T218 4Q217 3 213 -5T203 -24T194 -45T190 -60Q190 -63 197 -63T214 -62T237 -58T258 -56Q275 -56 298 -61T342 -79T377 -109T392 -154Q392 -187 380 -211T346 -252T298 -277T240 -285Q226 -285 210 -281T181 -268T158 -248T148 -219Q148 -208 157 -196T178 -184Q188 -184 195 -189T210 -200T225 -212T246 -217Q275 -217 295 -205T315 -167Q315 -150 297 -137T249 -123Q239 -123 230 -123T210 -124Q189 -124 172 -133T133 -142Q115 -142 101 -136T87 -108Q87 -103 96 -85T117 -45T140 -3T155 26Q134 30 118 35T94 47Q69 67 56 100T42 164Q42 226 73 268T156 341Q205 370 250 389T354 408Q364 408 379 408T407 403T431 392T441 369Q441 359 437 354T425 347T411 345T396 345Q382 345 370 348T344 352Q334 352 325 350T306 345Q293 340 269 331T221 309T175 285T146 261Q129 237 121 213T112 158Q112 130 120 114T142 91T177 82T221 80L311 81Q319 81 344 81T396 80T444 71T465 50Z"  />
<glyph unicode="&#xC8;" horiz-adv-x="493" d="M493 373Q493 365 486 360T468 350T447 344T430 341Q390 338 351 338T271 331Q258 328 244 324T215 314T186 306T158 302Q147 302 143 296T136 280Q135 276 133 264T129 238T125 212T123 197Q123 190 129 190Q132 190 135 191T140 193Q164 201 188 202T237 206Q253 207 268 212T299 222T330 232T361 237Q366 237 373 236T386 231T397 222T402 210Q402 202 396 195T380 180T361 169T345 163Q318 158 291 158T237 151Q220 146 202 142T166 137Q152 137 145 145T128 153Q118 153 115 146T112 131Q112 115 131 105T174 88T222 80T255 78Q264 78 279 78T309 79T339 85T359 97Q363 104 369 112T384 121Q392 121 399 113T411 95T419 73T422 55Q422 27 394 20Q362 12 328 6T259 0Q242 0 217 5T166 20T118 40T83 64Q65 82 57 97T49 139Q49 163 57 185T65 232Q65 242 67 266T74 316T88 361T111 381Q116 381 120 378T128 372T140 366T158 363Q175 363 194 370T230 383Q259 391 289 394T349 397H413Q420 397 433 397T460 397T483 390T493 373ZM371 482Q371 464 361 448T330 431Q313 431 307 444T290 469Q279 480 265 492T235 518T204 543T176 566Q166 574 160 585T154 610Q154 625 164 631T188 638Q195 638 208 630T236 610T263 587T282 569Q289 563 304 552T334 529T360 504T371 482Z"  />
<glyph unicode="&#xC9;" horiz-adv-x="493" d="M493 373Q493 365 486 360T468 350T447 344T430 341Q390 338 351 338T271 331Q258 328 244 324T215 314T186 306T158 302Q147 302 143 296T136 280Q135 276 133 264T129 238T125 212T123 197Q123 190 129 190Q132 190 135 191T140 193Q164 201 188 202T237 206Q253 207 268 212T299 222T330 232T361 237Q366 237 373 236T386 231T397 222T402 210Q402 202 396 195T380 180T361 169T345 163Q318 158 291 158T237 151Q220 146 202 142T166 137Q152 137 145 145T128 153Q118 153 115 146T112 131Q112 115 131 105T174 88T222 80T255 78Q264 78 279 78T309 79T339 85T359 97Q363 104 369 112T384 121Q392 121 399 113T411 95T419 73T422 55Q422 27 394 20Q362 12 328 6T259 0Q242 0 217 5T166 20T118 40T83 64Q65 82 57 97T49 139Q49 163 57 185T65 232Q65 242 67 266T74 316T88 361T111 381Q116 381 120 378T128 372T140 366T158 363Q175 363 194 370T230 383Q259 391 289 394T349 397H413Q420 397 433 397T460 397T483 390T493 373ZM397 588Q397 581 386 569T361 544T333 519T312 499Q301 487 291 473T270 445T248 424T223 415Q207 415 193 423T179 449Q179 457 187 468T207 490T231 511T252 529L301 574Q315 588 330 604T365 620Q397 620 397 588Z"  />
<glyph unicode="&#xCA;" horiz-adv-x="493" d="M493 373Q493 365 486 360T468 350T447 344T430 341Q390 338 351 338T271 331Q258 328 244 324T215 314T186 306T158 302Q147 302 143 296T136 280Q135 276 133 264T129 238T125 212T123 197Q123 190 129 190Q132 190 135 191T140 193Q164 201 188 202T237 206Q253 207 268 212T299 222T330 232T361 237Q366 237 373 236T386 231T397 222T402 210Q402 202 396 195T380 180T361 169T345 163Q318 158 291 158T237 151Q220 146 202 142T166 137Q152 137 145 145T128 153Q118 153 115 146T112 131Q112 115 131 105T174 88T222 80T255 78Q264 78 279 78T309 79T339 85T359 97Q363 104 369 112T384 121Q392 121 399 113T411 95T419 73T422 55Q422 27 394 20Q362 12 328 6T259 0Q242 0 217 5T166 20T118 40T83 64Q65 82 57 97T49 139Q49 163 57 185T65 232Q65 242 67 266T74 316T88 361T111 381Q116 381 120 378T128 372T140 366T158 363Q175 363 194 370T230 383Q259 391 289 394T349 397H413Q420 397 433 397T460 397T483 390T493 373ZM396 475Q397 472 397 466Q397 454 387 445T357 435Q340 435 329 445T312 471T304 503T301 532L300 535L301 536Q298 535 287 522T262 493T237 461T223 442Q218 434 208 429T186 424Q176 424 167 430T157 448Q157 456 162 462T172 474Q199 497 225 527T274 584Q280 591 285 599T297 615T312 626T333 631Q346 631 351 624T357 605T360 575T366 539Q369 528 373 518T383 500T391 485T396 475Z"  />
<glyph unicode="&#xCB;" horiz-adv-x="493" d="M493 373Q493 365 486 360T468 350T447 344T430 341Q390 338 351 338T271 331Q258 328 244 324T215 314T186 306T158 302Q147 302 143 296T136 280Q135 276 133 264T129 238T125 212T123 197Q123 190 129 190Q132 190 135 191T140 193Q164 201 188 202T237 206Q253 207 268 212T299 222T330 232T361 237Q366 237 373 236T386 231T397 222T402 210Q402 202 396 195T380 180T361 169T345 163Q318 158 291 158T237 151Q220 146 202 142T166 137Q152 137 145 145T128 153Q118 153 115 146T112 131Q112 115 131 105T174 88T222 80T255 78Q264 78 279 78T309 79T339 85T359 97Q363 104 369 112T384 121Q392 121 399 113T411 95T419 73T422 55Q422 27 394 20Q362 12 328 6T259 0Q242 0 217 5T166 20T118 40T83 64Q65 82 57 97T49 139Q49 163 57 185T65 232Q65 242 67 266T74 316T88 361T111 381Q116 381 120 378T128 372T140 366T158 363Q175 363 194 370T230 383Q259 391 289 394T349 397H413Q420 397 433 397T460 397T483 390T493 373ZM369 487Q369 470 358 457T328 444Q313 444 303 450T286 467T277 489T274 515Q274 525 276 536T283 557T296 572T318 578Q332 578 341 563T350 535Q350 528 353 524T359 514T366 503T369 487ZM211 548Q211 538 211 518T206 479T195 444T172 429Q157 429 149 439T137 465T132 496T131 523Q131 533 132 544T139 566T152 582T174 588Q192 588 201 577T211 548Z"  />
<glyph unicode="&#xCC;" horiz-adv-x="198" d="M163 38Q163 24 148 13T119 2Q104 2 94 15T77 46T67 82T64 111Q64 168 60 224T56 337Q56 345 57 357T62 381T72 401T91 409Q103 409 109 401T117 382T119 359T119 339Q119 322 119 291T122 226T127 162T137 119Q140 112 144 102T153 80T160 57T163 38ZM170 502Q170 484 160 468T129 451Q112 451 106 464T89 489Q78 500 64 512T34 538T3 563T-25 586Q-35 594 -41 605T-47 630Q-47 645 -37 651T-13 658Q-6 658 7 650T35 630T62 607T81 589Q88 583 103 572T133 549T159 524T170 502Z"  />
<glyph unicode="&#xCD;" horiz-adv-x="198" d="M163 38Q163 24 148 13T119 2Q104 2 94 15T77 46T67 82T64 111Q64 168 60 224T56 337Q56 345 57 357T62 381T72 401T91 409Q103 409 109 401T117 382T119 359T119 339Q119 322 119 291T122 226T127 162T137 119Q140 112 144 102T153 80T160 57T163 38ZM254 614Q254 607 243 595T218 570T190 545T169 525Q158 513 148 499T127 471T105 450T80 441Q64 441 50 449T36 475Q36 483 44 494T64 516T88 537T109 555L158 600Q172 614 187 630T222 646Q254 646 254 614Z"  />
<glyph unicode="&#xCE;" horiz-adv-x="198" d="M163 38Q163 24 148 13T119 2Q104 2 94 15T77 46T67 82T64 111Q64 168 60 224T56 337Q56 345 57 357T62 381T72 401T91 409Q103 409 109 401T117 382T119 359T119 339Q119 322 119 291T122 226T127 162T137 119Q140 112 144 102T153 80T160 57T163 38ZM212 448Q213 445 213 439Q213 427 203 418T173 408Q156 408 145 418T128 444T120 476T117 505L116 508L117 509Q114 508 103 495T78 466T53 434T39 415Q34 407 24 402T2 397Q-8 397 -17 403T-27 421Q-27 429 -22 435T-12 447Q15 470 41 500T90 557Q96 564 101 572T113 588T128 599T149 604Q162 604 167 597T173 578T176 548T182 512Q185 501 189 491T199 473T207 458T212 448Z"  />
<glyph unicode="&#xCF;" horiz-adv-x="198" d="M163 38Q163 24 148 13T119 2Q104 2 94 15T77 46T67 82T64 111Q64 168 60 224T56 337Q56 345 57 357T62 381T72 401T91 409Q103 409 109 401T117 382T119 359T119 339Q119 322 119 291T122 226T127 162T137 119Q140 112 144 102T153 80T160 57T163 38ZM200 484Q200 467 189 454T159 441Q144 441 134 447T117 464T108 486T105 512Q105 522 107 533T114 554T127 569T149 575Q163 575 172 560T181 532Q181 525 184 521T190 511T197 500T200 484ZM42 545Q42 535 42 515T37 476T26 441T3 426Q-12 426 -20 436T-32 462T-37 493T-38 520Q-38 530 -37 541T-30 563T-17 579T5 585Q23 585 32 574T42 545Z"  />
<glyph unicode="&#xD0;" horiz-adv-x="462" d="M427 213Q427 182 414 159T379 116T333 81T286 50Q274 42 253 29T210 2T166 -21T131 -31Q111 -31 99 -23T87 7Q87 14 92 23T104 43T115 68T121 100Q121 120 118 140Q86 137 56 137Q47 137 38 140T20 150T7 164T1 183Q1 205 13 207T45 210Q59 210 74 212T103 216L101 231Q99 245 93 261T86 289Q86 291 87 293T88 298Q88 301 84 301Q75 301 70 296T60 283T50 271T38 265Q28 265 21 278T14 300Q14 307 19 315T30 330T44 344T58 356Q67 363 69 371T71 387T73 399T83 404Q99 404 123 402T174 396T224 387T262 376Q287 366 315 351T369 315T410 270T427 213ZM367 217Q367 237 360 248T341 267T315 278T286 290Q278 294 263 301T232 316T200 328T177 334Q166 334 157 330T148 313Q148 304 151 296T159 279Q164 268 167 256T173 229Q194 232 215 232Q224 232 235 232T255 228T272 219T279 200Q279 191 274 182T260 165T241 152T221 147Q211 147 201 147T181 145V102Q181 91 185 85T202 78Q223 78 251 91T305 125T349 170T367 217Z"  />
<glyph unicode="&#xD1;" horiz-adv-x="518" d="M475 243Q475 224 474 205T467 167Q461 146 450 118T422 63T385 19T338 0Q323 0 306 13T269 47T231 90T195 134T163 167T138 181Q130 181 130 170Q130 152 137 125T144 70Q144 58 143 46T136 25T123 9T100 2Q83 2 79 10T72 34Q65 93 60 154T40 272Q35 289 35 304Q35 316 40 327T60 339Q71 339 91 326T135 293T184 248T231 200T271 158T296 129Q304 119 315 105T340 89H343Q361 89 374 111T396 162T409 220T414 262Q414 279 409 294T398 324T387 352T382 383Q382 391 386 397T399 403Q426 403 441 385T463 342T473 290T475 243ZM402 538Q402 522 400 515T394 503T385 496T372 485Q361 476 353 466T331 451Q312 444 294 435T255 425Q241 425 228 438T215 474Q215 482 217 488T221 502Q212 497 202 486T182 467Q166 450 151 438T127 425Q116 425 109 433T101 459Q101 469 109 481T127 503T149 522T167 536Q174 542 184 551T206 569T227 584T247 590Q256 590 261 584T270 570T275 553T277 537Q277 527 274 518T271 500V499Q279 499 290 503T312 514T332 529T345 547Q350 559 356 570T374 581Q388 581 395 567T402 538Z"  />
<glyph unicode="&#xD2;" horiz-adv-x="393" d="M336 202Q336 184 335 164T329 125T318 87T297 56Q281 39 267 27T238 7T206 -6T164 -10Q110 -10 80 21T49 107Q49 160 68 197T122 272Q132 282 145 295T174 320T205 339T237 347Q250 347 266 340T296 323T320 299T333 272Q335 255 335 237T336 202ZM273 210Q273 238 263 250T226 262Q205 262 186 246T153 206T129 157T120 113Q120 95 127 86T146 74T172 70T200 70Q219 70 232 86T255 125T268 172T273 210ZM310 432Q310 414 300 398T269 381Q252 381 246 394T229 419Q218 430 204 442T174 468T143 493T115 516Q105 524 99 535T93 560Q93 575 103 581T127 588Q134 588 147 580T175 560T202 537T221 519Q228 513 243 502T273 479T299 454T310 432Z"  />
<glyph unicode="&#xD3;" horiz-adv-x="393" d="M336 202Q336 184 335 164T329 125T318 87T297 56Q281 39 267 27T238 7T206 -6T164 -10Q110 -10 80 21T49 107Q49 160 68 197T122 272Q132 282 145 295T174 320T205 339T237 347Q250 347 266 340T296 323T320 299T333 272Q335 255 335 237T336 202ZM273 210Q273 238 263 250T226 262Q205 262 186 246T153 206T129 157T120 113Q120 95 127 86T146 74T172 70T200 70Q219 70 232 86T255 125T268 172T273 210ZM341 544Q341 537 330 525T305 500T277 475T256 455Q245 443 235 429T214 401T192 380T167 371Q151 371 137 379T123 405Q123 413 131 424T151 446T175 467T196 485L245 530Q259 544 274 560T309 576Q341 576 341 544Z"  />
<glyph unicode="&#xD4;" horiz-adv-x="393" d="M336 202Q336 184 335 164T329 125T318 87T297 56Q281 39 267 27T238 7T206 -6T164 -10Q110 -10 80 21T49 107Q49 160 68 197T122 272Q132 282 145 295T174 320T205 339T237 347Q250 347 266 340T296 323T320 299T333 272Q335 255 335 237T336 202ZM273 210Q273 238 263 250T226 262Q205 262 186 246T153 206T129 157T120 113Q120 95 127 86T146 74T172 70T200 70Q219 70 232 86T255 125T268 172T273 210ZM343 430Q344 427 344 421Q344 409 334 400T304 390Q287 390 276 400T259 426T251 458T248 487L247 490L248 491Q245 490 234 477T209 448T184 416T170 397Q165 389 155 384T133 379Q123 379 114 385T104 403Q104 411 109 417T119 429Q146 452 172 482T221 539Q227 546 232 554T244 570T259 581T280 586Q293 586 298 579T304 560T307 530T313 494Q316 483 320 473T330 455T338 440T343 430Z"  />
<glyph unicode="&#xD5;" horiz-adv-x="393" d="M336 202Q336 184 335 164T329 125T318 87T297 56Q281 39 267 27T238 7T206 -6T164 -10Q110 -10 80 21T49 107Q49 160 68 197T122 272Q132 282 145 295T174 320T205 339T237 347Q250 347 266 340T296 323T320 299T333 272Q335 255 335 237T336 202ZM273 210Q273 238 263 250T226 262Q205 262 186 246T153 206T129 157T120 113Q120 95 127 86T146 74T172 70T200 70Q219 70 232 86T255 125T268 172T273 210ZM369 490Q369 474 367 467T361 455T352 448T339 437Q328 428 320 418T298 403Q279 396 261 387T222 377Q208 377 195 390T182 426Q182 434 184 440T188 454Q179 449 169 438T149 419Q133 402 118 390T94 377Q83 377 76 385T68 411Q68 421 76 433T94 455T116 474T134 488Q141 494 151 503T173 521T194 536T214 542Q223 542 228 536T237 522T242 505T244 489Q244 479 241 470T238 452V451Q246 451 257 455T279 466T299 481T312 499Q317 511 323 522T341 533Q355 533 362 519T369 490Z"  />
<glyph unicode="&#xD6;" horiz-adv-x="393" d="M336 202Q336 184 335 164T329 125T318 87T297 56Q281 39 267 27T238 7T206 -6T164 -10Q110 -10 80 21T49 107Q49 160 68 197T122 272Q132 282 145 295T174 320T205 339T237 347Q250 347 266 340T296 323T320 299T333 272Q335 255 335 237T336 202ZM273 210Q273 238 263 250T226 262Q205 262 186 246T153 206T129 157T120 113Q120 95 127 86T146 74T172 70T200 70Q219 70 232 86T255 125T268 172T273 210ZM348 453Q348 436 337 423T307 410Q292 410 282 416T265 433T256 455T253 481Q253 491 255 502T262 523T275 538T297 544Q311 544 320 529T329 501Q329 494 332 490T338 480T345 469T348 453ZM190 514Q190 504 190 484T185 445T174 410T151 395Q136 395 128 405T116 431T111 462T110 489Q110 499 111 510T118 532T131 548T153 554Q171 554 180 543T190 514Z"  />
<glyph unicode="&#xD7;" horiz-adv-x="508" d="M432 341Q440 333 440 320T431 298Q423 291 412 291T391 292Q374 291 356 277T326 251Q320 246 314 241T304 229T300 215T308 200Q328 177 350 157T396 117L404 110Q412 101 414 90T415 68T407 47T393 29Q385 22 377 22T362 26T347 37T335 50Q319 68 307 87T278 125Q270 133 260 140T238 138Q218 119 203 96T168 53Q162 48 151 42T127 30T102 25T84 31Q72 44 75 56T89 81T113 103T136 122Q146 131 159 144T182 173T194 204T184 234Q173 247 156 258T124 285Q118 291 111 300T100 320T95 341T105 360Q122 375 137 376T170 359Q183 345 193 329T216 298Q229 284 240 280T268 290Q278 299 286 309T306 329Q317 340 330 347T361 355Q375 356 398 354T432 341Z"  />
<glyph unicode="&#xD8;" horiz-adv-x="414" d="M375 212Q375 191 374 168T367 121T353 77T329 40Q310 20 294 6T259 -18T221 -32T172 -37Q145 -37 125 -30Q120 -38 115 -46T103 -62Q95 -72 83 -82T57 -92Q44 -92 34 -80T23 -54Q23 -45 27 -38T36 -23Q42 -13 48 -4T62 14Q37 50 37 101Q37 163 59 207T123 294Q135 307 151 322T185 351T222 374T259 383Q274 383 294 374Q296 378 297 381T299 387Q304 402 313 407T339 413Q350 413 361 404T372 381Q372 369 365 358T351 336L349 334Q368 313 371 294Q373 274 374 253T375 212ZM305 223Q305 243 301 255Q285 227 270 199T238 144Q224 120 209 97T178 50Q187 49 196 49T214 50Q237 50 254 70T282 119T299 176T305 223ZM246 287Q221 287 198 267T156 217T128 157T117 103V92Q132 112 146 132T174 174Q187 193 207 223T247 287H246Z"  />
<glyph unicode="&#xD9;" horiz-adv-x="496" d="M446 268Q446 245 442 214T429 152T407 92T378 48Q343 13 292 2T194 -10Q150 -10 122 9T77 60T55 129T49 203Q49 216 49 244T54 302T69 353T99 375Q114 375 124 370T134 346Q134 340 132 330Q125 293 123 258T120 185Q120 164 123 142T136 100T161 69T204 56Q247 56 279 70T334 110T367 171T378 248Q378 268 374 282T365 308T355 330T351 353Q351 370 359 386T386 403Q391 403 397 399T406 391Q429 368 437 334T446 268ZM332 443Q332 425 322 409T291 392Q274 392 268 405T251 430Q240 441 226 453T196 479T165 504T137 527Q127 535 121 546T115 571Q115 586 125 592T149 599Q156 599 169 591T197 571T224 548T243 530Q250 524 265 513T295 490T321 465T332 443Z"  />
<glyph unicode="&#xDA;" horiz-adv-x="496" d="M446 268Q446 245 442 214T429 152T407 92T378 48Q343 13 292 2T194 -10Q150 -10 122 9T77 60T55 129T49 203Q49 216 49 244T54 302T69 353T99 375Q114 375 124 370T134 346Q134 340 132 330Q125 293 123 258T120 185Q120 164 123 142T136 100T161 69T204 56Q247 56 279 70T334 110T367 171T378 248Q378 268 374 282T365 308T355 330T351 353Q351 370 359 386T386 403Q391 403 397 399T406 391Q429 368 437 334T446 268ZM343 561Q343 554 332 542T307 517T279 492T258 472Q247 460 237 446T216 418T194 397T169 388Q153 388 139 396T125 422Q125 430 133 441T153 463T177 484T198 502L247 547Q261 561 276 577T311 593Q343 593 343 561Z"  />
<glyph unicode="&#xDB;" horiz-adv-x="496" d="M446 268Q446 245 442 214T429 152T407 92T378 48Q343 13 292 2T194 -10Q150 -10 122 9T77 60T55 129T49 203Q49 216 49 244T54 302T69 353T99 375Q114 375 124 370T134 346Q134 340 132 330Q125 293 123 258T120 185Q120 164 123 142T136 100T161 69T204 56Q247 56 279 70T334 110T367 171T378 248Q378 268 374 282T365 308T355 330T351 353Q351 370 359 386T386 403Q391 403 397 399T406 391Q429 368 437 334T446 268ZM313 429Q314 426 314 420Q314 408 304 399T274 389Q257 389 246 399T229 425T221 457T218 486L217 489L218 490Q215 489 204 476T179 447T154 415T140 396Q135 388 125 383T103 378Q93 378 84 384T74 402Q74 410 79 416T89 428Q116 451 142 481T191 538Q197 545 202 553T214 569T229 580T250 585Q263 585 268 578T274 559T277 529T283 493Q286 482 290 472T300 454T308 439T313 429Z"  />
<glyph unicode="&#xDC;" horiz-adv-x="496" d="M446 268Q446 245 442 214T429 152T407 92T378 48Q343 13 292 2T194 -10Q150 -10 122 9T77 60T55 129T49 203Q49 216 49 244T54 302T69 353T99 375Q114 375 124 370T134 346Q134 340 132 330Q125 293 123 258T120 185Q120 164 123 142T136 100T161 69T204 56Q247 56 279 70T334 110T367 171T378 248Q378 268 374 282T365 308T355 330T351 353Q351 370 359 386T386 403Q391 403 397 399T406 391Q429 368 437 334T446 268ZM341 486Q341 469 330 456T300 443Q285 443 275 449T258 466T249 488T246 514Q246 524 248 535T255 556T268 571T290 577Q304 577 313 562T322 534Q322 527 325 523T331 513T338 502T341 486ZM183 547Q183 537 183 517T178 478T167 443T144 428Q129 428 121 438T109 464T104 495T103 522Q103 532 104 543T111 565T124 581T146 587Q164 587 173 576T183 547Z"  />
<glyph unicode="&#xDD;" horiz-adv-x="509" d="M494 423Q494 408 483 389T456 352T424 318T395 296Q387 291 366 282T323 264T283 247T262 236Q256 230 250 214T238 180T229 145T226 119Q226 90 231 80T244 66T256 55T262 28Q262 14 246 6T218 -2Q198 -2 186 9T167 38T158 73T155 107Q155 130 162 151T170 196Q170 201 169 207T159 214Q133 214 110 223T68 249T39 288T28 337Q28 350 30 369T38 405T55 434T84 447Q95 447 109 440T123 419Q123 413 118 406T107 390T96 375T91 361Q91 321 117 308T179 294Q202 294 241 303T317 330T382 371T409 425Q409 442 420 453T449 464Q455 464 463 460T477 450T489 437T494 423ZM386 566Q386 559 375 547T350 522T322 497T301 477Q290 465 280 451T259 423T237 402T212 393Q196 393 182 401T168 427Q168 435 176 446T196 468T220 489T241 507L290 552Q304 566 319 582T354 598Q386 598 386 566Z"  />
<glyph unicode="&#xDE;" horiz-adv-x="515" d="M490 261Q490 246 478 229T450 196T415 167T385 148Q352 131 311 117T232 98Q219 96 212 95T201 90T197 79T196 59Q196 42 196 39T197 35T198 31T199 10Q199 3 196 -5T187 -22T174 -35T159 -41Q149 -41 142 -31T129 -7T120 21T115 42L106 89Q104 96 103 103T99 118L98 123Q95 139 93 153T89 188Q84 234 77 280Q70 316 60 351T43 423Q41 433 41 444Q41 457 45 468T61 482Q63 483 69 483Q81 483 94 477T109 459Q115 426 122 393T136 328Q156 338 180 341T228 344Q247 344 272 341T323 332T375 321T418 309Q426 306 438 303T462 294T482 280T490 261ZM379 237Q379 248 360 254T315 263T263 266T224 267H218Q211 267 202 267T183 264T166 256T154 243Q156 237 157 231T159 217L161 206Q168 189 178 172T191 155Q195 155 197 158T202 164Q207 169 222 173T256 181T298 189T338 199T367 215T379 237Z"  />
<glyph unicode="&#xDF;" horiz-adv-x="459" d="M424 82Q424 67 416 54Q408 32 389 14T349 -14Q339 -19 322 -26T285 -39T247 -49T219 -54Q208 -54 196 -48T174 -33T156 -12T149 11Q149 22 159 29T180 37Q193 37 210 27T244 16Q251 16 269 22T307 37T340 56T355 74Q354 85 342 97T323 116Q309 128 284 134T233 147T188 165T169 198Q169 215 181 222T206 235Q219 240 240 247T283 263T321 285T338 313Q339 332 334 344T320 362T304 370T291 372Q227 372 164 352Q145 346 138 342T130 332T128 321T120 304Q116 299 115 293T114 280Q114 261 118 243T126 205Q128 195 127 174T122 125T115 67T106 9T98 -40T93 -72Q91 -87 90 -101T85 -127T71 -143T44 -147Q29 -138 24 -125T18 -94Q18 -90 22 -75T32 -39T46 7T59 52T70 91T75 114Q75 134 69 136T55 140T41 147T34 182Q34 197 40 202T53 211T65 221T69 243Q66 266 65 288T67 335Q70 360 92 377T144 406T209 423T271 429Q280 429 303 422T350 403T392 377T410 348Q410 311 391 287T349 247T306 221T287 203Q287 198 294 194T310 185T329 176T343 169Q351 163 365 153T392 130T414 106T424 82Z"  />
<glyph unicode="&#xE0;" horiz-adv-x="450" d="M444 -6Q444 -26 427 -34T392 -42Q368 -42 345 -35T305 -10Q303 -8 298 -1T287 14T277 28T271 35Q269 35 259 26T244 15Q225 4 203 1T158 -3Q110 -3 80 20T49 95Q49 108 54 129T67 172T86 210T112 232Q129 238 144 245T175 259T207 270T243 275Q260 275 281 268T313 247Q332 243 347 235T363 203Q363 177 357 152T350 100Q350 72 357 58T374 37T397 28T419 24T437 15T444 -6ZM265 122Q265 131 262 135T249 140Q241 140 231 132T208 124Q200 124 192 130T183 145Q183 152 191 157T208 169T225 181T233 195Q233 200 229 201T222 202Q207 202 190 192T158 168T134 136T124 103Q124 84 136 77T166 69Q175 69 192 72T225 83T253 100T265 122ZM376 377Q376 359 366 343T335 326Q318 326 312 339T295 364Q284 375 270 387T240 413T209 438T181 461Q171 469 165 480T159 505Q159 520 169 526T193 533Q200 533 213 525T241 505T268 482T287 464Q294 458 309 447T339 424T365 399T376 377Z"  />
<glyph unicode="&#xE1;" horiz-adv-x="450" d="M444 -6Q444 -26 427 -34T392 -42Q368 -42 345 -35T305 -10Q303 -8 298 -1T287 14T277 28T271 35Q269 35 259 26T244 15Q225 4 203 1T158 -3Q110 -3 80 20T49 95Q49 108 54 129T67 172T86 210T112 232Q129 238 144 245T175 259T207 270T243 275Q260 275 281 268T313 247Q332 243 347 235T363 203Q363 177 357 152T350 100Q350 72 357 58T374 37T397 28T419 24T437 15T444 -6ZM265 122Q265 131 262 135T249 140Q241 140 231 132T208 124Q200 124 192 130T183 145Q183 152 191 157T208 169T225 181T233 195Q233 200 229 201T222 202Q207 202 190 192T158 168T134 136T124 103Q124 84 136 77T166 69Q175 69 192 72T225 83T253 100T265 122ZM324 503Q324 496 313 484T288 459T260 434T239 414Q228 402 218 388T197 360T175 339T150 330Q134 330 120 338T106 364Q106 372 114 383T134 405T158 426T179 444L228 489Q242 503 257 519T292 535Q324 535 324 503Z"  />
<glyph unicode="&#xE2;" horiz-adv-x="450" d="M444 -6Q444 -26 427 -34T392 -42Q368 -42 345 -35T305 -10Q303 -8 298 -1T287 14T277 28T271 35Q269 35 259 26T244 15Q225 4 203 1T158 -3Q110 -3 80 20T49 95Q49 108 54 129T67 172T86 210T112 232Q129 238 144 245T175 259T207 270T243 275Q260 275 281 268T313 247Q332 243 347 235T363 203Q363 177 357 152T350 100Q350 72 357 58T374 37T397 28T419 24T437 15T444 -6ZM265 122Q265 131 262 135T249 140Q241 140 231 132T208 124Q200 124 192 130T183 145Q183 152 191 157T208 169T225 181T233 195Q233 200 229 201T222 202Q207 202 190 192T158 168T134 136T124 103Q124 84 136 77T166 69Q175 69 192 72T225 83T253 100T265 122ZM348 365Q349 362 349 356Q349 344 339 335T309 325Q292 325 281 335T264 361T256 393T253 422L252 425L253 426Q250 425 239 412T214 383T189 351T175 332Q170 324 160 319T138 314Q128 314 119 320T109 338Q109 346 114 352T124 364Q151 387 177 417T226 474Q232 481 237 489T249 505T264 516T285 521Q298 521 303 514T309 495T312 465T318 429Q321 418 325 408T335 390T343 375T348 365Z"  />
<glyph unicode="&#xE3;" horiz-adv-x="450" d="M444 -6Q444 -26 427 -34T392 -42Q368 -42 345 -35T305 -10Q303 -8 298 -1T287 14T277 28T271 35Q269 35 259 26T244 15Q225 4 203 1T158 -3Q110 -3 80 20T49 95Q49 108 54 129T67 172T86 210T112 232Q129 238 144 245T175 259T207 270T243 275Q260 275 281 268T313 247Q332 243 347 235T363 203Q363 177 357 152T350 100Q350 72 357 58T374 37T397 28T419 24T437 15T444 -6ZM265 122Q265 131 262 135T249 140Q241 140 231 132T208 124Q200 124 192 130T183 145Q183 152 191 157T208 169T225 181T233 195Q233 200 229 201T222 202Q207 202 190 192T158 168T134 136T124 103Q124 84 136 77T166 69Q175 69 192 72T225 83T253 100T265 122ZM405 450Q405 434 403 427T397 415T388 408T375 397Q364 388 356 378T334 363Q315 356 297 347T258 337Q244 337 231 350T218 386Q218 394 220 400T224 414Q215 409 205 398T185 379Q169 362 154 350T130 337Q119 337 112 345T104 371Q104 381 112 393T130 415T152 434T170 448Q177 454 187 463T209 481T230 496T250 502Q259 502 264 496T273 482T278 465T280 449Q280 439 277 430T274 412V411Q282 411 293 415T315 426T335 441T348 459Q353 471 359 482T377 493Q391 493 398 479T405 450Z"  />
<glyph unicode="&#xE4;" horiz-adv-x="450" d="M444 -6Q444 -26 427 -34T392 -42Q368 -42 345 -35T305 -10Q303 -8 298 -1T287 14T277 28T271 35Q269 35 259 26T244 15Q225 4 203 1T158 -3Q110 -3 80 20T49 95Q49 108 54 129T67 172T86 210T112 232Q129 238 144 245T175 259T207 270T243 275Q260 275 281 268T313 247Q332 243 347 235T363 203Q363 177 357 152T350 100Q350 72 357 58T374 37T397 28T419 24T437 15T444 -6ZM265 122Q265 131 262 135T249 140Q241 140 231 132T208 124Q200 124 192 130T183 145Q183 152 191 157T208 169T225 181T233 195Q233 200 229 201T222 202Q207 202 190 192T158 168T134 136T124 103Q124 84 136 77T166 69Q175 69 192 72T225 83T253 100T265 122ZM360 392Q360 375 349 362T319 349Q304 349 294 355T277 372T268 394T265 420Q265 430 267 441T274 462T287 477T309 483Q323 483 332 468T341 440Q341 433 344 429T350 419T357 408T360 392ZM202 453Q202 443 202 423T197 384T186 349T163 334Q148 334 140 344T128 370T123 401T122 428Q122 438 123 449T130 471T143 487T165 493Q183 493 192 482T202 453Z"  />
<glyph unicode="&#xE5;" horiz-adv-x="450" d="M444 -6Q444 -26 427 -34T392 -42Q368 -42 345 -35T305 -10Q303 -8 298 -1T287 14T277 28T271 35Q269 35 259 26T244 15Q225 4 203 1T158 -3Q110 -3 80 20T49 95Q49 108 54 129T67 172T86 210T112 232Q129 238 144 245T175 259T207 270T243 275Q260 275 281 268T313 247Q332 243 347 235T363 203Q363 177 357 152T350 100Q350 72 357 58T374 37T397 28T419 24T437 15T444 -6ZM265 122Q265 131 262 135T249 140Q241 140 231 132T208 124Q200 124 192 130T183 145Q183 152 191 157T208 169T225 181T233 195Q233 200 229 201T222 202Q207 202 190 192T158 168T134 136T124 103Q124 84 136 77T166 69Q175 69 192 72T225 83T253 100T265 122ZM327 442Q327 421 319 402T295 367T256 343T202 333Q185 333 169 338T139 352T117 372T109 395Q109 411 121 427T153 456T195 477T242 486Q250 486 254 484T263 482Q268 482 273 483T285 485Q310 485 318 471T327 442ZM237 419Q237 424 231 426T220 428Q206 428 199 421T191 405V398Q191 383 214 383Q219 383 226 383T233 389Q233 391 232 393T231 399Q231 407 234 410T237 419Z"  />
<glyph unicode="&#xE6;" horiz-adv-x="695" d="M695 37Q695 29 689 22T675 10T657 0T642 -5Q591 -16 540 -26T436 -37Q396 -37 354 -20T283 27Q272 35 271 35Q269 35 259 26T244 15Q225 4 203 1T158 -3Q110 -3 80 20T49 95Q49 108 54 129T67 172T86 210T112 232Q129 238 144 245T175 259T207 270T243 275Q260 275 281 268T313 247Q332 243 344 237Q362 250 384 257T432 265Q462 265 484 250T507 201Q507 164 489 143T445 110T395 92T357 79L370 47Q380 42 393 39T419 35T442 32T458 31Q469 31 480 31T503 33Q526 34 548 36T594 43Q607 45 620 48T648 51Q651 51 659 51T675 50T689 46T695 37ZM265 125Q265 140 249 140Q241 140 231 132T208 124Q200 124 192 130T183 145Q183 152 191 157T208 169T225 181T233 195Q233 200 229 201T222 202Q207 202 190 192T158 168T134 136T124 103Q124 84 136 77T166 69Q174 69 187 71T214 79T240 91T260 107Q261 112 262 116T265 125ZM437 178Q437 187 425 190T405 194Q394 194 382 187T360 168L353 134H355Q362 134 375 138T402 149T426 163T437 178Z"  />
<glyph unicode="&#xE7;" horiz-adv-x="426" d="M421 32Q421 16 412 9T391 1T364 0T339 1Q313 1 287 1T235 -1L230 -11Q229 -12 225 -20T215 -39T206 -60T202 -75Q202 -78 209 -78T226 -77T249 -73T270 -71Q287 -71 310 -76T354 -94T389 -124T404 -169Q404 -202 392 -226T358 -267T310 -292T252 -300Q238 -300 222 -296T193 -283T170 -263T160 -234Q160 -223 169 -211T190 -199Q200 -199 207 -204T222 -215T237 -227T258 -232Q287 -232 307 -220T327 -182Q327 -165 309 -152T261 -138Q251 -138 242 -138T222 -139Q201 -139 184 -148T145 -157Q127 -157 113 -151T99 -123Q99 -119 106 -104T123 -71T143 -34T161 -2Q142 -2 121 0T83 10T54 32T42 71Q42 109 61 145T110 210T177 255T252 272Q269 272 287 268T319 255T343 232T352 198Q352 179 339 160T304 141Q278 141 271 148T262 165T255 182T232 190Q217 190 197 181T158 157T128 125T115 91Q115 77 132 71T172 63T216 62T246 63Q255 63 283 63T342 62T397 53T421 32Z"  />
<glyph unicode="&#xE8;" horiz-adv-x="539" d="M532 53Q532 45 526 38T512 26T494 17T478 12Q427 0 376 -10T272 -20Q248 -20 223 -14T173 5T129 34T97 73Q87 73 75 74T51 79T32 91T24 113Q24 125 30 131T46 138T65 140T84 139Q95 139 101 147T111 164Q123 188 138 209T172 247T215 272T268 282Q299 282 321 267T343 218Q343 189 331 170T302 139T264 119T226 107T196 98T184 86Q184 75 198 68T231 56T268 50T295 48Q306 48 317 48T339 49Q362 51 384 53T430 59Q443 61 457 64T484 67Q488 67 496 67T512 66T526 62T532 53ZM274 195Q274 204 261 207T241 211Q232 211 222 206T203 192T188 174T182 157Q182 150 192 150Q199 150 212 154T239 165T263 180T274 195ZM380 398Q380 380 370 364T339 347Q322 347 316 360T299 385Q288 396 274 408T244 434T213 459T185 482Q175 490 169 501T163 526Q163 541 173 547T197 554Q204 554 217 546T245 526T272 503T291 485Q298 479 313 468T343 445T369 420T380 398Z"  />
<glyph unicode="&#xE9;" horiz-adv-x="539" d="M532 53Q532 45 526 38T512 26T494 17T478 12Q427 0 376 -10T272 -20Q248 -20 223 -14T173 5T129 34T97 73Q87 73 75 74T51 79T32 91T24 113Q24 125 30 131T46 138T65 140T84 139Q95 139 101 147T111 164Q123 188 138 209T172 247T215 272T268 282Q299 282 321 267T343 218Q343 189 331 170T302 139T264 119T226 107T196 98T184 86Q184 75 198 68T231 56T268 50T295 48Q306 48 317 48T339 49Q362 51 384 53T430 59Q443 61 457 64T484 67Q488 67 496 67T512 66T526 62T532 53ZM274 195Q274 204 261 207T241 211Q232 211 222 206T203 192T188 174T182 157Q182 150 192 150Q199 150 212 154T239 165T263 180T274 195ZM342 477Q342 470 331 458T306 433T278 408T257 388Q246 376 236 362T215 334T193 313T168 304Q152 304 138 312T124 338Q124 346 132 357T152 379T176 400T197 418L246 463Q260 477 275 493T310 509Q342 509 342 477Z"  />
<glyph unicode="&#xEA;" horiz-adv-x="539" d="M532 53Q532 45 526 38T512 26T494 17T478 12Q427 0 376 -10T272 -20Q248 -20 223 -14T173 5T129 34T97 73Q87 73 75 74T51 79T32 91T24 113Q24 125 30 131T46 138T65 140T84 139Q95 139 101 147T111 164Q123 188 138 209T172 247T215 272T268 282Q299 282 321 267T343 218Q343 189 331 170T302 139T264 119T226 107T196 98T184 86Q184 75 198 68T231 56T268 50T295 48Q306 48 317 48T339 49Q362 51 384 53T430 59Q443 61 457 64T484 67Q488 67 496 67T512 66T526 62T532 53ZM274 195Q274 204 261 207T241 211Q232 211 222 206T203 192T188 174T182 157Q182 150 192 150Q199 150 212 154T239 165T263 180T274 195ZM380 354Q381 351 381 345Q381 333 371 324T341 314Q324 314 313 324T296 350T288 382T285 411L284 414L285 415Q282 414 271 401T246 372T221 340T207 321Q202 313 192 308T170 303Q160 303 151 309T141 327Q141 335 146 341T156 353Q183 376 209 406T258 463Q264 470 269 478T281 494T296 505T317 510Q330 510 335 503T341 484T344 454T350 418Q353 407 357 397T367 379T375 364T380 354Z"  />
<glyph unicode="&#xEB;" horiz-adv-x="539" d="M532 53Q532 45 526 38T512 26T494 17T478 12Q427 0 376 -10T272 -20Q248 -20 223 -14T173 5T129 34T97 73Q87 73 75 74T51 79T32 91T24 113Q24 125 30 131T46 138T65 140T84 139Q95 139 101 147T111 164Q123 188 138 209T172 247T215 272T268 282Q299 282 321 267T343 218Q343 189 331 170T302 139T264 119T226 107T196 98T184 86Q184 75 198 68T231 56T268 50T295 48Q306 48 317 48T339 49Q362 51 384 53T430 59Q443 61 457 64T484 67Q488 67 496 67T512 66T526 62T532 53ZM274 195Q274 204 261 207T241 211Q232 211 222 206T203 192T188 174T182 157Q182 150 192 150Q199 150 212 154T239 165T263 180T274 195ZM373 400Q373 383 362 370T332 357Q317 357 307 363T290 380T281 402T278 428Q278 438 280 449T287 470T300 485T322 491Q336 491 345 476T354 448Q354 441 357 437T363 427T370 416T373 400ZM215 461Q215 451 215 431T210 392T199 357T176 342Q161 342 153 352T141 378T136 409T135 436Q135 446 136 457T143 479T156 495T178 501Q196 501 205 490T215 461Z"  />
<glyph unicode="&#xEC;" horiz-adv-x="192" d="M145 179Q145 168 144 147T140 102T135 58T129 28Q124 14 118 8T96 2Q76 2 64 19T52 54Q52 68 55 81T60 109Q66 146 66 185Q66 203 76 210T104 218Q125 218 135 210T145 179ZM171 339Q171 321 161 305T130 288Q113 288 107 301T90 326Q79 337 65 349T35 375T4 400T-24 423Q-34 431 -40 442T-46 467Q-46 482 -36 488T-12 495Q-5 495 8 487T36 467T63 444T82 426Q89 420 104 409T134 386T160 361T171 339Z"  />
<glyph unicode="&#xED;" horiz-adv-x="192" d="M145 179Q145 168 144 147T140 102T135 58T129 28Q124 14 118 8T96 2Q76 2 64 19T52 54Q52 68 55 81T60 109Q66 146 66 185Q66 203 76 210T104 218Q125 218 135 210T145 179ZM294 458Q294 451 283 439T258 414T230 389T209 369Q198 357 188 343T167 315T145 294T120 285Q104 285 90 293T76 319Q76 327 84 338T104 360T128 381T149 399L198 444Q212 458 227 474T262 490Q294 490 294 458Z"  />
<glyph unicode="&#xEE;" horiz-adv-x="192" d="M145 179Q145 168 144 147T140 102T135 58T129 28Q124 14 118 8T96 2Q76 2 64 19T52 54Q52 68 55 81T60 109Q66 146 66 185Q66 203 76 210T104 218Q125 218 135 210T145 179ZM221 297Q222 294 222 288Q222 276 212 267T182 257Q165 257 154 267T137 293T129 325T126 354L125 357L126 358Q123 357 112 344T87 315T62 283T48 264Q43 256 33 251T11 246Q1 246 -8 252T-18 270Q-18 278 -13 284T-3 296Q24 319 50 349T99 406Q105 413 110 421T122 437T137 448T158 453Q171 453 176 446T182 427T185 397T191 361Q194 350 198 340T208 322T216 307T221 297Z"  />
<glyph unicode="&#xEF;" horiz-adv-x="192" d="M145 179Q145 168 144 147T140 102T135 58T129 28Q124 14 118 8T96 2Q76 2 64 19T52 54Q52 68 55 81T60 109Q66 146 66 185Q66 203 76 210T104 218Q125 218 135 210T145 179ZM221 336Q221 319 210 306T180 293Q165 293 155 299T138 316T129 338T126 364Q126 374 128 385T135 406T148 421T170 427Q184 427 193 412T202 384Q202 377 205 373T211 363T218 352T221 336ZM63 397Q63 387 63 367T58 328T47 293T24 278Q9 278 1 288T-11 314T-16 345T-17 372Q-17 382 -16 393T-9 415T4 431T26 437Q44 437 53 426T63 397Z"  />
<glyph unicode="&#xF0;" horiz-adv-x="393" d="M327 497Q327 492 320 483T302 463T277 439T252 415Q264 394 279 361T306 293T328 225T337 172V171Q337 156 336 139T330 105T319 73T298 46Q282 32 268 22T239 4T206 -6T164 -10Q110 -10 80 17T49 90Q49 135 68 167T122 230Q132 239 146 248T175 266T207 279T239 284Q230 303 220 322T198 360Q186 348 174 335T148 312T123 295T101 288Q85 288 78 293T70 314Q70 326 81 340T107 369T137 395T160 414Q154 422 148 429T136 442Q117 459 117 485Q117 515 148 515Q159 515 178 499T214 464Q221 472 231 483T253 504T275 522T295 529Q327 529 327 497ZM226 210Q205 210 186 198T153 169T129 132T120 100Q120 87 127 81T146 72T172 69T200 69Q218 69 231 80T253 106T267 138T273 167V178Q271 195 261 202T226 210Z"  />
<glyph unicode="&#xF1;" horiz-adv-x="498" d="M456 -2Q456 -16 442 -28T413 -41Q394 -41 383 -30T364 -3T353 32T345 67T336 94T321 105Q307 105 294 91T268 59T242 27T212 12Q199 12 194 22T187 47T184 79T179 112T164 137T135 147Q121 147 107 142T79 131T53 120T32 115Q15 115 8 125T0 151Q0 164 19 177T64 201T115 219T153 226Q176 226 191 215T216 192T235 168T252 157Q258 157 266 164T285 180T312 196T349 203Q365 203 377 193T399 167T416 134T427 105Q429 98 434 83T444 51T452 19T456 -2ZM393 419Q393 403 391 396T385 384T376 377T363 366Q352 357 344 347T322 332Q303 325 285 316T246 306Q232 306 219 319T206 355Q206 363 208 369T212 383Q203 378 193 367T173 348Q157 331 142 319T118 306Q107 306 100 314T92 340Q92 350 100 362T118 384T140 403T158 417Q165 423 175 432T197 450T218 465T238 471Q247 471 252 465T261 451T266 434T268 418Q268 408 265 399T262 381V380Q270 380 281 384T303 395T323 410T336 428Q341 440 347 451T365 462Q379 462 386 448T393 419Z"  />
<glyph unicode="&#xF2;" horiz-adv-x="373" d="M332 167Q332 127 321 92T288 31T234 -10T159 -25Q111 -25 83 2T54 78Q54 108 66 139T100 196T150 237T211 253Q222 253 228 249T241 245Q249 245 256 248T272 251Q290 251 301 244T320 224T329 197T332 167ZM209 144Q209 153 201 157T185 162Q175 162 166 155T151 138T141 116T137 96V82Q137 52 171 52Q177 52 187 53T198 64Q198 69 196 74T194 84Q194 101 201 116T209 144ZM311 365Q311 347 301 331T270 314Q253 314 247 327T230 352Q219 363 205 375T175 401T144 426T116 449Q106 457 100 468T94 493Q94 508 104 514T128 521Q135 521 148 513T176 493T203 470T222 452Q229 446 244 435T274 412T300 387T311 365Z"  />
<glyph unicode="&#xF3;" horiz-adv-x="373" d="M332 167Q332 127 321 92T288 31T234 -10T159 -25Q111 -25 83 2T54 78Q54 108 66 139T100 196T150 237T211 253Q222 253 228 249T241 245Q249 245 256 248T272 251Q290 251 301 244T320 224T329 197T332 167ZM209 144Q209 153 201 157T185 162Q175 162 166 155T151 138T141 116T137 96V82Q137 52 171 52Q177 52 187 53T198 64Q198 69 196 74T194 84Q194 101 201 116T209 144ZM288 466Q288 459 277 447T252 422T224 397T203 377Q192 365 182 351T161 323T139 302T114 293Q98 293 84 301T70 327Q70 335 78 346T98 368T122 389T143 407L192 452Q206 466 221 482T256 498Q288 498 288 466Z"  />
<glyph unicode="&#xF4;" horiz-adv-x="373" d="M332 167Q332 127 321 92T288 31T234 -10T159 -25Q111 -25 83 2T54 78Q54 108 66 139T100 196T150 237T211 253Q222 253 228 249T241 245Q249 245 256 248T272 251Q290 251 301 244T320 224T329 197T332 167ZM209 144Q209 153 201 157T185 162Q175 162 166 155T151 138T141 116T137 96V82Q137 52 171 52Q177 52 187 53T198 64Q198 69 196 74T194 84Q194 101 201 116T209 144ZM339 347Q340 344 340 338Q340 326 330 317T300 307Q283 307 272 317T255 343T247 375T244 404L243 407L244 408Q241 407 230 394T205 365T180 333T166 314Q161 306 151 301T129 296Q119 296 110 302T100 320Q100 328 105 334T115 346Q142 369 168 399T217 456Q223 463 228 471T240 487T255 498T276 503Q289 503 294 496T300 477T303 447T309 411Q312 400 316 390T326 372T334 357T339 347Z"  />
<glyph unicode="&#xF5;" horiz-adv-x="373" d="M332 167Q332 127 321 92T288 31T234 -10T159 -25Q111 -25 83 2T54 78Q54 108 66 139T100 196T150 237T211 253Q222 253 228 249T241 245Q249 245 256 248T272 251Q290 251 301 244T320 224T329 197T332 167ZM209 144Q209 153 201 157T185 162Q175 162 166 155T151 138T141 116T137 96V82Q137 52 171 52Q177 52 187 53T198 64Q198 69 196 74T194 84Q194 101 201 116T209 144ZM359 430Q359 414 357 407T351 395T342 388T329 377Q318 368 310 358T288 343Q269 336 251 327T212 317Q198 317 185 330T172 366Q172 374 174 380T178 394Q169 389 159 378T139 359Q123 342 108 330T84 317Q73 317 66 325T58 351Q58 361 66 373T84 395T106 414T124 428Q131 434 141 443T163 461T184 476T204 482Q213 482 218 476T227 462T232 445T234 429Q234 419 231 410T228 392V391Q236 391 247 395T269 406T289 421T302 439Q307 451 313 462T331 473Q345 473 352 459T359 430Z"  />
<glyph unicode="&#xF6;" horiz-adv-x="373" d="M332 167Q332 127 321 92T288 31T234 -10T159 -25Q111 -25 83 2T54 78Q54 108 66 139T100 196T150 237T211 253Q222 253 228 249T241 245Q249 245 256 248T272 251Q290 251 301 244T320 224T329 197T332 167ZM209 144Q209 153 201 157T185 162Q175 162 166 155T151 138T141 116T137 96V82Q137 52 171 52Q177 52 187 53T198 64Q198 69 196 74T194 84Q194 101 201 116T209 144ZM322 378Q322 361 311 348T281 335Q266 335 256 341T239 358T230 380T227 406Q227 416 229 427T236 448T249 463T271 469Q285 469 294 454T303 426Q303 419 306 415T312 405T319 394T322 378ZM164 439Q164 429 164 409T159 370T148 335T125 320Q110 320 102 330T90 356T85 387T84 414Q84 424 85 435T92 457T105 473T127 479Q145 479 154 468T164 439Z"  />
<glyph unicode="&#xF8;" horiz-adv-x="373" d="M395 327Q395 314 388 303T373 281Q361 263 350 245T327 206Q332 186 332 167Q332 131 323 99T296 41T251 -1T188 -23L172 -48Q161 -65 150 -82T125 -117Q117 -127 106 -136T80 -146Q66 -146 56 -134T46 -109Q46 -100 49 -93T58 -77Q69 -60 81 -45T104 -13Q81 0 68 23T54 78Q54 108 66 139T100 196T149 237T211 253Q222 253 228 249T241 245Q249 245 256 248T272 251Q278 251 280 250Q294 275 305 296T322 333Q327 348 336 353T361 358Q373 358 384 349T395 327ZM209 144Q209 153 201 157T185 162Q175 162 166 155T151 138T141 116T137 96V82Q137 61 153 55Q164 71 175 86T197 119L208 136Q209 139 209 144Z"  />
<glyph unicode="&#xF9;" horiz-adv-x="583" d="M585 26Q585 15 563 9T513 0T458 -5T424 -6Q394 -6 378 5T354 28T340 52T325 63Q316 63 305 52T276 28T232 3T166 -8Q147 -8 129 -5T96 7T72 30T63 68Q63 78 63 98T62 139T58 179T51 206Q46 216 46 224Q46 238 55 245T79 252Q100 252 109 238T121 203T125 157T126 111T136 76T162 62Q190 62 215 71T258 96T288 137T299 190Q299 199 297 208T295 226Q295 237 302 243T319 250Q339 250 348 226T367 170T388 112T424 77Q435 74 453 74T490 73T525 72T549 66Q553 63 559 59T571 49T581 37T585 26ZM293 366Q293 348 283 332T252 315Q235 315 229 328T212 353Q201 364 187 376T157 402T126 427T98 450Q88 458 82 469T76 494Q76 509 86 515T110 522Q117 522 130 514T158 494T185 471T204 453Q211 447 226 436T256 413T282 388T293 366Z"  />
<glyph unicode="&#xFA;" horiz-adv-x="583" d="M585 26Q585 15 563 9T513 0T458 -5T424 -6Q394 -6 378 5T354 28T340 52T325 63Q316 63 305 52T276 28T232 3T166 -8Q147 -8 129 -5T96 7T72 30T63 68Q63 78 63 98T62 139T58 179T51 206Q46 216 46 224Q46 238 55 245T79 252Q100 252 109 238T121 203T125 157T126 111T136 76T162 62Q190 62 215 71T258 96T288 137T299 190Q299 199 297 208T295 226Q295 237 302 243T319 250Q339 250 348 226T367 170T388 112T424 77Q435 74 453 74T490 73T525 72T549 66Q553 63 559 59T571 49T581 37T585 26ZM274 490Q274 483 263 471T238 446T210 421T189 401Q178 389 168 375T147 347T125 326T100 317Q84 317 70 325T56 351Q56 359 64 370T84 392T108 413T129 431L178 476Q192 490 207 506T242 522Q274 522 274 490Z"  />
<glyph unicode="&#xFB;" horiz-adv-x="583" d="M585 26Q585 15 563 9T513 0T458 -5T424 -6Q394 -6 378 5T354 28T340 52T325 63Q316 63 305 52T276 28T232 3T166 -8Q147 -8 129 -5T96 7T72 30T63 68Q63 78 63 98T62 139T58 179T51 206Q46 216 46 224Q46 238 55 245T79 252Q100 252 109 238T121 203T125 157T126 111T136 76T162 62Q190 62 215 71T258 96T288 137T299 190Q299 199 297 208T295 226Q295 237 302 243T319 250Q339 250 348 226T367 170T388 112T424 77Q435 74 453 74T490 73T525 72T549 66Q553 63 559 59T571 49T581 37T585 26ZM311 360Q312 357 312 351Q312 339 302 330T272 320Q255 320 244 330T227 356T219 388T216 417L215 420L216 421Q213 420 202 407T177 378T152 346T138 327Q133 319 123 314T101 309Q91 309 82 315T72 333Q72 341 77 347T87 359Q114 382 140 412T189 469Q195 476 200 484T212 500T227 511T248 516Q261 516 266 509T272 490T275 460T281 424Q284 413 288 403T298 385T306 370T311 360Z"  />
<glyph unicode="&#xFC;" horiz-adv-x="583" d="M585 26Q585 15 563 9T513 0T458 -5T424 -6Q394 -6 378 5T354 28T340 52T325 63Q316 63 305 52T276 28T232 3T166 -8Q147 -8 129 -5T96 7T72 30T63 68Q63 78 63 98T62 139T58 179T51 206Q46 216 46 224Q46 238 55 245T79 252Q100 252 109 238T121 203T125 157T126 111T136 76T162 62Q190 62 215 71T258 96T288 137T299 190Q299 199 297 208T295 226Q295 237 302 243T319 250Q339 250 348 226T367 170T388 112T424 77Q435 74 453 74T490 73T525 72T549 66Q553 63 559 59T571 49T581 37T585 26ZM313 368Q313 351 302 338T272 325Q257 325 247 331T230 348T221 370T218 396Q218 406 220 417T227 438T240 453T262 459Q276 459 285 444T294 416Q294 409 297 405T303 395T310 384T313 368ZM155 429Q155 419 155 399T150 360T139 325T116 310Q101 310 93 320T81 346T76 377T75 404Q75 414 76 425T83 447T96 463T118 469Q136 469 145 458T155 429Z"  />
<glyph unicode="&#xFD;" horiz-adv-x="455" d="M398 -52Q398 -117 370 -149T273 -181Q260 -181 241 -181T203 -176T173 -161T160 -132Q160 -113 174 -104T207 -92T246 -90T278 -91Q301 -91 314 -84T327 -50Q327 -44 325 -23T317 22T306 64T291 82Q280 82 267 72T236 51T198 29T150 19Q120 19 101 34T72 71T59 121T55 172Q55 183 55 200T60 232T73 259T99 271Q114 271 125 261T136 235Q136 217 132 198T128 160Q128 153 129 142T133 120T143 102T159 94Q170 94 182 100T204 112Q234 132 253 153T287 207Q295 225 301 238T331 251Q346 251 353 243T364 223T367 198T366 174Q366 145 371 117T382 62T393 6T398 -52ZM381 482Q381 475 370 463T345 438T317 413T296 393Q285 381 275 367T254 339T232 318T207 309Q191 309 177 317T163 343Q163 351 171 362T191 384T215 405T236 423L285 468Q299 482 314 498T349 514Q381 514 381 482Z"  />
<glyph unicode="&#xFE;" horiz-adv-x="399" d="M371 129Q371 105 364 79T342 29T307 -9T258 -24Q226 -24 207 -16T176 -8Q172 -8 170 -13T167 -26T166 -41T166 -51Q166 -75 168 -99T170 -147Q170 -156 166 -166T156 -186T140 -200T121 -206Q108 -206 101 -196T89 -172T83 -144T81 -121Q81 -104 80 -72T76 -6T69 59T61 105Q56 122 56 135Q56 144 57 148Q55 165 52 184T43 213Q39 222 30 239T12 276T-4 313T-12 338Q-14 347 -7 359T11 373Q21 374 32 367T54 348T72 324T83 303Q87 292 90 277T100 247T115 223T141 215Q150 217 157 217T171 217Q201 225 232 225Q256 225 281 222T326 208T358 178T371 129ZM299 113Q299 138 288 144T255 151Q244 151 226 151T191 146T162 132T150 107Q150 89 156 78T174 61T200 52T230 50Q262 50 280 64T299 113Z"  />
<glyph unicode="&#xFF;" horiz-adv-x="455" d="M398 -52Q398 -117 370 -149T273 -181Q260 -181 241 -181T203 -176T173 -161T160 -132Q160 -113 174 -104T207 -92T246 -90T278 -91Q301 -91 314 -84T327 -50Q327 -44 325 -23T317 22T306 64T291 82Q280 82 267 72T236 51T198 29T150 19Q120 19 101 34T72 71T59 121T55 172Q55 183 55 200T60 232T73 259T99 271Q114 271 125 261T136 235Q136 217 132 198T128 160Q128 153 129 142T133 120T143 102T159 94Q170 94 182 100T204 112Q234 132 253 153T287 207Q295 225 301 238T331 251Q346 251 353 243T364 223T367 198T366 174Q366 145 371 117T382 62T393 6T398 -52ZM344 372Q344 355 333 342T303 329Q288 329 278 335T261 352T252 374T249 400Q249 410 251 421T258 442T271 457T293 463Q307 463 316 448T325 420Q325 413 328 409T334 399T341 388T344 372ZM186 433Q186 423 186 403T181 364T170 329T147 314Q132 314 124 324T112 350T107 381T106 408Q106 418 107 429T114 451T127 467T149 473Q167 473 176 462T186 433Z"  />
<glyph unicode="&#x131;" horiz-adv-x="192" d="M145 179Q145 168 144 147T140 102T135 58T129 28Q124 14 118 8T96 2Q76 2 64 19T52 54Q52 68 55 81T60 109Q66 146 66 185Q66 203 76 210T104 218Q125 218 135 210T145 179Z"  />
<glyph unicode="&#x152;" horiz-adv-x="703" d="M703 373Q703 365 696 360T678 350T657 344T640 341Q600 338 561 338T481 331Q468 328 454 324T424 314T395 306T368 302Q357 302 353 296T346 280L336 222Q336 217 336 212T336 202V191Q337 190 339 190Q342 190 345 191T350 193Q374 201 398 202T447 206Q463 207 478 212T509 222T540 232T571 237Q576 237 583 236T596 231T607 222T612 210Q612 202 606 195T590 180T571 169T554 163Q528 158 501 158T447 151Q430 146 412 142T376 137Q362 137 355 145T338 153Q335 153 334 152Q332 134 328 116Q337 105 356 98T396 86T437 80T465 78Q474 78 489 78T519 79T548 85T568 97Q573 104 579 112T594 121Q602 121 608 113T620 95T628 73T631 55Q631 27 604 20Q571 12 537 6T469 0Q454 0 431 5T383 18T336 36T299 58L297 56Q281 39 267 27T238 6T206 -6T164 -10Q110 -10 80 21T49 107Q49 160 68 197T122 272Q132 282 145 295T174 320T205 339T237 347Q260 347 286 329Q291 351 299 366T320 381Q326 381 330 378T338 372T350 366T368 363Q384 363 404 370T440 383Q469 391 499 394T558 397H623Q630 397 643 397T670 397T693 390T703 373ZM273 214Q272 240 262 251T226 262Q205 262 186 246T153 206T129 157T120 113Q120 95 127 86T146 74T172 70T200 70Q220 70 235 90T259 136V139Q259 159 264 177T273 214Z"  />
<glyph unicode="&#x153;" horiz-adv-x="627" d="M633 53Q633 45 627 38T613 26T595 17T580 12Q529 0 478 -10T373 -20Q318 -20 266 9Q246 -7 219 -16T159 -25Q111 -25 83 2T54 78Q54 108 66 139T100 196T149 237T211 253Q222 253 228 249T241 245Q249 245 256 248T272 251H278Q297 265 319 273T369 282Q400 282 422 267T445 218Q445 189 433 170T403 138T364 119T325 106Q322 95 318 84T309 63Q319 59 332 56T357 52T380 49T396 48Q407 48 418 48T441 49Q464 51 486 53T531 59Q545 61 558 64T586 67Q589 67 597 67T613 66T627 62T633 53ZM207 151Q204 156 198 159T185 162Q175 162 166 155T151 138T141 116T137 96V82Q137 52 171 52Q177 52 187 53T198 64Q198 69 196 74T194 84Q194 89 195 93T197 102Q199 113 201 126T207 151ZM375 195Q375 204 362 207T342 211Q334 211 327 207Q332 187 332 167V162Q348 169 361 178T375 195Z"  />
<glyph unicode="&#x160;" horiz-adv-x="452" d="M424 128Q424 111 417 96T399 67T373 43T345 25Q334 19 314 12T272 -3T230 -16T198 -21Q186 -21 172 -14T146 3T126 27T118 52Q118 66 130 74T154 82Q161 82 169 78T187 70T205 62T225 58Q234 58 254 65T296 82T334 103T350 124Q350 138 327 148T268 168T193 188T117 213T59 246T35 294Q35 325 58 347T115 385T183 407T243 415Q258 415 276 409T312 391T340 365T352 334Q352 324 347 312T334 290T315 272T293 265Q285 265 281 268T276 280Q276 290 279 299T283 319Q283 339 270 345T239 352Q229 352 209 348T167 337T130 320T114 296Q114 284 137 275T194 257T269 236T343 210T401 175T424 128ZM164 587Q163 590 163 596Q163 608 173 617T203 627Q220 627 231 617T248 591T256 559T259 530L260 527L259 526Q262 527 273 540T298 569T323 601T337 620Q342 628 352 633T374 638Q384 638 393 632T403 614Q403 606 398 600T388 588Q361 565 335 535T286 478Q280 470 275 462T263 447T248 436T227 431Q214 431 209 438T203 457T200 487T194 523Q189 544 177 562T164 587Z"  />
<glyph unicode="&#x161;" horiz-adv-x="363" d="M312 240Q312 212 300 198T272 175T244 162T231 150Q231 146 240 141T260 128T281 109T290 79Q290 59 274 38T234 -2T185 -32T141 -44Q129 -44 114 -39T85 -24T62 -3T52 23Q52 38 61 42T82 47Q99 47 116 40T151 33Q155 33 164 36T184 43T201 52T209 61Q209 67 199 71T175 79T148 86T129 93Q119 99 108 109T88 131T74 157T68 182Q68 201 85 218T127 250T177 272T219 281Q229 281 244 280T275 275T301 263T312 240ZM135 480Q134 483 134 489Q134 501 144 510T174 520Q191 520 202 510T219 484T227 452T230 423L231 420L230 419Q233 420 244 433T269 462T294 494T308 513Q313 521 323 526T345 531Q355 531 364 525T374 507Q374 499 369 493T359 481Q332 458 306 428T257 371Q251 363 246 355T234 340T219 329T198 324Q185 324 180 331T174 350T171 380T165 416Q160 437 148 455T135 480Z"  />
<glyph unicode="&#x178;" horiz-adv-x="509" d="M494 423Q494 408 483 389T456 352T424 318T395 296Q387 291 366 282T323 264T283 247T262 236Q256 230 250 214T238 180T229 145T226 119Q226 90 231 80T244 66T256 55T262 28Q262 14 246 6T218 -2Q198 -2 186 9T167 38T158 73T155 107Q155 130 162 151T170 196Q170 201 169 207T159 214Q133 214 110 223T68 249T39 288T28 337Q28 350 30 369T38 405T55 434T84 447Q95 447 109 440T123 419Q123 413 118 406T107 390T96 375T91 361Q91 321 117 308T179 294Q202 294 241 303T317 330T382 371T409 425Q409 442 420 453T449 464Q455 464 463 460T477 450T489 437T494 423ZM372 506Q372 489 361 476T331 463Q316 463 306 469T289 486T280 508T277 534Q277 544 279 555T286 576T299 591T321 597Q335 597 344 582T353 554Q353 547 356 543T362 533T369 522T372 506ZM214 567Q214 557 214 537T209 498T198 463T175 448Q160 448 152 458T140 484T135 515T134 542Q134 552 135 563T142 585T155 601T177 607Q195 607 204 596T214 567Z"  />
<glyph unicode="&#x17D;" horiz-adv-x="583" d="M569 58Q569 47 563 39T548 26T529 18T509 14Q478 11 447 10T384 7Q336 5 290 3T196 0H164Q150 0 132 0T98 5T71 20T59 50Q59 71 76 94T118 142T174 189T229 234T272 272T289 300Q289 305 284 306T275 308Q228 308 182 294T91 266Q80 263 71 263Q61 263 48 267T35 286Q35 302 40 313T61 331Q69 334 87 339T130 350T181 362T232 372T276 380T303 383Q312 383 329 383T364 380T395 370T408 349Q408 336 396 316T367 276T333 237T305 210Q291 198 270 182T228 149T189 115T162 81Q195 79 228 78T294 77Q312 77 330 77T366 80Q402 83 438 89T509 95Q518 95 528 94T548 88T563 77T569 58ZM183 567Q182 570 182 576Q182 588 192 597T222 607Q239 607 250 597T267 571T275 539T278 510L279 507L278 506Q281 507 292 520T317 549T342 581T356 600Q361 608 371 613T393 618Q403 618 412 612T422 594Q422 586 417 580T407 568Q380 545 354 515T305 458Q299 450 294 442T282 427T267 416T246 411Q233 411 228 418T222 437T219 467T213 503Q208 524 196 542T183 567Z"  />
<glyph unicode="&#x17E;" horiz-adv-x="557" d="M546 29Q546 4 531 -2T494 -8Q472 -8 453 1T407 10Q372 10 338 1T268 -8Q251 -8 226 -4T177 9T136 34T119 71Q119 96 132 114T162 144T192 165T206 182Q206 185 204 185T199 186Q181 186 163 181T128 170T94 159T60 154Q47 154 31 163T14 188Q14 197 31 207T71 225T113 238T141 246Q147 247 168 248T212 252T254 255T274 258Q281 263 286 266T302 270Q319 270 333 264T347 238Q347 212 335 198T302 170Q296 167 282 156T252 132T226 107T214 87Q214 80 223 77T245 72T268 70T284 69Q320 69 355 73T427 77Q437 77 456 75T496 67T531 52T546 29ZM163 482Q162 485 162 491Q162 503 172 512T202 522Q219 522 230 512T247 486T255 454T258 425L259 422L258 421Q261 422 272 435T297 464T322 496T336 515Q341 523 351 528T373 533Q383 533 392 527T402 509Q402 501 397 495T387 483Q360 460 334 430T285 373Q279 365 274 357T262 342T247 331T226 326Q213 326 208 333T202 352T199 382T193 418Q188 439 176 457T163 482Z"  />
<glyph unicode="&#x192;" horiz-adv-x="521" d="M526 197Q526 188 519 182T502 171T482 164T464 161Q412 155 359 151T252 147Q242 147 228 146T214 131Q214 120 220 103T233 66Q244 49 244 10Q244 -7 237 -22T219 -51T193 -75T165 -93Q154 -99 134 -106T92 -121T50 -134T18 -139Q6 -139 -8 -132T-33 -115T-53 -91T-61 -65Q-61 -52 -49 -44T-26 -35Q-19 -35 -11 -39T7 -47T26 -55T46 -59Q55 -59 75 -53T117 -36T154 -15T171 6Q171 11 171 16T173 26Q171 34 171 36Q169 51 165 62T155 84T145 103T135 123Q130 137 124 138T103 139Q93 139 79 139T52 142T30 152T20 175Q20 196 31 202T55 210T80 211T92 222Q92 241 88 264T83 310Q83 341 93 375T123 438T171 485T234 504Q255 504 270 492T294 462T309 424T314 387Q314 341 295 301T232 240Q229 238 223 235T216 226Q216 221 223 218T240 213T259 210T272 209Q312 209 350 217T429 226Q435 226 450 225T483 221T513 212T526 197ZM252 379Q252 386 252 395T250 413T242 427T226 433Q205 433 192 419T170 383T158 339T155 300Q155 291 157 283T171 274Q183 274 197 286T224 316T244 350T252 379Z"  />
<glyph unicode="&#x2C6;" horiz-adv-x="328" d="M282 360Q283 357 283 351Q283 339 273 330T243 320Q226 320 215 330T198 356T190 388T187 417L186 420L187 421Q184 420 173 407T148 378T123 346T109 327Q104 319 94 314T72 309Q62 309 53 315T43 333Q43 341 48 347T58 359Q85 382 111 412T160 469Q166 476 171 484T183 500T198 511T219 516Q232 516 237 509T243 490T246 460T252 424Q255 413 259 403T269 385T277 370T282 360Z"  />
<glyph unicode="&#x2C7;" horiz-adv-x="328" d="M44 465Q43 468 43 474Q43 486 53 495T83 505Q100 505 111 495T128 469T136 437T139 408L140 405L139 404Q142 405 153 418T178 447T203 479T217 498Q222 506 232 511T254 516Q264 516 273 510T283 492Q283 484 278 478T268 466Q241 443 215 413T166 356Q160 348 155 340T143 325T128 314T107 309Q94 309 89 316T83 335T80 365T74 401Q69 422 57 440T44 465Z"  />
<glyph unicode="&#x2DA;" horiz-adv-x="287" d="M250 442Q250 421 242 402T218 367T179 343T125 333Q108 333 92 338T62 352T40 372T32 395Q32 411 44 427T76 456T118 477T165 486Q173 486 177 484T186 482Q191 482 196 483T208 485Q233 485 241 471T250 442ZM160 419Q160 424 154 426T143 428Q129 428 122 421T114 405V398Q114 383 137 383Q142 383 149 383T156 389Q156 391 155 393T154 399Q154 407 157 410T160 419Z"  />
<glyph unicode="&#x2DC;" horiz-adv-x="423" d="M359 443Q359 427 357 420T351 408T342 401T329 390Q318 381 310 371T288 356Q269 349 251 340T212 330Q198 330 185 343T172 379Q172 387 174 393T178 407Q169 402 159 391T139 372Q123 355 108 343T84 330Q73 330 66 338T58 364Q58 374 66 386T84 408T106 427T124 441Q131 447 141 456T163 474T184 489T204 495Q213 495 218 489T227 475T232 458T234 442Q234 432 231 423T228 405V404Q236 404 247 408T269 419T289 434T302 452Q307 464 313 475T331 486Q345 486 352 472T359 443Z"  />
<glyph unicode="&#x2013;" horiz-adv-x="532" d="M489 209Q489 187 470 185T419 182Q349 182 281 171T143 160Q129 160 111 160T78 164T51 173T40 192Q40 201 49 210T71 227T101 240T133 245Q200 245 266 250T399 255Q413 255 429 252T458 242T480 228T489 209Z"  />
<glyph unicode="&#x2014;" horiz-adv-x="695" d="M664 209Q664 198 657 193T636 185T605 182T566 182Q470 182 375 171T183 160Q163 160 139 160T92 164T55 173T40 192Q40 201 52 210T84 227T125 240T169 245Q262 245 354 250T539 255Q558 255 580 252T621 242T652 228T664 209Z"  />
<glyph unicode="&#x2018;" horiz-adv-x="294" d="M258 537Q258 529 251 523T233 511T213 500T197 489Q189 481 175 460T146 413T122 365T111 330Q111 325 111 318T113 303T119 292T131 287Q137 287 142 293T156 308T175 323T205 330Q221 330 234 324T247 299Q247 279 237 263T212 236T178 218T141 211Q96 211 68 241T40 317Q40 366 62 413T115 499Q124 511 134 523T155 546T180 564T211 571Q227 571 242 564T258 537Z"  />
<glyph unicode="&#x2019;" horiz-adv-x="311" d="M264 429Q264 413 249 388T212 339T167 298T127 281Q110 281 104 294T98 322Q98 343 110 356T137 380T164 403T177 433Q177 449 167 456T143 463Q139 463 134 459T121 451T104 443T84 439Q44 439 44 479Q44 492 56 504T86 525T120 539T149 544Q200 544 232 513T264 429Z"  />
<glyph unicode="&#x201A;" horiz-adv-x="311" d="M264 -26Q264 -43 249 -68T212 -117T167 -158T127 -175Q110 -175 104 -161T98 -133Q98 -112 110 -99T137 -75T164 -52T177 -22Q177 -6 167 1T143 8Q139 8 134 4T121 -4T104 -12T84 -16Q44 -16 44 23Q44 37 56 49T86 70T120 84T149 89Q200 89 232 57T264 -26Z"  />
<glyph unicode="&#x201C;" horiz-adv-x="551" d="M526 541Q526 539 514 526T484 493T444 449T404 401T373 355T361 317Q361 300 370 288T397 275Q408 275 422 286T457 297Q475 297 485 288T496 259Q496 247 486 237T462 219T434 207T409 203Q389 203 366 209T322 228T289 259T276 301Q276 326 285 346T307 384T337 418T367 453Q374 462 389 481T422 520T457 554T486 569Q503 569 514 565T526 541ZM258 537Q258 529 251 523T233 511T213 500T197 489Q189 481 175 460T146 413T122 365T111 330Q111 325 111 318T113 303T119 292T131 287Q137 287 142 293T156 308T175 323T205 330Q221 330 234 324T247 299Q247 279 237 263T212 236T178 218T141 211Q96 211 68 241T40 317Q40 366 62 413T115 499Q124 511 134 523T155 546T180 564T211 571Q227 571 242 564T258 537Z"  />
<glyph unicode="&#x201D;" horiz-adv-x="628" d="M589 435Q589 405 573 375T532 321T476 281T415 265Q398 265 394 279T389 306Q389 325 408 333T449 349T491 372T510 420Q510 441 502 455T470 469Q458 469 446 462T423 446T402 430T387 422Q367 422 353 434T339 467Q339 481 345 491T361 508T383 519T407 527Q430 532 455 541T504 550Q524 550 539 539T566 510T583 472T589 435ZM264 429Q264 413 249 388T212 339T167 298T127 281Q110 281 104 294T98 322Q98 343 110 356T137 380T164 403T177 433Q177 449 167 456T143 463Q139 463 134 459T121 451T104 443T84 439Q44 439 44 479Q44 492 56 504T86 525T120 539T149 544Q200 544 232 513T264 429Z"  />
<glyph unicode="&#x201E;" horiz-adv-x="628" d="M589 10Q589 -20 573 -50T532 -104T476 -144T415 -160Q398 -160 394 -146T389 -119Q389 -106 398 -99T420 -87T449 -76T478 -63T501 -42T510 -6Q510 16 502 30T470 44Q458 44 446 37T423 20T402 4T387 -4Q367 -4 353 9T339 42Q339 56 345 66T361 83T383 94T407 101Q430 107 455 116T504 125Q524 125 539 114T566 85T583 47T589 10ZM264 4Q264 -12 249 -37T212 -87T167 -128T127 -145Q110 -145 104 -131T98 -103Q98 -82 110 -69T137 -45T164 -22T177 8Q177 24 167 31T143 38Q139 38 134 34T121 26T104 18T84 14Q44 14 44 54Q44 67 56 79T86 100T120 114T149 119Q200 119 232 87T264 4Z"  />
<glyph unicode="&#x2020;" horiz-adv-x="200" d="M194 348Q194 331 179 318T149 305H126Q124 285 122 265T120 228Q120 213 125 199T135 171Q139 163 139 157Q139 142 128 138T110 133Q85 133 71 150T57 189Q57 217 59 244T64 300H50Q38 300 23 310T7 337Q7 357 18 360T43 364Q50 364 56 364T69 366Q71 377 72 388T76 410Q80 423 88 435T117 448Q134 448 141 434T148 409Q148 401 145 394T138 378L137 377H146Q153 377 161 377T177 373T189 364T194 348Z"  />
<glyph unicode="&#x2021;" horiz-adv-x="200" d="M208 246Q203 235 190 227T160 217Q150 217 141 217T121 215Q123 204 127 193T135 171Q139 163 139 157Q139 142 128 138T110 133Q85 133 71 150T57 189V210H43Q37 210 29 211T12 216T-2 226T-8 241Q-9 250 -5 255T5 262T18 265T32 265Q40 266 46 266T61 268L64 300H50Q38 300 23 310T7 337Q7 357 18 360T43 364Q50 364 56 364T69 366Q71 377 72 388T76 410Q80 423 88 435T117 448Q134 448 141 434T148 409Q148 401 145 394T138 378L137 377H146Q153 377 161 377T177 373T189 364T194 348Q194 331 179 318T149 305H126L123 276Q145 279 168 279Q193 278 203 269T208 246Z"  />
<glyph unicode="&#x2022;" horiz-adv-x="359" d="M326 191Q326 162 309 145T268 119T217 106T169 103Q150 103 129 107T91 122T62 149T50 188Q50 205 57 221T75 252T99 278T127 299Q137 305 152 315T182 334T214 349T242 356Q249 356 259 353T278 343T293 329T300 313Q300 307 292 300T283 281Q283 272 289 264T304 246T319 223T326 191Z"  />
<glyph unicode="&#x2026;" horiz-adv-x="570" d="M503 6Q503 -7 492 -16T462 -26Q432 -26 420 -10T408 26Q408 42 417 57T452 72Q466 72 475 61T484 41Q484 36 487 33T493 26T500 18T503 6ZM325 50Q325 43 325 29T320 0T309 -26T286 -37Q271 -37 263 -29T251 -10T246 12T245 32Q245 48 253 63T288 79Q306 79 315 71T325 50ZM160 13Q160 7 156 0T144 -14T129 -26T115 -31Q92 -31 82 -13T71 23Q71 30 73 40T79 61T91 77T107 83Q132 81 146 63T160 13Z"  />
<glyph unicode="&#x2030;" horiz-adv-x="1077" d="M1047 138Q1047 98 1036 63T1003 2T949 -40T874 -55Q826 -55 798 -27T769 49Q769 79 781 110T815 166T864 207T926 223Q937 223 943 219T955 215Q963 215 971 218T987 221Q1005 221 1016 214T1034 195T1044 168T1047 138ZM749 88Q749 58 727 30T672 -19T605 -54T543 -67Q509 -67 498 -55T487 -11Q487 -1 497 16T524 54T561 95T602 133T639 160T666 171Q674 171 688 161T715 138T739 110T749 88ZM733 460Q733 432 706 394T639 314T551 228T464 147T396 80T369 38Q369 25 358 15T333 5Q325 5 318 9T304 20T295 35T291 50Q291 63 296 75T310 98T328 119T347 137Q356 146 380 168T436 219T502 279T564 338T611 386T630 412Q630 417 629 421T620 426Q618 426 603 420T566 403T516 381T464 359T417 340T386 329Q374 326 356 325T319 322T285 313T266 292Q259 271 246 251T213 214T172 189T127 179Q105 179 86 188T53 212T30 246T22 288Q22 303 34 321T63 355T99 382T133 393Q146 393 152 395T164 401T174 406T190 409Q217 409 243 400T297 391Q316 391 341 397T394 411T446 428T489 446Q505 453 523 463T559 482T596 497T632 504Q641 504 657 502T691 494T720 481T733 460ZM924 114Q924 124 916 128T900 132Q890 132 881 125T866 108T856 87T852 67V53Q852 36 861 30T886 23Q892 23 902 24T913 35Q913 40 911 45T909 55Q909 71 916 86T924 114ZM664 65Q664 69 662 72T654 76Q650 76 640 71T620 58T603 43T595 33Q595 30 599 30T605 29Q612 29 622 31T641 38T657 50T664 65ZM182 286Q182 289 182 293T176 298Q172 298 169 296T160 294Q155 294 152 297T145 303T137 310T127 313Q114 313 108 300T101 276Q101 262 113 255T137 248Q152 248 167 258T182 286Z"  />
<glyph unicode="&#x2039;" horiz-adv-x="373" d="M330 288Q330 274 322 265T305 248Q276 225 245 204T185 158Q183 156 175 151T159 138L156 136Q176 128 190 113T222 90Q239 84 255 81T289 73Q314 66 314 40Q314 30 307 15T284 0Q271 0 261 5T238 10Q221 10 210 20T185 38Q171 46 158 55T128 69Q113 74 100 82T73 94Q64 96 55 101T46 121Q46 123 46 124T47 128Q47 135 52 141T65 153T81 162T94 169Q118 181 138 199T181 234Q189 240 205 254T240 282T274 308T299 320Q313 320 321 311T330 288Z"  />
<glyph unicode="&#x203A;" horiz-adv-x="387" d="M360 210Q360 201 353 193T337 177T317 165T300 155Q271 135 242 114T185 71Q178 65 165 54T136 30T107 9T86 0Q76 0 70 4T61 15T56 27T55 38Q55 44 68 56T98 82T131 107T153 124Q179 144 201 161T234 188Q215 192 201 195T175 203T150 215T119 234Q107 242 95 249T70 263Q59 268 53 277T46 300Q46 312 57 321T78 331Q90 331 103 322T129 308Q148 301 164 291T197 272T232 256T273 248Q283 248 298 248T326 244T350 233T360 210Z"  />
<glyph unicode="&#x20AC;" horiz-adv-x="578" d="M571 290Q571 282 564 274T547 260T527 250T510 246Q486 246 453 246T384 245T316 242T262 236Q253 234 244 233T226 230Q212 201 211 167H224Q237 167 258 167T302 167T345 165T377 161Q385 159 394 151T403 133Q403 126 396 121T380 113T362 107T347 105Q317 103 287 103T226 104Q240 87 264 84T320 80L410 81Q418 81 443 81T495 80T543 71T564 50Q564 45 562 40T558 29Q556 20 547 16T526 10T502 8T483 9Q468 9 444 9T391 11T332 16T274 23T225 33T193 47Q168 67 154 102Q134 100 110 99T65 98T30 103T16 119Q15 138 28 147T60 160T101 165T141 172Q142 184 143 195T148 218H146Q120 218 96 208T46 198Q35 198 26 202T17 221Q17 236 26 245T48 259T76 267T102 273Q121 275 143 278T186 286Q200 302 217 315T255 341Q280 356 302 368T348 389T397 403T453 408Q463 408 478 408T506 403T530 392T540 369Q540 359 536 354T524 347T510 345T495 345Q481 345 469 348T443 352Q433 352 424 350T405 345Q389 340 360 328T301 300Q358 302 414 306T527 311Q532 311 539 310T554 307T566 301T571 290Z"  />
<glyph unicode="&#x2122;" horiz-adv-x="614" d="M476 299Q476 284 467 278T448 272Q407 272 407 313Q407 321 407 327T408 341Q387 332 372 332Q355 332 341 339Q341 328 341 319T340 299Q340 295 339 289T335 277T326 267T310 263Q291 263 287 276T283 304Q283 329 281 353T278 403Q273 398 266 397T251 395Q231 394 211 393T170 391Q173 378 177 361T184 325T190 290T193 262Q193 253 189 242T168 230Q157 230 151 234T140 244T135 257T133 269Q132 275 131 292T126 330T119 367T110 390H106Q98 390 86 391T63 395T43 404T34 421Q34 431 46 441T67 452Q72 452 77 451T88 447Q96 445 104 445T122 445Q145 445 167 445T211 451Q218 453 225 454T241 455Q247 455 257 453T275 442L280 436Q282 443 288 449T305 455Q317 455 326 445T344 422T360 400T374 389Q382 389 393 396T410 413Q413 416 419 421T435 427Q443 427 453 419T464 399Q464 382 463 364T462 328V324Q462 323 464 322Q472 317 474 311T476 299Z"  />


</font>
</defs>
</svg>
